<?xml version="1.0" encoding="utf-8"?>
<!-- Generator: Adobe Illustrator 21.1.0, SVG Export Plug-In . SVG Version: 6.00 Build 0)  -->
<svg version="1.1" id="Layer_1" xmlns="http://www.w3.org/2000/svg" xmlns:xlink="http://www.w3.org/1999/xlink" x="0px" y="0px"
	 width="24px" height="24px" viewBox="0 0 24 24" enable-background="new 0 0 24 24" xml:space="preserve">
<path opacity="0.15" enable-background="new    " d="M12,24c0,0,8.3-1.2,8.3-4s-2.9-4.1-5.3-1.7S12,24,12,24z"/>
<path fill="#EC955A" d="M4.3,8.5c0,0,0.8,4.1,3.4,8s4.4,6.6,4.4,6.6l4.3-6.8c0,0,3.3-5,3.3-7.8S17.1,1.1,12,1.1S4.3,5,4.3,8.5z"/>
<path id="Layer_7_2_" fill="#5E2D2D" d="M12,24l-0.6-0.8C9.9,21.3,3.6,12.8,3.6,8.7c-0.2-4.4,3.2-8.2,7.7-8.4c0.2,0,0.5,0,0.7,0
	c4.4-0.2,8.2,3.2,8.4,7.7c0,0.2,0,0.5,0,0.7c0,3.5-4.2,9.7-7.4,14L12,24z M12,1.9C8.4,1.7,5.4,4.4,5.2,8c0,0.2,0,0.5,0,0.7
	c0,2.9,4.4,9.6,6.8,12.7c2-2.7,6.8-9.5,6.8-12.7c0.2-3.6-2.5-6.6-6.1-6.8C12.5,1.9,12.3,1.9,12,1.9L12,1.9z"/>
<g>
	<path fill="#FEDDBD" d="M17.9,8.5c0,1.5-0.6,2.9-1.5,3.9c-0.2,0.2-0.4,0.4-0.7,0.6c-0.7,0.5-1.4,1-2.2,1.1
		c-0.4,0.1-0.9,0.2-1.4,0.2s-0.9-0.1-1.4-0.2c-1.3-0.3-2.4-1-3.1-2c-0.8-1-1.3-2.3-1.3-3.6c0-3.2,2.6-5.8,5.8-5.8
		C15.3,2.7,17.9,5.3,17.9,8.5z"/>
	<path d="M14.9,11.7c0.2-0.4,0.4-0.8,0.7-1.2c0.3-0.4,0.5-0.8,0.5-1.3s0-0.9,0.1-1.4c0-0.6-0.2-0.9-0.8-1c-0.9-0.2-1.7-0.3-2.6-0.5
		c-0.3-0.1-0.5,0-0.6,0.3c-0.2,0.3-0.3,0.7-0.4,1.1c-0.2,0.7,0.2,1.1,0.9,1.1c0.4,0,0.8-0.2,1.2-0.3c0.2,0,0.3-0.1,0.4-0.2
		c0.1,0,0.2,0.1,0.3,0.1c0,0.1-0.1,0.2-0.1,0.2s-0.1,0-0.1,0.1c-0.5,0.1-1.1,0.3-1.6,0.4s-0.9,0-1.3-0.3c-0.1-0.1-0.3-0.2-0.5-0.1
		c-0.3,0.1-0.7,0.2-1,0.2c-0.1,0-0.2,0-0.3,0.1c-0.3,0.2-0.6,0.3-1,0.4c-0.2,0-0.3,0.2-0.2,0.4c0.2,0.6,0.3,1.2,0.6,1.8
		c0.1,0.3,0.4,0.6,0.6,0.7l5,0.1c0-0.1,0-0.2,0-0.2C14.8,11.8,14.9,11.8,14.9,11.7z"/>
	<path fill="#FF9292" d="M15,12.4L15,12.4L15,12.4C15,12.3,15,12.3,15,12.4z"/>
	<path fill="#FF9292" d="M15,12.4L15,12.4L15,12.4z"/>
	<path d="M14.8,12.4L14.8,12.4L14.8,12.4l-5.3-0.2c0.2,0.1,0.4,0.2,0.6,0.2c0.4,0,0.7,0.1,1.1,0.1c0.1,0,0.2,0.1,0.2,0.2
		s-0.1,0.2-0.2,0.3c-0.1,0-0.3,0-0.4,0c-0.3-0.1-0.6-0.1-1-0.2l0,0l-0.2,1c0.3,0.1,0.7,0.3,1,0.3c0.5,0.1,0.9,0.2,1.4,0.2
		s1,0,1.4-0.1c0.5-0.1,1.1-0.2,1.5-0.5v-1L14.8,12.4z"/>
</g>
<g>
	<path d="M10.2,5.2c0-0.5,0-0.5-0.4-0.5H9.7c-0.8,0-1,0.4-0.8,1.1C8.9,6.2,9,6.6,9.1,7s0.1,0.7,0.5,1c0.2,0.2,0.5,0.2,0.8,0.1
		c0.2-0.1,0.3-0.3,0.2-0.7C10.1,6.6,10.2,5.9,10.2,5.2z"/>
	<path d="M8.6,7.2C8.5,6.9,8.5,6.6,8.5,6.4S8.4,6.1,8.2,6.1C7.9,6,7.6,6.2,7.5,6.6C7.4,6.9,7.4,7.1,7.4,7.4c0,0.2,0,0.4,0.1,0.6
		c0.1,0.6,0.6,0.9,1.2,0.8C9,8.8,9,8.6,9,8.4C8.9,8,8.8,7.6,8.6,7.2z"/>
	<path d="M14.8,4.6c-0.4-0.1-0.7-0.2-1.1-0.3c-0.3,0-0.4,0.1-0.5,0.4c0,0.2-0.1,0.5-0.1,0.7c0,0.3,0.1,0.5,0.4,0.5
		C13.9,6,14.3,6,14.7,6.1c0.3,0,0.4,0,0.4-0.3c0-0.2,0-0.4,0.1-0.7C15.2,5,15.1,4.7,14.8,4.6z"/>
	<path d="M12.2,4c-0.2,0-0.4,0-0.6,0c-0.6-0.1-0.9,0.3-0.9,0.8c0,0.3,0,0.7,0,0.9c0,0.4,0,0.7,0.2,1c0,0.1,0.1,0.2,0.2,0.3
		c0.1-0.1,0.2-0.1,0.3-0.2c0.2-0.3,0.3-0.5,0.5-0.8s0.4-0.5,0.7-0.6c0.1,0,0.3-0.2,0.3-0.3c0.1-0.2,0.1-0.4,0-0.6
		C12.6,4.2,12.4,4.1,12.2,4z"/>
</g>
</svg>
