<?xml version="1.0" encoding="utf-8"?>
<!-- Generator: Adobe Illustrator 19.1.0, SVG Export Plug-In . SVG Version: 6.00 Build 0)  -->
<svg version="1.1" id="Layer_1" xmlns="http://www.w3.org/2000/svg" xmlns:xlink="http://www.w3.org/1999/xlink" x="0px" y="0px"
	 width="24px" height="24px" viewBox="-131 133 24 24" style="enable-background:new -131 133 24 24;" xml:space="preserve">
<style type="text/css">
	.st0{opacity:0.15;enable-background:new    ;}
	.st1{fill:#FDC086;}
	.st2{fill:#8E3C1B;}
	.st3{fill:#FFECDC;}
	.st4{fill:#FF9292;}
</style>
<path class="st0" d="M-119,157c0,0,8.3-1.2,8.3-4s-2.9-4.1-5.3-1.7S-119,157-119,157z"/>
<path class="st1" d="M-126.7,141.5c0,0,0.8,4.1,3.4,8s4.4,6.6,4.4,6.6l4.3-6.8c0,0,3.3-5,3.3-7.8s-2.6-7.4-7.7-7.4
	S-126.7,138-126.7,141.5z"/>
<path id="Layer_7_2_" class="st2" d="M-119,157l-0.6-0.8c-1.5-1.9-7.8-10.4-7.8-14.5c-0.2-4.4,3.2-8.2,7.7-8.4c0.2,0,0.5,0,0.7,0
	c4.4-0.2,8.2,3.2,8.4,7.7c0,0.2,0,0.5,0,0.7c0,3.5-4.2,9.7-7.4,14L-119,157z M-119,134.9c-3.6-0.2-6.6,2.5-6.8,6.1
	c0,0.2,0,0.5,0,0.7c0,2.9,4.4,9.6,6.8,12.7c2-2.7,6.8-9.5,6.8-12.7c0.2-3.6-2.5-6.6-6.1-6.8C-118.5,134.9-118.7,134.9-119,134.9
	L-119,134.9z"/>
<g>
	<path class="st3" d="M-113.1,141.5c0,1.5-0.6,2.9-1.5,3.9c-0.2,0.2-0.4,0.4-0.7,0.6c-0.7,0.5-1.4,1-2.2,1.1
		c-0.4,0.1-0.9,0.2-1.4,0.2s-0.9-0.1-1.4-0.2c-1.3-0.3-2.4-1-3.1-2c-0.8-1-1.3-2.3-1.3-3.6c0-3.2,2.6-5.8,5.8-5.8
		C-115.7,135.7-113.1,138.3-113.1,141.5z"/>
	<path d="M-116.1,144.7c0.2-0.4,0.4-0.8,0.7-1.2c0.3-0.4,0.5-0.8,0.5-1.3s0-0.9,0.1-1.4c0-0.6-0.2-0.9-0.8-1
		c-0.9-0.2-1.7-0.3-2.6-0.5c-0.3-0.1-0.5,0-0.6,0.3c-0.2,0.3-0.3,0.7-0.4,1.1c-0.2,0.7,0.2,1.1,0.9,1.1c0.4,0,0.8-0.2,1.2-0.3
		c0.2,0,0.3-0.1,0.4-0.2c0.1,0,0.2,0.1,0.3,0.1c0,0.1-0.1,0.2-0.1,0.2s-0.1,0-0.1,0.1c-0.5,0.1-1.1,0.3-1.6,0.4s-0.9,0-1.3-0.3
		c-0.1-0.1-0.3-0.2-0.5-0.1c-0.3,0.1-0.7,0.2-1,0.2c-0.1,0-0.2,0-0.3,0.1c-0.3,0.2-0.6,0.3-1,0.4c-0.2,0-0.3,0.2-0.2,0.4
		c0.2,0.6,0.3,1.2,0.6,1.8c0.1,0.3,0.4,0.6,0.6,0.7l5,0.1c0-0.1,0-0.2,0-0.2C-116.2,144.8-116.1,144.8-116.1,144.7z"/>
	<path class="st4" d="M-116,145.4L-116,145.4L-116,145.4C-116,145.3-116,145.3-116,145.4z"/>
	<path class="st4" d="M-116,145.4L-116,145.4L-116,145.4z"/>
	<path d="M-116.2,145.4L-116.2,145.4L-116.2,145.4l-5.3-0.2c0.2,0.1,0.4,0.2,0.6,0.2c0.4,0,0.7,0.1,1.1,0.1c0.1,0,0.2,0.1,0.2,0.2
		s-0.1,0.2-0.2,0.3c-0.1,0-0.3,0-0.4,0c-0.3-0.1-0.6-0.1-1-0.2l0,0l-0.2,1c0.3,0.1,0.7,0.3,1,0.3c0.5,0.1,0.9,0.2,1.4,0.2
		s1,0,1.4-0.1c0.5-0.1,1.1-0.2,1.5-0.5v-1L-116.2,145.4z"/>
</g>
<g>
	<path d="M-120.8,138.2c0-0.5,0-0.5-0.4-0.5h-0.1c-0.8,0-1,0.4-0.8,1.1c0,0.4,0.1,0.8,0.2,1.2c0.1,0.4,0.1,0.7,0.5,1
		c0.2,0.2,0.5,0.2,0.8,0.1c0.2-0.1,0.3-0.3,0.2-0.7C-120.9,139.6-120.8,138.9-120.8,138.2z"/>
	<path d="M-122.4,140.2c-0.1-0.3-0.1-0.6-0.1-0.8c0-0.2-0.1-0.3-0.3-0.3c-0.3-0.1-0.6,0.1-0.7,0.5c-0.1,0.3-0.1,0.5-0.1,0.8
		c0,0.2,0,0.4,0.1,0.6c0.1,0.6,0.6,0.9,1.2,0.8c0.3,0,0.3-0.2,0.3-0.4C-122.1,141-122.2,140.6-122.4,140.2z"/>
	<path d="M-116.2,137.6c-0.4-0.1-0.7-0.2-1.1-0.3c-0.3,0-0.4,0.1-0.5,0.4c0,0.2-0.1,0.5-0.1,0.7c0,0.3,0.1,0.5,0.4,0.5
		c0.4,0.1,0.8,0.1,1.2,0.2c0.3,0,0.4,0,0.4-0.3c0-0.2,0-0.4,0.1-0.7C-115.8,138-115.9,137.7-116.2,137.6z"/>
	<path d="M-118.8,137c-0.2,0-0.4,0-0.6,0c-0.6-0.1-0.9,0.3-0.9,0.8c0,0.3,0,0.7,0,0.9c0,0.4,0,0.7,0.2,1c0,0.1,0.1,0.2,0.2,0.3
		c0.1-0.1,0.2-0.1,0.3-0.2c0.2-0.3,0.3-0.5,0.5-0.8s0.4-0.5,0.7-0.6c0.1,0,0.3-0.2,0.3-0.3c0.1-0.2,0.1-0.4,0-0.6
		C-118.4,137.2-118.6,137.1-118.8,137z"/>
</g>
</svg>
