<?xml version="1.0" encoding="utf-8"?>
<!-- Generator: Adobe Illustrator 21.1.0, SVG Export Plug-In . SVG Version: 6.00 Build 0)  -->
<svg version="1.1" id="Layer_1" xmlns="http://www.w3.org/2000/svg" xmlns:xlink="http://www.w3.org/1999/xlink" x="0px" y="0px"
	 width="15px" height="15px" viewBox="0 0 15 15" enable-background="new 0 0 15 15" xml:space="preserve">
<g>
	<path fill="#D5EDAE" d="M13,12.6c0-0.1-0.1-0.4-0.1-0.5C12.8,12.3,13,12.4,13,12.6c-1,1-2.3,1.9-3.7,2.2c-0.5,0.1-1.2,0.3-1.8,0.3
		c-0.6,0-1.2-0.1-1.8-0.3c-1.7-0.4-3.1-1.3-4-2.6c0-0.3,0.1-0.4,0.1-0.5c0,0.1-0.1,0.4-0.1,0.5c-1-1.3-1.7-3-1.7-4.6
		c0-4.1,3.3-7.4,7.4-7.4s7.4,3.3,7.4,7.4C14.9,9.5,14.1,11.3,13,12.6z"/>
</g>
<g id="_x38_E8Tr1.tif">
	<g>
		<path d="M2.7,4.3c0-0.1,0.1-0.3,0.1-0.4c0.1-0.4,0.3-0.8,0.6-1C3.7,2.6,3.8,2.5,4,2.4c0.4-0.1,0.8-0.1,1,0.1
			c0.3,0.4,0.5,0.6,0.8,1c0.1,0.3,0.3,0.4,0.5,0.6c0.3,0.4,0.3,0.8-0.1,1.2C5.9,5.4,5.7,5.7,5.6,5.8c-0.1,0-0.1,0.1-0.3,0.1
			c0.5,1.7,1.4,3,2.8,3.8c0.3-0.1,0.4-0.3,0.6-0.4C8.8,9.2,9,9.2,9,9c0.3-0.3,0.6-0.3,0.9,0c0.1,0.1,0.3,0.3,0.3,0.4
			c0.4,0.5,0.8,1,1.2,1.5c0.1,0.1,0.1,0.3,0.1,0.5c0,0.1,0,0.1,0,0.3s-0.1,0.1-0.1,0.3c-0.3,0.3-0.5,0.4-0.8,0.5
			c-0.5,0.3-1,0.3-1.7,0.1c-0.6-0.1-1.2-0.5-1.8-0.8c-0.4-0.3-0.8-0.6-1.2-0.9C5.5,10.5,5,10,4.6,9.5s-0.8-1-1-1.5
			C3.2,7.4,3,6.8,2.7,6.1C2.6,5.7,2.6,5.3,2.6,4.9c0-0.1,0-0.3,0-0.4C2.7,4.6,2.7,4.5,2.7,4.3z"/>
	</g>
</g>
</svg>
