<?xml version="1.0" encoding="utf-8"?>
<!-- Generator: Adobe Illustrator 19.1.0, SVG Export Plug-In . SVG Version: 6.00 Build 0)  -->
<svg version="1.1" id="Layer_1" xmlns="http://www.w3.org/2000/svg" xmlns:xlink="http://www.w3.org/1999/xlink" x="0px" y="0px"
	 width="15px" height="15px" viewBox="-136 137 15 15" style="enable-background:new -136 137 15 15;" xml:space="preserve">
<g>
	<path style="fill:#FFBBBB;" d="M-121.2,144.6c0,1.9-0.8,3.7-1.9,5c-0.3,0.3-0.5,0.5-0.9,0.8c-0.9,0.6-1.8,1.3-2.8,1.4
		c-0.5,0.1-1.1,0.3-1.8,0.3c-0.6,0-1.1-0.1-1.8-0.3c-1.7-0.4-3.1-1.3-3.9-2.5c-1-1.3-1.7-2.9-1.7-4.6c0-4.1,3.3-7.4,7.4-7.4
		C-124.5,137.2-121.2,140.5-121.2,144.6z"/>
	<path d="M-125.1,148.6c0.3-0.5,0.5-1,0.9-1.5c0.4-0.5,0.6-1,0.6-1.7s0-1.1,0.1-1.8c0-0.8-0.3-1.1-1-1.3c-1.1-0.3-2.2-0.4-3.3-0.6
		c-0.4-0.1-0.6,0-0.8,0.4c-0.3,0.4-0.4,0.9-0.5,1.4c-0.3,0.9,0.3,1.4,1.1,1.4c0.5,0,1-0.3,1.5-0.4c0.3,0,0.4-0.1,0.5-0.3
		c0.1,0,0.3,0.1,0.4,0.1c0,0.1-0.1,0.3-0.1,0.3s-0.1,0-0.1,0.1c-0.6,0.1-1.4,0.4-2,0.5s-1.1,0-1.7-0.4c-0.1-0.1-0.4-0.3-0.6-0.1
		c-0.4,0.1-0.9,0.3-1.3,0.3c-0.1,0-0.3,0-0.4,0.1c-0.4,0.3-0.8,0.4-1.3,0.5c-0.3,0-0.4,0.3-0.3,0.5c0.3,0.8,0.4,1.5,0.8,2.3
		c0.1,0.4,0.5,0.8,0.8,0.9l6.4,0.1c0-0.1,0-0.3,0-0.3C-125.3,148.8-125.1,148.8-125.1,148.6z"/>
	<path style="fill:#FF9292;" d="M-124.9,149.5L-124.9,149.5L-124.9,149.5C-124.9,149.4-124.9,149.4-124.9,149.5z"/>
	<path style="fill:#FF9292;" d="M-124.9,149.5L-124.9,149.5L-124.9,149.5z"/>
	<path d="M-125.3,149.5L-125.3,149.5L-125.3,149.5l-6.7-0.3c0.3,0.1,0.5,0.3,0.8,0.3c0.5,0,0.9,0.1,1.4,0.1c0.1,0,0.3,0.1,0.3,0.3
		s-0.1,0.3-0.3,0.4c-0.1,0-0.4,0-0.5,0c-0.4-0.1-0.8-0.1-1.3-0.3l0,0l-0.3,1.3c0.4,0.1,0.9,0.4,1.3,0.4c0.6,0.1,1.1,0.3,1.8,0.3
		s1.3,0,1.8-0.1c0.6-0.1,1.4-0.3,1.9-0.6v-1.3L-125.3,149.5z"/>
</g>
<g>
	<path d="M-131,140.3c0-0.6,0-0.6-0.5-0.6h-0.1c-1,0-1.3,0.5-1,1.4c0,0.5,0.1,1,0.3,1.5c0.1,0.5,0.1,0.9,0.6,1.3
		c0.3,0.3,0.6,0.3,1,0.1c0.3-0.1,0.4-0.4,0.3-0.9C-131.2,142.1-131,141.2-131,140.3z"/>
	<path d="M-133.1,142.9c-0.1-0.4-0.1-0.8-0.1-1c0-0.3-0.1-0.4-0.4-0.4c-0.4-0.1-0.8,0.1-0.9,0.6c-0.1,0.4-0.1,0.6-0.1,1
		c0,0.3,0,0.5,0.1,0.8c0.1,0.8,0.8,1.1,1.5,1c0.4,0,0.4-0.3,0.4-0.5C-132.7,143.9-132.9,143.4-133.1,142.9z"/>
	<path d="M-125.2,139.6c-0.5-0.1-0.9-0.3-1.4-0.4c-0.4,0-0.5,0.1-0.6,0.5c0,0.3-0.1,0.6-0.1,0.9c0,0.4,0.1,0.6,0.5,0.6
		c0.5,0.1,1,0.1,1.5,0.3c0.4,0,0.5,0,0.5-0.4c0-0.3,0-0.5,0.1-0.9C-124.7,140.1-124.8,139.7-125.2,139.6z"/>
	<path d="M-128.5,138.8c-0.3,0-0.5,0-0.8,0c-0.8-0.1-1.1,0.4-1.1,1c0,0.4,0,0.9,0,1.1c0,0.5,0,0.9,0.3,1.3c0,0.1,0.1,0.3,0.3,0.4
		c0.1-0.1,0.3-0.1,0.4-0.3c0.3-0.4,0.4-0.6,0.6-1c0.3-0.4,0.5-0.6,0.9-0.8c0.1,0,0.4-0.3,0.4-0.4c0.1-0.3,0.1-0.5,0-0.8
		C-128,139.1-128.2,138.9-128.5,138.8z"/>
</g>
</svg>
