<?xml version="1.0" encoding="utf-8"?>
<!-- Generator: Adobe Illustrator 21.1.0, SVG Export Plug-In . SVG Version: 6.00 Build 0)  -->
<svg version="1.1" id="Layer_1" xmlns="http://www.w3.org/2000/svg" xmlns:xlink="http://www.w3.org/1999/xlink" x="0px" y="0px"
	 width="15px" height="15px" viewBox="0 0 15 15" enable-background="new 0 0 15 15" xml:space="preserve">
<g>
	<path fill="#F6DADA" d="M15,7.5c0,0.5-0.1,1-0.1,1.5c0,0.1-0.1,0.4-0.1,0.5c-0.8,3.2-3.7,5.5-7,5.5s-6.2-2.3-7-5.3
		C0.5,9.1,0.4,8.3,0.4,7.5c0-4.1,3.3-7.4,7.4-7.4C11.7,0.1,15,3.4,15,7.5z"/>
	<g id="_x38_Z5bg7.tif">
		<g>
			<g>
				<path d="M1.9,6.2c0.3-0.5,0.8-0.8,1.4-0.8c0.5,0,1,0,1.7,0s0.9,0.3,1.1,0.9C5.5,6.7,5.3,7.3,5.3,8c0,1.4,0,2.8,0,4.3
					c0,0.4-0.1,0.5-0.5,0.6c-0.4,0-0.5-0.1-0.5-0.5c0-0.5,0-1,0-1.5c0-0.1-0.1-0.3-0.3-0.4c-0.1,0.1-0.3,0.3-0.3,0.4
					c0,0.5,0,1,0,1.7c0,0.4-0.1,0.5-0.5,0.5S2.7,13,2.7,12.6c0-0.6,0-1.3,0-1.9c0-0.5-0.1-0.8-0.5-0.8c-0.1,0-0.3-0.5-0.4-0.5
					C1.8,8,1.9,7.2,1.9,6.2z"/>
				<path d="M7.5,6C6.7,6,6.1,5.4,6.1,4.6s0.6-1.4,1.4-1.4s1.4,0.6,1.4,1.4S8.3,6,7.5,6z"/>
			</g>
		</g>
	</g>
	<g>
		<path fill="none" d="M9.5,8.9c0-0.4,0-0.9,0.1-1.5c-0.1-0.5-0.3-0.9-0.7-1c0.2,0.1,0.4,0.4,0.4,1c0,1,0.1,2.4,0.1,3
			c0-0.2,0.1-0.3,0.1-0.6C9.5,9.5,9.5,9.1,9.5,8.9z"/>
		<path fill="none" d="M6.5,6.4L6.5,6.4L6.5,6.4z"/>
		<path d="M6.6,6.3H6.5C6.6,6.4,6.6,6.4,6.6,6.3C6.7,6.3,6.7,6.3,6.6,6.3z"/>
		<path d="M8.9,6.4c-0.1,0-0.2-0.1-0.3-0.1c-0.7,0-1.3,0-1.9,0c-0.1,0-0.2,0-0.2,0l0,0C5.9,6.5,5.9,7.2,5.9,7.2s0,1.9,0,2.8
			c0,0.2,0,0.3,0,0.4c0.2,0.1,0.3,0.3,0.3,0.6c0,0.6,0,1.4,0,2c0,0.4,0.1,0.5,0.5,0.5s0.5-0.1,0.5-0.5c0-0.5,0-1,0-1.5
			c0-0.3,0.1-0.4,0.3-0.5c0.1,0.1,0.3,0.4,0.3,0.5c0,0.5,0,1,0,1.5c0,0.4,0.1,0.5,0.5,0.5s0.5-0.1,0.5-0.5c0-0.6,0-1.4,0-2
			c0-0.1,0-0.4,0.1-0.4c0.4-0.1,0.5-0.2,0.6-0.5c0-0.6-0.1-2-0.1-3C9.4,6.8,9.2,6.5,8.9,6.4z"/>
		<g>
			<path d="M12.1,5.4c-0.6,0-1.3,0-1.9,0S9.4,5.6,9.1,6.1c1,0.2,0.8,1.7,0.8,1.7c0,1.5,0,3.1,0,4.6c0,0.4,0.3,0.4,0.5,0.4
				c0.4,0,0.5,0,0.5-0.4c0-0.6,0-1.1,0-1.7c0-0.1,0.1-0.4,0.3-0.5c0.1,0.1,0.3,0.4,0.3,0.5c0,0.5,0,1,0,1.5c0,0.4,0.1,0.5,0.5,0.5
				c0.3,0,0.5-0.1,0.5-0.5c0-0.8,0-1.4,0-2.2c0-0.3,0.1-0.5,0.4-0.5s0.4-0.3,0.4-0.5c0-0.9,0-1.7,0-2.5C13.1,5.8,12.7,5.4,12.1,5.4z
				"/>
		</g>
	</g>
	<circle cx="4.2" cy="3.5" r="1.3"/>
	<circle cx="11.1" cy="3.5" r="1.3"/>
</g>
</svg>
