<?xml version="1.0" encoding="utf-8"?>
<!-- Generator: Adobe Illustrator 22.0.1, SVG Export Plug-In . SVG Version: 6.00 Build 0)  -->
<svg version="1.1" id="Layer_1" xmlns="http://www.w3.org/2000/svg" xmlns:xlink="http://www.w3.org/1999/xlink" x="0px" y="0px"
	 viewBox="0 0 15 15" style="enable-background:new 0 0 15 15;" xml:space="preserve">
<style type="text/css">
	.st0{fill:#FFFFFF;}
	.st1{fill:#303030;}
	.st2{fill:#313131;}
</style>
<circle class="st0" cx="7.5" cy="7.5" r="7.5"/>
<g>
	<path class="st1" d="M4.3,7.7c0.2-0.4,0.3-0.7,0.5-1c0.1-0.3,0.3-0.5,0.7-0.4c0.3,0,0.7,0,1,0c0.3,0,0.4,0.1,0.5,0.3
		c0.2,0.4,0.3,0.7,0.5,1.1C7.6,7.3,7.8,6.9,8,6.6c0.1-0.3,0.3-0.4,0.6-0.4c0.5,0,0.9,0,1.4,0c0.3,0,0.4,0.1,0.5,0.4
		c0.1,0.3,0.3,0.7,0.5,1.1c0.2-0.4,0.3-0.7,0.5-1c0.1-0.3,0.3-0.5,0.7-0.4c0.3,0,0.7,0,1,0c0.3,0,0.4,0.1,0.5,0.4
		c0.2,0.6,0.5,1.2,0.8,1.7c0.1,0.2,0.2,0.4,0,0.6C14.2,9,14,9,13.8,8.8c0,0.3,0.1,0.6,0.1,0.8c0,0.2-0.2,0.1-0.2,0.2
		c0,0.5,0,1,0,1.6c0,0.1,0,0.3-0.1,0.4c-0.1,0.1-0.3,0.2-0.5,0.1c-0.2-0.1-0.3-0.2-0.3-0.4c0-0.4,0-0.9,0-1.3c0-0.1,0-0.2,0-0.3
		c-0.1-0.1-0.2-0.1-0.3,0c0,0.5,0,1.1,0,1.7c0,0.2-0.1,0.4-0.3,0.5c-0.3,0.1-0.6-0.1-0.6-0.5c0-0.6,0-1.1,0-1.6
		c0-0.1-0.2-0.1-0.2-0.3c0-0.2,0.1-0.4,0.1-0.7c-0.5,0.3-0.6,0.3-1-0.5c0,0.1,0,0.2,0,0.3c0,0.9,0,1.8,0,2.7c0,0.4-0.3,0.6-0.7,0.4
		c-0.2-0.1-0.2-0.2-0.2-0.4c0-0.4,0-0.9,0-1.3c0-0.1,0-0.2,0-0.3c-0.2,0-0.3,0-0.5,0c0,0.6,0,1.1,0,1.7c0,0.2-0.1,0.3-0.3,0.4
		c-0.2,0.1-0.3,0-0.5-0.1c-0.1-0.1-0.1-0.3-0.1-0.4c0-0.9,0-1.8,0-2.6c0-0.1,0-0.2,0-0.4C7.9,8.5,7.9,8.8,7.7,8.9
		C7.5,9,7.3,9,7.1,8.8c0,0.3,0.1,0.5,0,0.8c0,0.1-0.2,0.1-0.2,0.2c0,0,0,0.1,0,0.1c0,0.5,0,1,0,1.5c0,0.4-0.1,0.6-0.4,0.6
		c-0.3,0-0.5-0.2-0.5-0.6c0-0.5,0-1.1,0-1.6C5.9,9.6,5.8,9.7,5.7,9.7c0,0.6,0,1.1,0,1.7c0,0.3-0.1,0.4-0.4,0.5
		c-0.3,0.1-0.5-0.1-0.5-0.5c0-0.6,0-1.1,0-1.6c0-0.1-0.2-0.1-0.2-0.3c0-0.2,0.1-0.5,0.1-0.7c-0.5,0.3-0.6,0.3-1-0.5
		c0,0.1,0,0.2,0,0.3c0,0.9,0,1.8,0,2.7c0,0.1,0,0.3-0.1,0.4c-0.1,0.2-0.3,0.2-0.5,0.2c-0.2-0.1-0.3-0.2-0.3-0.4c0-0.5,0-0.9,0-1.4
		c0-0.1,0-0.2,0-0.4c-0.2,0-0.3,0-0.5,0c0,0.5,0,1.1,0,1.6c0,0.3-0.2,0.5-0.4,0.5c-0.3,0-0.5-0.2-0.5-0.5c0-0.9,0-1.8,0-2.6
		c0-0.1,0-0.2,0-0.4C1.2,8.5,1.2,8.6,1.1,8.7C1,8.9,0.9,9,0.7,8.9C0.4,8.8,0.3,8.7,0.4,8.4c0.3-0.7,0.6-1.3,0.9-2
		c0.1-0.2,0.2-0.2,0.4-0.2c0.6,0,1.1,0,1.7,0c0.2,0,0.3,0.1,0.4,0.3C3.9,6.9,4.1,7.2,4.3,7.7z"/>
	<path class="st2" d="M9.2,6C8.6,6,8.1,5.5,8.1,4.8c0-0.6,0.5-1.2,1.2-1.1c0.6,0,1.2,0.5,1.1,1.2C10.4,5.5,9.9,6,9.2,6z"/>
	<path class="st2" d="M2.5,6C1.9,6,1.4,5.5,1.4,4.8c0-0.6,0.5-1.1,1.2-1.1c0.6,0,1.1,0.5,1.1,1.2C3.7,5.5,3.2,6,2.5,6z"/>
	<path class="st2" d="M5.9,3.7C6.5,3.7,7,4.2,7,4.8C7.1,5.5,6.6,6,5.9,6C5.3,6,4.8,5.5,4.7,4.9C4.7,4.2,5.3,3.7,5.9,3.7z"/>
	<path class="st2" d="M12.6,6c-0.6,0-1.1-0.5-1.1-1.2c0-0.6,0.5-1.1,1.1-1.1c0.6,0,1.2,0.5,1.2,1.2C13.8,5.5,13.2,6,12.6,6z"/>
</g>
</svg>
