<?xml version="1.0" encoding="utf-8"?>
<!-- Generator: Adobe Illustrator 19.1.0, SVG Export Plug-In . SVG Version: 6.00 Build 0)  -->
<svg version="1.1" id="Layer_1" xmlns="http://www.w3.org/2000/svg" xmlns:xlink="http://www.w3.org/1999/xlink" x="0px" y="0px"
	 width="15px" height="15px" viewBox="-136 137 15 15" style="enable-background:new -136 137 15 15;" xml:space="preserve">
<style type="text/css">
	.st0{fill:#FFFBAB;}
	.st1{fill:none;}
</style>
<g>
	<path class="st0" d="M-121,144.5c0,0.5-0.1,1-0.1,1.5c0,0.1-0.1,0.4-0.1,0.5c-0.8,3.2-3.7,5.5-7,5.5c-3.3,0-6.2-2.3-7-5.3
		c-0.3-0.6-0.4-1.4-0.4-2.2c0-4.1,3.3-7.4,7.4-7.4C-124.3,137.1-121,140.4-121,144.5z"/>
	<g id="_x38_Z5bg7.tif">
		<g>
			<g>
				<path d="M-134.1,143.2c0.3-0.5,0.8-0.8,1.4-0.8c0.5,0,1,0,1.7,0s0.9,0.3,1.1,0.9c-0.6,0.4-0.8,1-0.8,1.7c0,1.4,0,2.8,0,4.3
					c0,0.4-0.1,0.5-0.5,0.6c-0.4,0-0.5-0.1-0.5-0.5c0-0.5,0-1,0-1.5c0-0.1-0.1-0.3-0.3-0.4c-0.1,0.1-0.3,0.3-0.3,0.4
					c0,0.5,0,1,0,1.7c0,0.4-0.1,0.5-0.5,0.5s-0.5-0.1-0.5-0.5c0-0.6,0-1.3,0-1.9c0-0.5-0.1-0.8-0.5-0.8c-0.1,0-0.3-0.5-0.4-0.5
					C-134.2,145-134.1,144.2-134.1,143.2z"/>
				<path d="M-128.5,143c-0.8,0-1.4-0.6-1.4-1.4s0.6-1.4,1.4-1.4s1.4,0.6,1.4,1.4S-127.7,143-128.5,143z"/>
			</g>
		</g>
	</g>
	<g>
		<path class="st1" d="M-126.5,145.9c0-0.4,0-0.9,0.1-1.5c-0.1-0.5-0.3-0.9-0.7-1c0.2,0.1,0.4,0.4,0.4,1c0,1,0.1,2.4,0.1,3
			c0-0.2,0.1-0.3,0.1-0.6C-126.5,146.5-126.5,146.1-126.5,145.9z"/>
		<path class="st1" d="M-129.5,143.4C-129.5,143.4-129.5,143.4-129.5,143.4C-129.5,143.4-129.5,143.4-129.5,143.4z"/>
		<path d="M-129.4,143.3c0,0-0.1,0-0.1,0C-129.4,143.4-129.4,143.4-129.4,143.3C-129.3,143.3-129.3,143.3-129.4,143.3z"/>
		<path d="M-127.1,143.4c-0.1,0-0.2-0.1-0.3-0.1c-0.7,0-1.3,0-1.9,0c-0.1,0-0.2,0-0.2,0c0,0,0,0,0,0c-0.6,0.2-0.6,0.9-0.6,0.9
			s0,1.9,0,2.8c0,0.2,0,0.3,0,0.4c0.2,0.1,0.3,0.3,0.3,0.6c0,0.6,0,1.4,0,2c0,0.4,0.1,0.5,0.5,0.5s0.5-0.1,0.5-0.5c0-0.5,0-1,0-1.5
			c0-0.3,0.1-0.4,0.3-0.5c0.1,0.1,0.3,0.4,0.3,0.5c0,0.5,0,1,0,1.5c0,0.4,0.1,0.5,0.5,0.5s0.5-0.1,0.5-0.5c0-0.6,0-1.4,0-2
			c0-0.1,0-0.4,0.1-0.4c0.4-0.1,0.5-0.2,0.6-0.5c0-0.6-0.1-2-0.1-3C-126.6,143.8-126.8,143.5-127.1,143.4z"/>
		<g>
			<path d="M-123.9,142.4c-0.6,0-1.3,0-1.9,0c-0.6,0-0.8,0.2-1.1,0.7c1,0.2,0.8,1.7,0.8,1.7c0,1.5,0,3.1,0,4.6
				c0,0.4,0.3,0.4,0.5,0.4c0.4,0,0.5,0,0.5-0.4c0-0.6,0-1.1,0-1.7c0-0.1,0.1-0.4,0.3-0.5c0.1,0.1,0.3,0.4,0.3,0.5c0,0.5,0,1,0,1.5
				c0,0.4,0.1,0.5,0.5,0.5c0.3,0,0.5-0.1,0.5-0.5c0-0.8,0-1.4,0-2.2c0-0.3,0.1-0.5,0.4-0.5c0.3,0,0.4-0.3,0.4-0.5c0-0.9,0-1.7,0-2.5
				C-122.9,142.8-123.3,142.4-123.9,142.4z"/>
		</g>
	</g>
	<circle cx="-131.8" cy="140.5" r="1.3"/>
	<circle cx="-124.9" cy="140.5" r="1.3"/>
</g>
</svg>
