<?xml version="1.0" encoding="utf-8"?>
<!-- Generator: Adobe Illustrator 23.0.1, SVG Export Plug-In . SVG Version: 6.00 Build 0)  -->
<svg version="1.1" id="Layer_1" xmlns="http://www.w3.org/2000/svg" xmlns:xlink="http://www.w3.org/1999/xlink" x="0px" y="0px"
	 viewBox="0 0 15 15" style="enable-background:new 0 0 15 15;" xml:space="preserve">
<style type="text/css">
	.st0{fill:#F99285;}
</style>
<path class="st0" d="M5,9.6h0.3c0.5,0.4,1.2,0.5,1.9,0.5c0.6,0,1.3-0.3,1.9-0.5h0.3c1.4,0.4,3.1,1,3.3,1.9c0.1,0.3,0.1,0.5,0.3,0.9
	c1.2-1.3,1.9-3.1,1.9-5c0-4.1-3.3-7.5-7.5-7.5c-4.1,0-7.5,3.3-7.5,7.5c0,1.8,0.6,3.3,1.7,4.6c0-0.3,0.1-0.4,0.1-0.5
	C1.9,10.8,3.7,10.1,5,9.6z M7.1,2.3c1.7,0,3,1.5,3,3.5s-1.3,3.5-3,3.5s-3-1.5-3-3.5S5.5,2.3,7.1,2.3z"/>
<ellipse cx="7.1" cy="5.8" rx="3" ry="3.5"/>
<path d="M13.1,12.5c-1,1-2.3,1.9-3.7,2.2C8.9,14.8,8.2,15,7.6,15c-0.6,0-1.2-0.1-1.8-0.3c-1.7-0.4-3.1-1.3-4.1-2.6
	c0-0.3,0.1-0.4,0.1-0.5c0.4-0.9,1.9-1.5,3.3-1.9h0.3c0.5,0.4,1.2,0.5,1.9,0.5c0.8,0,1.3-0.3,1.8-0.5h0.3c1.4,0.4,3.1,1,3.3,1.9
	C13,11.7,13,12.1,13.1,12.5z"/>
</svg>
