<?xml version="1.0" encoding="utf-8"?>
<!-- Generator: Adobe Illustrator 19.1.0, SVG Export Plug-In . SVG Version: 6.00 Build 0)  -->
<svg version="1.1" id="Layer_1" xmlns="http://www.w3.org/2000/svg" xmlns:xlink="http://www.w3.org/1999/xlink" x="0px" y="0px"
	 width="15px" height="15px" viewBox="-388 299 15 15" style="enable-background:new -388 299 15 15;" xml:space="preserve">
<style type="text/css">
	.st0{fill:#A0D385;}
</style>
<g>
	<path class="st0" d="M-375,311.6c0-0.1-0.1-0.4-0.1-0.5C-375.2,311.3-375,311.4-375,311.6c-1,1-2.3,1.9-3.7,2.2
		c-0.5,0.1-1.2,0.3-1.8,0.3c-0.6,0-1.2-0.1-1.8-0.3c-1.7-0.4-3.1-1.3-4-2.6c0-0.3,0.1-0.4,0.1-0.5c0,0.1-0.1,0.4-0.1,0.5
		c-1-1.3-1.7-3-1.7-4.6c0-4.1,3.3-7.4,7.4-7.4c4.1,0,7.4,3.3,7.4,7.4C-373.1,308.5-373.9,310.3-375,311.6z"/>
</g>
<g id="_x38_E8Tr1.tif">
	<g>
		<path d="M-385.3,303.3c0-0.1,0.1-0.3,0.1-0.4c0.1-0.4,0.3-0.8,0.6-1c0.3-0.3,0.4-0.4,0.6-0.5c0.4-0.1,0.8-0.1,1,0.1
			c0.3,0.4,0.5,0.6,0.8,1c0.1,0.3,0.3,0.4,0.5,0.6c0.3,0.4,0.3,0.8-0.1,1.2c-0.3,0.1-0.5,0.4-0.6,0.5c-0.1,0-0.1,0.1-0.3,0.1
			c0.5,1.7,1.4,3,2.8,3.8c0.3-0.1,0.4-0.3,0.6-0.4c0.1-0.1,0.3-0.1,0.3-0.3c0.3-0.3,0.6-0.3,0.9,0c0.1,0.1,0.3,0.3,0.3,0.4
			c0.4,0.5,0.8,1,1.2,1.5c0.1,0.1,0.1,0.3,0.1,0.5c0,0.1,0,0.1,0,0.3s-0.1,0.1-0.1,0.3c-0.3,0.3-0.5,0.4-0.8,0.5
			c-0.5,0.3-1,0.3-1.7,0.1c-0.6-0.1-1.2-0.5-1.8-0.8c-0.4-0.3-0.8-0.6-1.2-0.9c-0.4-0.4-0.9-0.9-1.3-1.4c-0.4-0.5-0.8-1-1-1.5
			c-0.4-0.6-0.6-1.2-0.9-1.9c-0.1-0.4-0.1-0.8-0.1-1.2c0-0.1,0-0.3,0-0.4C-385.3,303.6-385.3,303.5-385.3,303.3z"/>
	</g>
</g>
</svg>
