<svg xmlns="http://www.w3.org/2000/svg" width="11.6" height="11.6" viewBox="0 0 11.6 11.6">
  <title>circle-hr-one</title>
  <g>
    <circle cx="5.8" cy="5.8" r="5.8" style="fill: #ccd9ff"/>
    <g>
      <path d="M283.52,398.44h1.22c.24,0,.34-.09.4-.34a3.47,3.47,0,0,0-.13-1.6,18.49,18.49,0,0,1-.37-2.08,1.85,1.85,0,0,1,.16-.86,1.11,1.11,0,0,1,1.11-.78h4.9a1.22,1.22,0,0,1,1.22,1.15c.1.64.1.64-.55.64h-1.19c.08.46.13.87.22,1.28a7.64,7.64,0,0,1,.4,2.32,1.87,1.87,0,0,1-2,1.87H285.2C284.11,400,283.64,399.62,283.52,398.44Zm6.43-5.19-.39,0h-3.34a1,1,0,0,0-1.08,1.06,5.71,5.71,0,0,0,.31,2.13,3,3,0,0,1,.14,1.7c-.07.28.08.33.3.33.66,0,1.33,0,2,0a.48.48,0,0,1,.56.38.94.94,0,0,0,.85.7,1,1,0,0,0,.92-.57,1.73,1.73,0,0,0,.18-.39,2.74,2.74,0,0,0,0-1.81A6,6,0,0,1,290,393.25Z" transform="translate(-281.9 -390.4)"/>
      <path d="M288.07,394.17a14.71,14.71,0,0,0,.1,2.39,2.57,2.57,0,0,0,0,.34.27.27,0,0,0,.09.12.49.49,0,0,0,.24,0h.07s0,.05,0,.08l-1.54,0a.25.25,0,0,1,0-.08h.07a.63.63,0,0,0,.28,0,.34.34,0,0,0,.12-.12,1.23,1.23,0,0,0,0-.35c0-.5-.09-1-.12-1.51a1,1,0,0,0,0-.26.13.13,0,0,0-.07-.08.27.27,0,0,0-.12,0,.63.63,0,0,0-.27.07l0-.08,1.11-.51Z" transform="translate(-281.9 -390.4)"/>
    </g>
  </g>
</svg>
