<svg xmlns="http://www.w3.org/2000/svg" width="16.81" height="23.71" viewBox="0 0 16.81 23.71">
  <title>hr-one</title>
  <g>
    <path d="M287.6,411.7s8.3-1.2,8.3-4-2.9-4.1-5.3-1.7A12,12,0,0,0,287.6,411.7Z" transform="translate(-279.19 -387.99)" style="opacity: 0.15000000596046448;isolation: isolate"/>
    <path d="M279.9,396.2a24.67,24.67,0,0,0,3.4,8l4.4,6.6L292,404s3.3-5,3.3-7.8a7.81,7.81,0,0,0-7.7-7.4A7.38,7.38,0,0,0,279.9,396.2Z" transform="translate(-279.19 -387.99)" style="fill: #5177bc"/>
  </g>
  <g>
    <circle cx="8.51" cy="8.21" r="5.8" style="fill: #ccd9ff"/>
    <g>
      <path d="M283.52,398.44h1.22c.24,0,.34-.09.4-.34a3.47,3.47,0,0,0-.13-1.6,18.49,18.49,0,0,1-.37-2.08,1.85,1.85,0,0,1,.16-.86,1.11,1.11,0,0,1,1.11-.78h4.9a1.22,1.22,0,0,1,1.22,1.15c.1.64.1.64-.55.64h-1.19c.08.46.13.87.22,1.28a7.64,7.64,0,0,1,.4,2.32,1.87,1.87,0,0,1-2,1.87H285.2C284.11,400,283.64,399.62,283.52,398.44Zm6.43-5.19-.39,0h-3.34a1,1,0,0,0-1.08,1.06,5.71,5.71,0,0,0,.31,2.13,3,3,0,0,1,.14,1.7c-.07.28.08.33.3.33.66,0,1.33,0,2,0a.48.48,0,0,1,.56.38.94.94,0,0,0,.85.7,1,1,0,0,0,.92-.57,1.73,1.73,0,0,0,.18-.39,2.74,2.74,0,0,0,0-1.81A6,6,0,0,1,290,393.25Z" transform="translate(-279.19 -387.99)"/>
      <path d="M288.07,394.17a14.71,14.71,0,0,0,.1,2.39,2.57,2.57,0,0,0,0,.34.27.27,0,0,0,.09.12.49.49,0,0,0,.24,0h.07s0,.05,0,.08l-1.54,0a.25.25,0,0,1,0-.08h.07a.63.63,0,0,0,.28,0,.34.34,0,0,0,.12-.12,1.23,1.23,0,0,0,0-.35c0-.5-.09-1-.12-1.51a1,1,0,0,0,0-.26.13.13,0,0,0-.07-.08.27.27,0,0,0-.12,0,.63.63,0,0,0-.27.07l0-.08,1.11-.51Z" transform="translate(-279.19 -387.99)"/>
    </g>
  </g>
  <path d="M287.6,411.7l-.6-.8c-1.5-1.9-7.8-10.4-7.8-14.5a8,8,0,0,1,7.7-8.4h.7a8,8,0,0,1,8.4,7.7v.7c0,3.5-4.2,9.7-7.4,14Zm0-22.1a6.41,6.41,0,0,0-6.8,6.1v.7c0,2.9,4.4,9.6,6.8,12.7,2-2.7,6.8-9.5,6.8-12.7a6.41,6.41,0,0,0-6.1-6.8Z" transform="translate(-279.19 -387.99)" style="fill: #0e1736"/>
</svg>
