<?xml version="1.0" encoding="utf-8"?>
<!-- Generator: Adobe Illustrator 19.1.0, SVG Export Plug-In . SVG Version: 6.00 Build 0)  -->
<svg version="1.1" id="Layer_1" xmlns="http://www.w3.org/2000/svg" xmlns:xlink="http://www.w3.org/1999/xlink" x="0px" y="0px"
	 width="24px" height="24px" viewBox="-293 385 24 24" enable-background="new -293 385 24 24" xml:space="preserve">
<path opacity="0.15" enable-background="new    " d="M-281.1,409c0,0,8.3-1.2,8.3-4s-2.9-4.2-5.3-1.7
	C-280.6,405.7-281.1,409-281.1,409z"/>
<path fill="#439CBF" d="M-289,393.4c0,0,0.8,4.1,3.4,8s4.4,6.6,4.4,6.6l4.4-6.8c0,0,3.4-5,3.4-7.8s-2.6-7.4-7.7-7.4
	C-286.3,386-289,389.9-289,393.4z"/>
<path id="Layer_7_4_" fill="#133F44" d="M-281.1,409l-0.6-0.8c-1.5-1.9-7.8-10.4-7.8-14.6c-0.2-4.4,3.2-8.2,7.7-8.4
	c0.2,0,0.5,0,0.7,0c4.4-0.2,8.2,3.2,8.4,7.7c0,0.2,0,0.5,0,0.7c0,3.5-4.2,9.7-7.4,14.1L-281.1,409z M-281.3,386.8
	c-3.6-0.2-6.6,2.5-6.8,6.1c0,0.2,0,0.5,0,0.7c0,2.9,4.4,9.6,6.8,12.8c2-2.7,6.9-9.5,6.9-12.8c0.2-3.6-2.5-6.6-6.1-6.8
	C-280.7,386.8-281,386.8-281.3,386.8L-281.3,386.8z"/>
<path fill="#ACE0E8" d="M-283,395.1h0.2c0.4,0.3,0.9,0.4,1.5,0.4c0.5,0,1-0.2,1.5-0.4h0.2c1.1,0.3,2.4,0.8,2.6,1.5
	c0.1,0.2,0.1,0.4,0.2,0.7c0.9-1,1.5-2.4,1.5-3.9c0-3.2-2.6-5.8-5.8-5.8c-3.2,0-5.8,2.6-5.8,5.8c0,1.4,0.5,2.6,1.3,3.6
	c0-0.2,0.1-0.3,0.1-0.4C-285.4,396-284,395.5-283,395.1z M-281.4,389.4c1.3,0,2.3,1.2,2.3,2.7s-1,2.7-2.3,2.7s-2.3-1.2-2.3-2.7
	S-282.6,389.4-281.4,389.4z"/>
<ellipse cx="-281.4" cy="392.1" rx="2.3" ry="2.7"/>
<path d="M-276.7,397.3c-0.8,0.8-1.8,1.5-2.9,1.7c-0.4,0.1-0.9,0.2-1.4,0.2s-0.9-0.1-1.4-0.2c-1.3-0.3-2.4-1-3.2-2
	c0-0.2,0.1-0.3,0.1-0.4c0.3-0.7,1.5-1.2,2.6-1.5h0.2c0.4,0.3,0.9,0.4,1.5,0.4s1-0.2,1.4-0.4h0.2c1.1,0.3,2.4,0.8,2.6,1.5
	C-276.8,396.7-276.8,397-276.7,397.3z"/>
</svg>
