<?xml version="1.0" encoding="utf-8"?>
<!-- Generator: Adobe Illustrator 19.1.0, SVG Export Plug-In . SVG Version: 6.00 Build 0)  -->
<svg version="1.1" id="Layer_1" xmlns="http://www.w3.org/2000/svg" xmlns:xlink="http://www.w3.org/1999/xlink" x="0px" y="0px"
	 width="24px" height="24px" viewBox="-298 380 24 24" enable-background="new -298 380 24 24" xml:space="preserve">
<path opacity="0.15" d="M-286.4,404c0,0,8.3-1.2,8.3-4s-2.9-4.2-5.3-1.7C-285.9,400.7-286.4,404-286.4,404z"/>
<path fill="#CCCC0D" d="M-294.2,388.4c0,0,0.8,4.1,3.4,8s4.4,6.6,4.4,6.6l4.4-6.8c0,0,3.4-5,3.4-7.8c0-2.8-2.6-7.4-7.7-7.4
	C-291.5,381-294.2,384.9-294.2,388.4z"/>
<path id="Layer_7" d="M-286.4,404l-0.6-0.8c-1.5-1.9-7.8-10.4-7.8-14.6c-0.2-4.4,3.2-8.2,7.7-8.4c0.2,0,0.5,0,0.7,0
	c4.4-0.2,8.2,3.2,8.4,7.7c0,0.2,0,0.5,0,0.7c0,3.5-4.2,9.7-7.4,14.1L-286.4,404z M-286.5,381.8c-3.6-0.2-6.6,2.5-6.8,6.1
	c0,0.2,0,0.5,0,0.7c0,2.9,4.4,9.6,6.8,12.8c2-2.7,6.9-9.5,6.9-12.8c0.2-3.6-2.5-6.6-6.1-6.8C-286,381.8-286.2,381.8-286.5,381.8
	L-286.5,381.8z"/>
<g>
	<path fill="#EFEA9C" d="M-288.2,390.1l0.2,0c0.4,0.3,0.9,0.4,1.5,0.4c0.5,0,1-0.2,1.5-0.4l0.2,0c1.1,0.3,2.4,0.8,2.6,1.5
		c0.1,0.2,0.1,0.4,0.2,0.7c0.9-1,1.5-2.4,1.5-3.9c0-3.2-2.6-5.8-5.8-5.8c-3.2,0-5.8,2.6-5.8,5.8c0,1.4,0.5,2.6,1.3,3.6
		c0-0.2,0.1-0.3,0.1-0.4C-290.6,391-289.3,390.5-288.2,390.1z M-286.6,384.4c1.3,0,2.3,1.2,2.3,2.7c0,1.5-1,2.7-2.3,2.7
		c-1.3,0-2.3-1.2-2.3-2.7C-288.9,385.6-287.9,384.4-286.6,384.4z"/>
	<ellipse cx="-286.6" cy="387.1" rx="2.3" ry="2.7"/>
	<path d="M-282.1,392.4c-0.8,0.8-1.8,1.5-2.9,1.7c-0.4,0.1-0.9,0.2-1.4,0.2c-0.5,0-0.9-0.1-1.4-0.2c-1.3-0.3-2.4-1-3.2-2
		c0-0.2,0.1-0.3,0.1-0.4c0.3-0.7,1.5-1.2,2.6-1.5l0.2,0c0.4,0.3,0.9,0.4,1.5,0.4s1-0.2,1.4-0.4l0.2,0c1.1,0.3,2.4,0.8,2.6,1.5
		C-282.3,391.8-282.2,392.1-282.1,392.4z"/>
</g>
</svg>
