<?xml version="1.0" standalone="no"?>
<!DOCTYPE svg PUBLIC "-//W3C//DTD SVG 20010904//EN"
 "http://www.w3.org/TR/2001/REC-SVG-20010904/DTD/svg10.dtd">
<svg version="1.0" xmlns="http://www.w3.org/2000/svg"
 width="32.000000pt" height="36.000000pt" viewBox="0 0 32.000000 36.000000"
 preserveAspectRatio="xMidYMid meet">
<metadata>
Created by potrace 1.15, written by Peter Selinger 2001-2017
</metadata>
<g transform="translate(0.000000,36.000000) scale(0.100000,-0.100000)"
fill="#000000" stroke="none">
<path d="M111 345 c-18 -8 -46 -15 -61 -15 l-29 0 -3 -100 -3 -100 30 0 c26 0
36 -9 69 -60 21 -33 42 -60 46 -60 5 0 26 27 47 59 31 49 43 60 66 60 l27 1 0
100 0 100 -29 0 c-16 0 -45 7 -64 15 -44 18 -53 18 -96 0z m137 -31 l43 -6 -3
-82 -3 -81 -30 -3 c-24 -2 -37 -14 -64 -54 l-33 -52 -32 52 c-25 40 -37 51
-61 54 l-30 3 -3 83 -3 82 35 0 c19 0 38 5 42 11 6 10 39 9 142 -7z"/>
<path d="M75 279 c-4 -6 -4 -13 -1 -16 3 -3 1 -12 -4 -18 -6 -7 -7 -27 -3 -46
5 -28 7 -30 14 -14 7 18 8 18 8 2 1 -10 5 -16 11 -12 5 3 7 12 3 20 -3 8 0 15
6 15 6 0 11 -9 11 -20 0 -11 7 -20 15 -20 8 0 15 9 15 20 0 28 20 25 21 -2 0
-22 1 -22 8 -3 l8 20 5 -20 c5 -18 6 -18 7 3 1 27 21 30 21 2 0 -11 6 -20 14
-20 15 0 30 56 19 74 -4 6 -6 19 -4 30 2 11 -2 17 -11 14 -7 -3 -13 -12 -13
-21 0 -26 -20 -25 -23 1 -4 27 -27 24 -27 -4 0 -10 -7 -19 -15 -19 -10 0 -14
8 -12 23 2 15 -2 22 -13 22 -11 0 -15 -7 -13 -20 2 -10 -1 -19 -7 -20 -5 0
-11 8 -13 20 -4 22 -17 26 -27 9z"/>
</g>
</svg>
