<?xml version="1.0" encoding="utf-8"?>
<!-- Generator: Adobe Illustrator 21.1.0, SVG Export Plug-In . SVG Version: 6.00 Build 0)  -->
<svg version="1.1" id="Layer_1" xmlns="http://www.w3.org/2000/svg" xmlns:xlink="http://www.w3.org/1999/xlink" x="0px" y="0px"
	 width="24px" height="24px" viewBox="0 0 24 24" enable-background="new 0 0 24 24" xml:space="preserve">
<path opacity="0.15" enable-background="new    " d="M11.6,23.7c0,0,8.3-1.2,8.3-4S17,15.6,14.6,18S11.6,23.7,11.6,23.7z"/>
<path fill="#73B94C" d="M3.9,8.2c0,0,0.8,4.1,3.4,8s4.4,6.6,4.4,6.6L16,16c0,0,3.3-5,3.3-7.8s-2.6-7.4-7.7-7.4S3.9,4.7,3.9,8.2z"/>
<path id="Layer_7_1_" fill="#163F44" d="M11.6,23.7L11,22.9C9.5,21,3.2,12.5,3.2,8.4C3,4,6.4,0.2,10.9,0c0.2,0,0.5,0,0.7,0
	C16-0.2,19.8,3.2,20,7.7c0,0.2,0,0.5,0,0.7c0,3.5-4.2,9.7-7.4,14L11.6,23.7z M11.6,1.6C8,1.4,5,4.1,4.8,7.7c0,0.2,0,0.5,0,0.7
	c0,2.9,4.4,9.6,6.8,12.7c2-2.7,6.8-9.5,6.8-12.7c0.2-3.6-2.5-6.6-6.1-6.8C12.1,1.6,11.9,1.6,11.6,1.6L11.6,1.6z"/>
<g>
	<path fill="#D5EDAE" d="M16,12.1c0-0.1-0.1-0.3-0.1-0.4C15.9,11.9,16,12,16,12.1c-0.8,0.8-1.8,1.5-2.9,1.7
		c-0.4,0.1-0.9,0.2-1.4,0.2s-0.9-0.1-1.4-0.2c-1.3-0.3-2.4-1-3.1-2c0-0.2,0.1-0.3,0.1-0.4c0,0.1-0.1,0.3-0.1,0.4
		c-0.8-1-1.3-2.3-1.3-3.6c0-3.2,2.6-5.8,5.8-5.8c3.2,0,5.8,2.6,5.8,5.8C17.5,9.7,16.9,11.1,16,12.1z"/>
</g>
<g id="_x38_E8Tr1.tif">
	<g>
		<path d="M8,5.7c0-0.1,0.1-0.2,0.1-0.3c0.1-0.3,0.2-0.6,0.5-0.8c0.2-0.2,0.3-0.3,0.5-0.4c0.3-0.1,0.6-0.1,0.8,0.1
			c0.2,0.3,0.4,0.5,0.6,0.8c0.1,0.2,0.2,0.3,0.4,0.5c0.2,0.3,0.2,0.6-0.1,0.9c-0.2,0.1-0.4,0.3-0.5,0.4c-0.1,0-0.1,0.1-0.2,0.1
			c0.4,1.3,1.1,2.3,2.2,3c0.2-0.1,0.3-0.2,0.5-0.3C12.9,9.6,13,9.6,13,9.5c0.2-0.2,0.5-0.2,0.7,0c0.1,0.1,0.2,0.2,0.2,0.3
			c0.3,0.4,0.6,0.8,0.9,1.2c0.1,0.1,0.1,0.2,0.1,0.4c0,0.1,0,0.1,0,0.2s-0.1,0.1-0.1,0.2c-0.2,0.2-0.4,0.3-0.6,0.4
			c-0.4,0.2-0.8,0.2-1.3,0.1s-0.9-0.4-1.4-0.6c-0.3-0.2-0.6-0.5-0.9-0.7c-0.3-0.3-0.7-0.7-1-1.1S9,9.1,8.8,8.7
			C8.5,8.2,8.3,7.8,8.1,7.2C8,6.9,8,6.6,8,6.3C8,6.2,8,6.1,8,6C8,5.9,8,5.8,8,5.7z"/>
	</g>
</g>
</svg>
