<?xml version="1.0" encoding="utf-8"?>
<!-- Generator: Adobe Illustrator 19.1.0, SVG Export Plug-In . SVG Version: 6.00 Build 0)  -->
<svg version="1.1" id="Layer_1" xmlns="http://www.w3.org/2000/svg" xmlns:xlink="http://www.w3.org/1999/xlink" x="0px" y="0px"
	 width="24px" height="24px" viewBox="-298 380 24 24" enable-background="new -298 380 24 24" xml:space="preserve">
<path opacity="0.15" d="M-286.1,404c0,0,8.3-1.2,8.3-4s-2.9-4.1-5.3-1.7S-286.1,404-286.1,404z"/>
<path fill="#54B22D" d="M-293.9,388.5c0,0,0.8,4.1,3.4,8s4.4,6.6,4.4,6.6l4.3-6.8c0,0,3.3-5,3.3-7.8s-2.6-7.4-7.7-7.4
	S-293.9,385-293.9,388.5z"/>
<path id="Layer_7_1_" d="M-286.1,404l-0.6-0.8c-1.5-1.9-7.8-10.4-7.8-14.5c-0.2-4.4,3.2-8.2,7.7-8.4c0.2,0,0.5,0,0.7,0
	c4.4-0.2,8.2,3.2,8.4,7.7c0,0.2,0,0.5,0,0.7c0,3.5-4.2,9.7-7.4,14L-286.1,404z M-286.1,381.9c-3.6-0.2-6.6,2.5-6.8,6.1
	c0,0.2,0,0.5,0,0.7c0,2.9,4.4,9.6,6.8,12.7c2-2.7,6.8-9.5,6.8-12.7c0.2-3.6-2.5-6.6-6.1-6.8C-285.6,381.9-285.9,381.9-286.1,381.9
	L-286.1,381.9z"/>
<g>
	<path fill="#A0D385" d="M-281.8,392.4c0-0.1-0.1-0.3-0.1-0.4C-281.9,392.2-281.8,392.3-281.8,392.4c-0.8,0.8-1.8,1.5-2.9,1.7
		c-0.4,0.1-0.9,0.2-1.4,0.2c-0.5,0-0.9-0.1-1.4-0.2c-1.3-0.3-2.4-1-3.1-2c0-0.2,0.1-0.3,0.1-0.4c0,0.1-0.1,0.3-0.1,0.4
		c-0.8-1-1.3-2.3-1.3-3.6c0-3.2,2.6-5.8,5.8-5.8c3.2,0,5.8,2.6,5.8,5.8C-280.3,390-280.9,391.4-281.8,392.4z"/>
</g>
<g id="_x38_E8Tr1.tif">
	<g>
		<path d="M-289.7,386c0-0.1,0.1-0.2,0.1-0.3c0.1-0.3,0.2-0.6,0.5-0.8c0.2-0.2,0.3-0.3,0.5-0.4c0.3-0.1,0.6-0.1,0.8,0.1
			c0.2,0.3,0.4,0.5,0.6,0.8c0.1,0.2,0.2,0.3,0.4,0.5c0.2,0.3,0.2,0.6-0.1,0.9c-0.2,0.1-0.4,0.3-0.5,0.4c-0.1,0-0.1,0.1-0.2,0.1
			c0.4,1.3,1.1,2.3,2.2,3c0.2-0.1,0.3-0.2,0.5-0.3c0.1-0.1,0.2-0.1,0.2-0.2c0.2-0.2,0.5-0.2,0.7,0c0.1,0.1,0.2,0.2,0.2,0.3
			c0.3,0.4,0.6,0.8,0.9,1.2c0.1,0.1,0.1,0.2,0.1,0.4c0,0.1,0,0.1,0,0.2c0,0.1-0.1,0.1-0.1,0.2c-0.2,0.2-0.4,0.3-0.6,0.4
			c-0.4,0.2-0.8,0.2-1.3,0.1c-0.5-0.1-0.9-0.4-1.4-0.6c-0.3-0.2-0.6-0.5-0.9-0.7c-0.3-0.3-0.7-0.7-1-1.1c-0.3-0.4-0.6-0.8-0.8-1.2
			c-0.3-0.5-0.5-0.9-0.7-1.5c-0.1-0.3-0.1-0.6-0.1-0.9c0-0.1,0-0.2,0-0.3C-289.7,386.2-289.7,386.1-289.7,386z"/>
	</g>
</g>
</svg>
