<?xml version="1.0" encoding="utf-8"?>
<!-- Generator: Adobe Illustrator 19.1.0, SVG Export Plug-In . SVG Version: 6.00 Build 0)  -->
<svg version="1.1" id="Layer_1" xmlns="http://www.w3.org/2000/svg" xmlns:xlink="http://www.w3.org/1999/xlink" x="0px" y="0px"
	 width="24px" height="24px" viewBox="-293 385 24 24" enable-background="new -293 385 24 24" xml:space="preserve">
<path opacity="0.15" enable-background="new    " d="M-281.4,408.7c0,0,8.3-1.2,8.3-4s-2.9-4.1-5.3-1.7S-281.4,408.7-281.4,408.7z"
	/>
<path fill="#2EAF52" d="M-289.1,393.2c0,0,0.8,4.1,3.4,8s4.4,6.6,4.4,6.6l4.3-6.8c0,0,3.3-5,3.3-7.8s-2.6-7.4-7.7-7.4
	S-289.1,389.7-289.1,393.2z"/>
<path id="Layer_7_1_" fill="#133F44" d="M-281.4,408.7l-0.6-0.8c-1.5-1.9-7.8-10.4-7.8-14.5c-0.2-4.4,3.2-8.2,7.7-8.4
	c0.2,0,0.5,0,0.7,0c4.4-0.2,8.2,3.2,8.4,7.7c0,0.2,0,0.5,0,0.7c0,3.5-4.2,9.7-7.4,14L-281.4,408.7z M-281.4,386.6
	c-3.6-0.2-6.6,2.5-6.8,6.1c0,0.2,0,0.5,0,0.7c0,2.9,4.4,9.6,6.8,12.7c2-2.7,6.8-9.5,6.8-12.7c0.2-3.6-2.5-6.6-6.1-6.8
	C-280.9,386.6-281.1,386.6-281.4,386.6L-281.4,386.6z"/>
<g>
	<path fill="#A0D385" d="M-277,397.1c0-0.1-0.1-0.3-0.1-0.4C-277.1,396.9-277,397-277,397.1c-0.8,0.8-1.8,1.5-2.9,1.7
		c-0.4,0.1-0.9,0.2-1.4,0.2s-0.9-0.1-1.4-0.2c-1.3-0.3-2.4-1-3.1-2c0-0.2,0.1-0.3,0.1-0.4c0,0.1-0.1,0.3-0.1,0.4
		c-0.8-1-1.3-2.3-1.3-3.6c0-3.2,2.6-5.8,5.8-5.8c3.2,0,5.8,2.6,5.8,5.8C-275.5,394.7-276.1,396.1-277,397.1z"/>
</g>
<g id="_x38_E8Tr1.tif">
	<g>
		<path d="M-285,390.7c0-0.1,0.1-0.2,0.1-0.3c0.1-0.3,0.2-0.6,0.5-0.8c0.2-0.2,0.3-0.3,0.5-0.4c0.3-0.1,0.6-0.1,0.8,0.1
			c0.2,0.3,0.4,0.5,0.6,0.8c0.1,0.2,0.2,0.3,0.4,0.5c0.2,0.3,0.2,0.6-0.1,0.9c-0.2,0.1-0.4,0.3-0.5,0.4c-0.1,0-0.1,0.1-0.2,0.1
			c0.4,1.3,1.1,2.3,2.2,3c0.2-0.1,0.3-0.2,0.5-0.3c0.1-0.1,0.2-0.1,0.2-0.2c0.2-0.2,0.5-0.2,0.7,0c0.1,0.1,0.2,0.2,0.2,0.3
			c0.3,0.4,0.6,0.8,0.9,1.2c0.1,0.1,0.1,0.2,0.1,0.4c0,0.1,0,0.1,0,0.2s-0.1,0.1-0.1,0.2c-0.2,0.2-0.4,0.3-0.6,0.4
			c-0.4,0.2-0.8,0.2-1.3,0.1s-0.9-0.4-1.4-0.6c-0.3-0.2-0.6-0.5-0.9-0.7c-0.3-0.3-0.7-0.7-1-1.1s-0.6-0.8-0.8-1.2
			c-0.3-0.5-0.5-0.9-0.7-1.5c-0.1-0.3-0.1-0.6-0.1-0.9c0-0.1,0-0.2,0-0.3C-285,390.9-285,390.8-285,390.7z"/>
	</g>
</g>
</svg>
