<?xml version="1.0" encoding="utf-8"?>
<!-- Generator: Adobe Illustrator 21.1.0, SVG Export Plug-In . SVG Version: 6.00 Build 0)  -->
<svg version="1.1" id="Layer_1" xmlns="http://www.w3.org/2000/svg" xmlns:xlink="http://www.w3.org/1999/xlink" x="0px" y="0px"
	 width="24px" height="24px" viewBox="0 0 24 24" enable-background="new 0 0 24 24" xml:space="preserve">
<path opacity="0.15" enable-background="new    " d="M12.2,24c0,0,8.3-1.2,8.3-4s-2.9-4.2-5.3-1.7C12.7,20.7,12.2,24,12.2,24z"/>
<path fill="#D0A8C1" d="M4.3,8.4c0,0,0.8,4.1,3.4,8s4.4,6.6,4.4,6.6l4.4-6.8c0,0,3.4-5,3.4-7.8S17.3,1,12.2,1C7,1,4.3,4.9,4.3,8.4z"
	/>
<path id="Layer_7_4_" fill="#5D4463" d="M12.2,24l-0.6-0.8c-1.5-1.9-7.8-10.4-7.8-14.6C3.6,4.2,7,0.4,11.5,0.2c0.2,0,0.5,0,0.7,0
	c4.4-0.2,8.2,3.2,8.4,7.7c0,0.2,0,0.5,0,0.7c0,3.5-4.2,9.7-7.4,14.1L12.2,24z M12,1.8C8.4,1.6,5.4,4.3,5.2,7.9c0,0.2,0,0.5,0,0.7
	c0,2.9,4.4,9.6,6.8,12.8c2-2.7,6.9-9.5,6.9-12.8C19.1,5,16.4,2,12.8,1.8C12.6,1.8,12.3,1.8,12,1.8L12,1.8z"/>
<path fill="#F6DADA" d="M18,8.4c0,0.4-0.1,0.8-0.1,1.2c0,0.1-0.1,0.3-0.1,0.4c-0.6,2.5-2.9,4.3-5.5,4.3s-4.9-1.8-5.5-4.2
	C6.6,9.6,6.5,9,6.5,8.4c0-3.2,2.6-5.8,5.8-5.8C15.4,2.6,18,5.2,18,8.4z"/>
<g id="_x38_Z5bg7.tif">
	<g>
		<g>
			<path d="M7.7,7.4C7.9,7,8.3,6.8,8.8,6.8c0.4,0,0.8,0,1.3,0S10.8,7,11,7.5c-0.5,0.3-0.6,0.8-0.6,1.3c0,1.1,0,2.2,0,3.4
				c0,0.3-0.1,0.4-0.4,0.5c-0.3,0-0.4-0.1-0.4-0.4c0-0.4,0-0.8,0-1.2c0-0.1-0.1-0.2-0.2-0.3c-0.1,0.1-0.2,0.2-0.2,0.3
				c0,0.4,0,0.8,0,1.3c0,0.3-0.1,0.4-0.4,0.4s-0.4-0.1-0.4-0.4c0-0.5,0-1,0-1.5c0-0.4-0.1-0.6-0.4-0.6c-0.1,0-0.2-0.4-0.3-0.4
				C7.6,8.8,7.7,8.2,7.7,7.4z"/>
			<path d="M12.1,7.2c-0.6,0-1.1-0.5-1.1-1.1S11.5,5,12.1,5s1.1,0.5,1.1,1.1S12.7,7.2,12.1,7.2z"/>
		</g>
	</g>
</g>
<g>
	<path fill="none" d="M13.7,9.5c0-0.3,0-0.7,0.1-1.2c-0.1-0.4-0.2-0.7-0.6-0.8c0.2,0.1,0.3,0.3,0.3,0.8c0,0.8,0.1,1.9,0.1,2.3
		c0-0.1,0-0.3,0-0.4C13.7,10,13.7,9.7,13.7,9.5z"/>
	<path fill="none" d="M11.3,7.5L11.3,7.5L11.3,7.5z"/>
	<path d="M11.4,7.5L11.4,7.5L11.4,7.5L11.4,7.5z"/>
	<path d="M13.2,7.5c-0.1,0-0.1,0-0.2,0c-0.5,0-1,0-1.5,0c-0.1,0-0.1,0-0.2,0l0,0c-0.5,0.2-0.5,0.7-0.5,0.7s0,1.5,0,2.2
		c0,0.1,0,0.2,0,0.3c0.2,0.1,0.3,0.2,0.3,0.5c0,0.5,0,1.1,0,1.6c0,0.3,0.1,0.4,0.4,0.4s0.4-0.1,0.4-0.4c0-0.4,0-0.8,0-1.2
		c0-0.2,0.1-0.3,0.2-0.4c0.1,0.1,0.2,0.3,0.2,0.4c0,0.4,0,0.8,0,1.2c0,0.3,0.1,0.4,0.4,0.4s0.4-0.1,0.4-0.4c0-0.5,0-1.1,0-1.6
		c0-0.1,0-0.3,0.1-0.3c0.3-0.1,0.4-0.2,0.5-0.4c0-0.5-0.1-1.6-0.1-2.3C13.5,7.9,13.4,7.7,13.2,7.5z"/>
	<g>
		<path d="M15.7,6.8c-0.5,0-1,0-1.5,0c-0.4,0-0.6,0.2-0.8,0.6C14.2,7.6,14,8.7,14,8.7c0,1.2,0,2.4,0,3.6c0,0.3,0.2,0.3,0.4,0.3
			c0.3,0,0.4,0,0.4-0.3c0-0.5,0-0.9,0-1.3c0-0.1,0.1-0.3,0.2-0.4c0.1,0.1,0.2,0.3,0.2,0.4c0,0.4,0,0.8,0,1.2c0,0.3,0.1,0.4,0.4,0.4
			c0.2,0,0.4-0.1,0.4-0.4c0-0.6,0-1.1,0-1.7c0-0.2,0.1-0.4,0.3-0.4s0.3-0.2,0.3-0.4c0-0.7,0-1.3,0-2C16.5,7.1,16.2,6.8,15.7,6.8z"/>
	</g>
</g>
<circle cx="9.3" cy="5.3" r="1"/>
<circle cx="14.9" cy="5.3" r="1"/>
</svg>
