<?xml version="1.0" encoding="utf-8"?>
<!-- Generator: Adobe Illustrator 19.1.0, SVG Export Plug-In . SVG Version: 6.00 Build 0)  -->
<svg version="1.1" id="Layer_1" xmlns="http://www.w3.org/2000/svg" xmlns:xlink="http://www.w3.org/1999/xlink" x="0px" y="0px"
	 width="24px" height="24px" viewBox="-131 133 24 24" style="enable-background:new -131 133 24 24;" xml:space="preserve">
<style type="text/css">
	.st0{opacity:0.15;enable-background:new    ;}
	.st1{fill:#BEAED4;}
	.st2{fill:#4D3475;}
	.st3{fill:#E9DEFF;}
	.st4{fill:none;}
</style>
<path class="st0" d="M-118.8,157c0,0,8.3-1.2,8.3-4s-2.9-4.2-5.3-1.7C-118.3,153.7-118.8,157-118.8,157z"/>
<path class="st1" d="M-126.7,141.4c0,0,0.8,4.1,3.4,8s4.4,6.6,4.4,6.6l4.4-6.8c0,0,3.4-5,3.4-7.8s-2.6-7.4-7.7-7.4
	C-124,134-126.7,137.9-126.7,141.4z"/>
<path id="Layer_7_4_" class="st2" d="M-118.8,157l-0.6-0.8c-1.5-1.9-7.8-10.4-7.8-14.6c-0.2-4.4,3.2-8.2,7.7-8.4c0.2,0,0.5,0,0.7,0
	c4.4-0.2,8.2,3.2,8.4,7.7c0,0.2,0,0.5,0,0.7c0,3.5-4.2,9.7-7.4,14.1L-118.8,157z M-119,134.8c-3.6-0.2-6.6,2.5-6.8,6.1
	c0,0.2,0,0.5,0,0.7c0,2.9,4.4,9.6,6.8,12.8c2-2.7,6.9-9.5,6.9-12.8c0.2-3.6-2.5-6.6-6.1-6.8C-118.4,134.8-118.7,134.8-119,134.8
	L-119,134.8z"/>
<path class="st3" d="M-113,141.4c0,0.4-0.1,0.8-0.1,1.2c0,0.1-0.1,0.3-0.1,0.4c-0.6,2.5-2.9,4.3-5.5,4.3c-2.6,0-4.9-1.8-5.5-4.2
	c-0.2-0.5-0.3-1.1-0.3-1.7c0-3.2,2.6-5.8,5.8-5.8C-115.6,135.6-113,138.2-113,141.4z"/>
<g id="_x38_Z5bg7.tif">
	<g>
		<g>
			<path d="M-123.3,140.4c0.2-0.4,0.6-0.6,1.1-0.6c0.4,0,0.8,0,1.3,0s0.7,0.2,0.9,0.7c-0.5,0.3-0.6,0.8-0.6,1.3c0,1.1,0,2.2,0,3.4
				c0,0.3-0.1,0.4-0.4,0.5c-0.3,0-0.4-0.1-0.4-0.4c0-0.4,0-0.8,0-1.2c0-0.1-0.1-0.2-0.2-0.3c-0.1,0.1-0.2,0.2-0.2,0.3
				c0,0.4,0,0.8,0,1.3c0,0.3-0.1,0.4-0.4,0.4s-0.4-0.1-0.4-0.4c0-0.5,0-1,0-1.5c0-0.4-0.1-0.6-0.4-0.6c-0.1,0-0.2-0.4-0.3-0.4
				C-123.4,141.8-123.3,141.2-123.3,140.4z"/>
			<path d="M-118.9,140.2c-0.6,0-1.1-0.5-1.1-1.1s0.5-1.1,1.1-1.1s1.1,0.5,1.1,1.1S-118.3,140.2-118.9,140.2z"/>
		</g>
	</g>
</g>
<g>
	<path class="st4" d="M-117.3,142.5c0-0.3,0-0.7,0.1-1.2c-0.1-0.4-0.2-0.7-0.6-0.8c0.2,0.1,0.3,0.3,0.3,0.8c0,0.8,0.1,1.9,0.1,2.3
		c0-0.1,0-0.3,0-0.4C-117.3,143-117.3,142.7-117.3,142.5z"/>
	<path class="st4" d="M-119.7,140.5C-119.7,140.5-119.7,140.5-119.7,140.5C-119.7,140.5-119.7,140.5-119.7,140.5z"/>
	<path d="M-119.6,140.5c0,0-0.1,0-0.1,0C-119.7,140.5-119.6,140.5-119.6,140.5C-119.6,140.5-119.6,140.5-119.6,140.5z"/>
	<path d="M-117.8,140.5c-0.1,0-0.1,0-0.2,0c-0.5,0-1,0-1.5,0c-0.1,0-0.1,0-0.2,0c0,0,0,0,0,0c-0.5,0.2-0.5,0.7-0.5,0.7s0,1.5,0,2.2
		c0,0.1,0,0.2,0,0.3c0.2,0.1,0.3,0.2,0.3,0.5c0,0.5,0,1.1,0,1.6c0,0.3,0.1,0.4,0.4,0.4s0.4-0.1,0.4-0.4c0-0.4,0-0.8,0-1.2
		c0-0.2,0.1-0.3,0.2-0.4c0.1,0.1,0.2,0.3,0.2,0.4c0,0.4,0,0.8,0,1.2c0,0.3,0.1,0.4,0.4,0.4s0.4-0.1,0.4-0.4c0-0.5,0-1.1,0-1.6
		c0-0.1,0-0.3,0.1-0.3c0.3-0.1,0.4-0.2,0.5-0.4c0-0.5-0.1-1.6-0.1-2.3C-117.5,140.9-117.6,140.7-117.8,140.5z"/>
	<g>
		<path d="M-115.3,139.8c-0.5,0-1,0-1.5,0c-0.4,0-0.6,0.2-0.8,0.6c0.8,0.2,0.6,1.3,0.6,1.3c0,1.2,0,2.4,0,3.6c0,0.3,0.2,0.3,0.4,0.3
			c0.3,0,0.4,0,0.4-0.3c0-0.5,0-0.9,0-1.3c0-0.1,0.1-0.3,0.2-0.4c0.1,0.1,0.2,0.3,0.2,0.4c0,0.4,0,0.8,0,1.2c0,0.3,0.1,0.4,0.4,0.4
			c0.2,0,0.4-0.1,0.4-0.4c0-0.6,0-1.1,0-1.7c0-0.2,0.1-0.4,0.3-0.4s0.3-0.2,0.3-0.4c0-0.7,0-1.3,0-2
			C-114.5,140.1-114.8,139.8-115.3,139.8z"/>
	</g>
</g>
<circle cx="-121.7" cy="138.3" r="1"/>
<circle cx="-116.1" cy="138.3" r="1"/>
</svg>
