<svg id="florida" xmlns="http://www.w3.org/2000/svg" viewBox="0 0 86.24 88.89">
  <defs>
    <style>
      .cls-1 {
        fill: none;
        stroke: #a86300;
        stroke-linecap: round;
        stroke-linejoin: round;
        stroke-width: 0.75px;
      }
    </style>
  </defs>
  <title>state-icon</title>
  <g>
    <path class="cls-1" d="M48.89,15.46a2.39,2.39,0,0,0,2.75.72c.51-.14,1.08-.33,1.55.06a4.37,4.37,0,0,0,3,.77,4,4,0,0,1,1.9.43,4.21,4.21,0,0,0,2.12.42,2.3,2.3,0,0,1,2,.7,1.67,1.67,0,0,0,1.41.5,4.07,4.07,0,0,1,3.25,1.41c.55.58,1.05,1.3,2,1.33a3.21,3.21,0,0,1,1.27.36A3.3,3.3,0,0,1,71.67,24a3.3,3.3,0,0,0,1.51,1.75,3.31,3.31,0,0,1,1.53,1.71,2.68,2.68,0,0,0,.87,1.25,2.44,2.44,0,0,1,.9,1.57,3.7,3.7,0,0,0,1,2.28,1.21,1.21,0,0,1,.31.83,10.31,10.31,0,0,1-.57,4.3,1.9,1.9,0,0,1-.76,1,2.27,2.27,0,0,0-1.21,2c0,.31-.21.44-.43.56a2.29,2.29,0,0,0-1.36,1.41.78.78,0,0,1-.61.51,1.18,1.18,0,0,0-.72.41c-.81.83-1.86,1.41-2.69,2.18A6,6,0,0,1,67,47.59a1.54,1.54,0,0,0-.92.9,1.28,1.28,0,0,1-1,.7,4.81,4.81,0,0,0-2.74,1.64,1.39,1.39,0,0,1-.5.36A3.32,3.32,0,0,0,59.81,53c-.1.27-.44.44-.75.59a3.41,3.41,0,0,0-1.86,1.53,1,1,0,0,1-.76.44,3.54,3.54,0,0,0-2.55,1.82,2.41,2.41,0,0,1-1.24,1.1A5.73,5.73,0,0,0,50,60.85a10.78,10.78,0,0,1-2.7,2.81,5.53,5.53,0,0,0-2.18,3.25.86.86,0,0,1-.57.7,2.56,2.56,0,0,0-1.67,1.92,1.25,1.25,0,0,1-.79.92,2.87,2.87,0,0,0-1.56,1.76,1.14,1.14,0,0,1-.62.8,2.88,2.88,0,0,0-1.34,1.53c-.15.38-.28.46-.65.35a22.87,22.87,0,0,0-2.32-.18A4.44,4.44,0,0,1,34,73.76" transform="translate(-6.22 -11.02)"/>
    <path class="cls-1" d="M48.68,15.32a3.44,3.44,0,0,0-.78.13,2,2,0,0,1-1.78-.25,2.33,2.33,0,0,0-2.1-.29,2.39,2.39,0,0,1-2.48-.36,1.57,1.57,0,0,0-1.19-.29,3.33,3.33,0,0,1-2.69-.7,1.44,1.44,0,0,0-1.26-.2,1.4,1.4,0,0,1-1.57-.57,1.22,1.22,0,0,0-1.47-.45,1.58,1.58,0,0,1-1.7-.4c-.4-.4-.94-.75-1.46-.41s-.27,1-.09,1.53a10.88,10.88,0,0,0,6.07,6.71,50.83,50.83,0,0,0,7.91,2.95,14,14,0,0,0,4,.47,26.45,26.45,0,0,1,8.41,1.5,55.42,55.42,0,0,1,6.27,2.07,21.45,21.45,0,0,1,4.59,2.6A10.54,10.54,0,0,1,70.12,33,17.33,17.33,0,0,1,72,37.55c.08.4.15.81.26,1.2s.11.57.43.63a.76.76,0,0,0,.7-.34,8.19,8.19,0,0,0,.7-1.07,4.31,4.31,0,0,1,1.2-1.28,3.34,3.34,0,0,0,1.46-3.23,2.2,2.2,0,0,1,.24-1.2" transform="translate(-6.22 -11.02)"/>
    <path class="cls-1" d="M80.51,38.54a3.41,3.41,0,0,0-1.21,2.89c0,.32-.25.48-.48.64a3.19,3.19,0,0,0-1.56,2.82.73.73,0,0,1-.42.71,3.35,3.35,0,0,0-2,2.61c-.06.49-.57.7-.92,1a5.13,5.13,0,0,0-1.74,2.42.89.89,0,0,1-.58.62,3.41,3.41,0,0,0-2.1,2.2.7.7,0,0,1-.58.49,4.87,4.87,0,0,0-3.42,2.7,1.29,1.29,0,0,1-.67.62,8.88,8.88,0,0,0-4.43,4,1.08,1.08,0,0,1-.65.56,4.86,4.86,0,0,0-2.82,2.4c-.08.14-.09.29-.29.36-2,.69-3.25,2.29-4.58,3.8a4,4,0,0,1-1.41,1.15,2.3,2.3,0,0,0-1.28,2.59" transform="translate(-6.22 -11.02)"/>
    <path class="cls-1" d="M67.31,79.9c-2.64,2-3.74,4.92-4.92,7.8a3.2,3.2,0,0,0-1-.11,4.52,4.52,0,0,1-3.11-.91c-.62-.45-.89-.41-1.33.14a13.16,13.16,0,0,1-5.3,3.59,48.73,48.73,0,0,1-5.29,1.72A11.2,11.2,0,0,0,43,93.61,29.71,29.71,0,0,1,36.33,97a33.81,33.81,0,0,1-5.79,1.82,12.18,12.18,0,0,1-4.66-.06,23.39,23.39,0,0,0-5.79-.25,21.5,21.5,0,0,0-3.45.61,15.44,15.44,0,0,1-4.17.42,2.45,2.45,0,0,1-2.51-2,2.49,2.49,0,0,0-.25-.49,1.17,1.17,0,0,1,.58-1.69A3.91,3.91,0,0,1,12,94.72a.75.75,0,0,0,.56-.28" transform="translate(-6.22 -11.02)"/>
    <path class="cls-1" d="M56.16,15.18c.09.51.54.62.92.77A20,20,0,0,0,63,17.08a8.55,8.55,0,0,1,2.4.27,3.92,3.92,0,0,1,1.48.86,2.34,2.34,0,0,0,1.69.64,2.92,2.92,0,0,1,2.68,1.48A2.08,2.08,0,0,0,73,21.49a2,2,0,0,1,1.54,1.32,3.46,3.46,0,0,0,1.43,1.55,3.75,3.75,0,0,1,2,2.6A1.93,1.93,0,0,0,78.66,28a6.42,6.42,0,0,1,2.3,4.8c.08,1,0,1.92.11,2.89a1.25,1.25,0,0,1-.28,1,2.33,2.33,0,0,0-.27,1.62s0,.23.2.1" transform="translate(-6.22 -11.02)"/>
    <path class="cls-1" d="M85,64c-1,.62-2,.15-3-.09a7.8,7.8,0,0,1-5.65-4.71c-.13-.29-.21-.64-.61-.8a3.55,3.55,0,0,0-2.47,2.85.77.77,0,0,1-.59.62,3.71,3.71,0,0,0-2.32,1.85c-.16.25-.23.53-.64.57a2.86,2.86,0,0,0-2.25,1.69c-.33.61-.61,1.15-1.41,1.37A2.88,2.88,0,0,0,64.31,69a1.29,1.29,0,0,1-.75.74,3.42,3.42,0,0,0-2,1.72,1.15,1.15,0,0,1-.91.59,2.61,2.61,0,0,0-1.83,1.32,1.52,1.52,0,0,1-1.06.65,3.09,3.09,0,0,0-2.34,1.6A.51.51,0,0,1,55,76a3.31,3.31,0,0,0-2.19,1.34c-.15.17-.29.37-.56.35A4.52,4.52,0,0,0,49,79.19c-.14.12-.28.24-.43.35s-.09,0-.23,0-.36-.3-.53-.5a9.86,9.86,0,0,0-3.27-2.23c-.54-.27-1.21,0-1.83-.22s-1.27-.14-1.89-.24A3.85,3.85,0,0,1,38.51,75" transform="translate(-6.22 -11.02)"/>
    <path class="cls-1" d="M72.39,39.39a6.87,6.87,0,0,0-.77.85,2.87,2.87,0,0,1-1.91,1.42c-.45.08-.7.52-.91.91a1.72,1.72,0,0,1-1.56,1,2.22,2.22,0,0,0-1.83,1,2.64,2.64,0,0,1-2,1.36c-.16,0-.34.05-.42,0a2.29,2.29,0,0,0-2-.61,4.06,4.06,0,0,0-2.48.9,7.12,7.12,0,0,0-1.62,1.48,2.33,2.33,0,0,0-.28,2.41.66.66,0,0,1-.63,1,1.85,1.85,0,0,0-1.76,1,.88.88,0,0,1-.78.44A3,3,0,0,0,50.93,54a1.12,1.12,0,0,1-.91.59,1.88,1.88,0,0,0-1.54,1.19,1.27,1.27,0,0,1-.71.71,3,3,0,0,0-1.86,2.1c-.11.53-.67.68-1,1a2.63,2.63,0,0,0-1.22,1.83A1.38,1.38,0,0,1,43,62.54a2,2,0,0,0-.91,1.55.84.84,0,0,1-.5.71,6.65,6.65,0,0,0-1.49,1.26.47.47,0,0,0-.05.63c.27.5.08.76-.36,1a3.8,3.8,0,0,0-2,2.4.79.79,0,0,1-.5.55,5.54,5.54,0,0,0-2.26,1.77,5.75,5.75,0,0,1-.78.78,7.71,7.71,0,0,1-1.52.76,3.12,3.12,0,0,1-2.43.17,3.3,3.3,0,0,0-4.22,2.18c-.28.81-1,.9-1.64,1.11a7.86,7.86,0,0,1-3.1.32,12,12,0,0,0-4.73.68c-.7.25-1.4.5-2.12.7a2.38,2.38,0,0,1-2.11-.34,4.94,4.94,0,0,0-2.33-1A2.87,2.87,0,0,0,6.75,80a2.14,2.14,0,0,0,.58,2.52,1.45,1.45,0,0,1,.61,1.43c0,.26-.05.52-.06.78" transform="translate(-6.22 -11.02)"/>
    <path class="cls-1" d="M48.82,15.32a2.74,2.74,0,0,1,2.76-.59,10.38,10.38,0,0,0,3.1,0c.14,0,.32-.06.41,0,.81.63,1.55.08,2.26-.17a2.73,2.73,0,0,1,2.19.1,1.65,1.65,0,0,0,1.57.15,1.42,1.42,0,0,1,1.4.27,1.86,1.86,0,0,0,1.49.3,1.75,1.75,0,0,1,1.49.24,1.86,1.86,0,0,0,1.19.24,2.55,2.55,0,0,1,2.11.77,1.57,1.57,0,0,0,1.27.42,2.33,2.33,0,0,1,2,.86,2.58,2.58,0,0,0,2.2.92,2.23,2.23,0,0,1,1.94,1.28,4.07,4.07,0,0,0,2,1.68,2.55,2.55,0,0,1,1.78,2,1.34,1.34,0,0,0,.69.91,3.87,3.87,0,0,1,1.91,2.76,4,4,0,0,0,1.17,1.86,14.93,14.93,0,0,1,2.08,2.93,43,43,0,0,1,3.58,7.35,15.5,15.5,0,0,1,.88,3.88,17.63,17.63,0,0,1-2,9.46,2.59,2.59,0,0,1-.49.77,1.33,1.33,0,0,0-.29,1.42,1.68,1.68,0,0,1,.07.63A1.27,1.27,0,0,0,88.4,57a7.57,7.57,0,0,1,3.39,4.23A5.5,5.5,0,0,1,90.38,67a5.77,5.77,0,0,1-.76.72,2.6,2.6,0,0,0-1.22,2,2.06,2.06,0,0,1-.57,1.15c-.65-.18-.8-1-1.39-1.22" transform="translate(-6.22 -11.02)"/>
    <path class="cls-1" d="M57.57,86.32a2.83,2.83,0,0,0-.42-1.41,4.25,4.25,0,0,1,.72-4.08,11,11,0,0,1,8.38-4.75,12.37,12.37,0,0,1,4.24.36c2.28.58,3.31,2.24,3.81,4.37a10.79,10.79,0,0,1-1.57,8.32,17.92,17.92,0,0,1-3.87,4.46,1.75,1.75,0,0,0-.54,1.48c0,.53-.16,1-.19,1.55a1.85,1.85,0,0,1-.49,1.1c-.56,0-.8-.37-1-.8s-.42-1-1-1.14" transform="translate(-6.22 -11.02)"/>
    <path class="cls-1" d="M30.5,93.31c.33.52-.24.81-.35,1.24,0,0-.07,0-.1,0a1,1,0,0,0-1.65.56c-.23.46-.85.45-1.32.5a45.47,45.47,0,0,0-5.44.7,33.18,33.18,0,0,0-4.58,1.3,8.46,8.46,0,0,1-5.22,0A5,5,0,0,0,10,97.4" transform="translate(-6.22 -11.02)"/>
    <path class="cls-1" d="M83.4,29.15c-.55.62-.58.92-.06,1.55a1.75,1.75,0,0,1,.33,1.9,1.34,1.34,0,0,0,.23,1.49c.63.82.66,1.08.13,2a1,1,0,0,0,0,1.12,1.32,1.32,0,0,1-.09,1.7A2.66,2.66,0,0,0,83.49,41a1.35,1.35,0,0,1-.36,1.28,2.51,2.51,0,0,0-.71,2,3.05,3.05,0,0,1-.69,2.34A2.06,2.06,0,0,0,81.2,48a.47.47,0,0,1-.26.43c-1.22.67-1.25,1.72-.86,2.88" transform="translate(-6.22 -11.02)"/>
    <path class="cls-1" d="M48.47,79.62c0,.77.55,1.4.65,2.18.22,1.88-.6,2.51-1.93,2.82a6.15,6.15,0,0,1-4.93-.7,2.24,2.24,0,0,0-1.06-.36,14.9,14.9,0,0,0-2.82-.18,8,8,0,0,0-2.83,1.24A8.66,8.66,0,0,1,30.68,86a7.66,7.66,0,0,1-2-.37c-1.29-.45-1.34-.07-1.63.86" transform="translate(-6.22 -11.02)"/>
    <path class="cls-1" d="M29.62,87.31a5.69,5.69,0,0,1-1.9.59c-.29,0-.57.23-.66.67a2.67,2.67,0,0,1-2.38,2,9.26,9.26,0,0,0-5.39,2,4.5,4.5,0,0,1-2.87,1.17,1.09,1.09,0,0,0-.77.27,1.18,1.18,0,0,1-1.2.19c-.4-.11-.26-.56-.29-.89" transform="translate(-6.22 -11.02)"/>
    <path class="cls-1" d="M35,88.65a2.58,2.58,0,0,0-3.24.93,11.21,11.21,0,0,1-6.08,4.29c-.1,0-.14.1-.21.14" transform="translate(-6.22 -11.02)"/>
    <path class="cls-1" d="M39.64,83.64a.72.72,0,0,1-.35.49,6.22,6.22,0,0,0-2.33,3,26,26,0,0,0-1.26,3.46,2.2,2.2,0,0,1-.8,1.18c-.38-.39-1.32.32-1.33-.76" transform="translate(-6.22 -11.02)"/>
    <path class="cls-1" d="M62.3,87.73a8,8,0,0,1,0,2.68c0,.26-.38.4-.67.5A7.78,7.78,0,0,0,59.4,92a1.77,1.77,0,0,0-.65,2.4c1,.34,1.45-.33,2-.85.28-.26.61-.47.91-.71" transform="translate(-6.22 -11.02)"/>
    <path class="cls-1" d="M81.5,68.68c-.42,0-.7,0-.89.55a5.79,5.79,0,0,1-1.09,1.42A52,52,0,0,1,73.87,76a4,4,0,0,0-1.2,1.35" transform="translate(-6.22 -11.02)"/>
    <path class="cls-1" d="M39.86,66.28a4.84,4.84,0,0,0-4.23,1.28,6.58,6.58,0,0,0-2.22,4.64c0,.46.24.75.3,1.13" transform="translate(-6.22 -11.02)"/>
    <path class="cls-1" d="M24.4,92.25a6.91,6.91,0,0,1-2.19,1.13c-1,.32-1.91.71-2.9,1a23.14,23.14,0,0,1-4.23.66,4.93,4.93,0,0,0-2.4.77.54.54,0,0,0-.21.77" transform="translate(-6.22 -11.02)"/>
    <path class="cls-1" d="M87.42,54.07c-.4-.09-.6-.42-.85-.71a6.14,6.14,0,0,0-4-2,5.33,5.33,0,0,0-2.32,0,5.78,5.78,0,0,0-3.06,2,6.75,6.75,0,0,0-1.26,4,1.86,1.86,0,0,1-.14,1" transform="translate(-6.22 -11.02)"/>
    <path class="cls-1" d="M31.74,89.14a2.29,2.29,0,0,0-2.68,0c-1.06.66-1.91,1.59-3,2.25-.4.26-.79.54-1.2.76-.11.06-.4.24-.46-.12" transform="translate(-6.22 -11.02)"/>
    <path class="cls-1" d="M35.2,74.75c-.26.42-.75.42-1.14.55a3.93,3.93,0,0,0-3,3.4,1.52,1.52,0,0,1-1.34,1.52" transform="translate(-6.22 -11.02)"/>
    <path class="cls-1" d="M62.93,46c-1.13.88-2.08,2-3.27,2.77-.9.57-1.9,1-2.87,1.54" transform="translate(-6.22 -11.02)"/>
    <path class="cls-1" d="M49.17,72.63c-.46.16-1,0-1.41.27a3.19,3.19,0,0,0-1.2,1.35c-.06.13-.06.33-.21.35-1.21.16-1.66,1-2,2.05" transform="translate(-6.22 -11.02)"/>
    <path class="cls-1" d="M83.47,64.37a2.08,2.08,0,0,1-1.34,1.56,3.28,3.28,0,0,0-1.55,1.2c-.46.67-.4,1,.21,1.62" transform="translate(-6.22 -11.02)"/>
    <path class="cls-1" d="M87.64,56.54c-.77.35-1.47-.15-2.19-.25a9.72,9.72,0,0,0-2.9,0" transform="translate(-6.22 -11.02)"/>
    <path class="cls-1" d="M14.8,85a2.49,2.49,0,0,1,1.34.49c.76.47,1.68.55,2.44,1,.19.12.35-.07.53-.09a3.92,3.92,0,0,1,2,.06" transform="translate(-6.22 -11.02)"/>
    <path class="cls-1" d="M63.36,93.45c-.14.41-.62.77-.47,1.19.33,1,.06,2.12,1,2.91.56.49.86.49,1-.22a4.45,4.45,0,0,1,.7-1.65,1.33,1.33,0,0,0,0-1" transform="translate(-6.22 -11.02)"/>
    <path class="cls-1" d="M27.36,85.54c-.93-1-3.24-.51-3.26,1.13,0,.13-.15.26-.12.43" transform="translate(-6.22 -11.02)"/>
    <path class="cls-1" d="M24.33,85.76c-.81-.55-1.53,0-2.26.22-1,.3-1,1.13-.92,2" transform="translate(-6.22 -11.02)"/>
    <path class="cls-1" d="M14.09,86.25,14.72,85c-.27-.84-1.06-1.22-1.76-1.64a.76.76,0,0,0-1.12.55c-.1.4-.19.8-.29,1.2" transform="translate(-6.22 -11.02)"/>
    <path class="cls-1" d="M24.61,86a.47.47,0,0,1,.14.14,3.72,3.72,0,0,0,2.4,2" transform="translate(-6.22 -11.02)"/>
    <path class="cls-1" d="M12,83.43c-1.31-.52-2.61-1.13-4-.36" transform="translate(-6.22 -11.02)"/>
    <path class="cls-1" d="M36.4,77.29a7.85,7.85,0,0,1,0,.84,1,1,0,0,1-1.47.71.49.49,0,0,1-.21-.56,2.14,2.14,0,0,1,.56-.92,3.48,3.48,0,0,1,2-.14.76.76,0,0,1,.29.7" transform="translate(-6.22 -11.02)"/>
    <path class="cls-1" d="M11.27,80a1.41,1.41,0,0,0-1.54.15.8.8,0,0,0-.36,1" transform="translate(-6.22 -11.02)"/>
    <path class="cls-1" d="M62.79,94.51a3.19,3.19,0,0,0-1.35,1,1.62,1.62,0,0,1-1,.71" transform="translate(-6.22 -11.02)"/>
    <path class="cls-1" d="M81.92,67.83c-.66,1.06.16,1.77.65,2.53a2.67,2.67,0,0,0,.34.43" transform="translate(-6.22 -11.02)"/>
    <path class="cls-1" d="M33.71,91.68l-.27,1.08a2.15,2.15,0,0,0-1.14-.16" transform="translate(-6.22 -11.02)"/>
    <path class="cls-1" d="M84,69.17c.49.39.59,1.11,1.25,1.43.52-.54,1.2-1,1.15-1.92" transform="translate(-6.22 -11.02)"/>
    <path class="cls-1" d="M14.16,94.15a2.31,2.31,0,0,1-1.48.35c-.23-.3-.06-.6-.21-.84" transform="translate(-6.22 -11.02)"/>
    <path class="cls-1" d="M32.23,91.9A2.91,2.91,0,0,1,31.72,94l-1-.35" transform="translate(-6.22 -11.02)"/>
    <path class="cls-1" d="M84.21,68.32a5.6,5.6,0,0,1-1.3,2.05" transform="translate(-6.22 -11.02)"/>
    <path class="cls-1" d="M10.64,83.14l-.43,1.27" transform="translate(-6.22 -11.02)"/>
    <path class="cls-1" d="M11.2,93.73c-.19.37.05.71.07,1.06" transform="translate(-6.22 -11.02)"/>
    <path class="cls-1" d="M22,92.46c-.09.32.27.53.21.85" transform="translate(-6.22 -11.02)"/>
  </g>
</svg>
