<svg id="Layer_1" data-name="Layer 1" xmlns="http://www.w3.org/2000/svg" viewBox="0 0 1547.69 1613.64"><defs><style>.cls-1,.cls-9{fill:#3facef;}.cls-2{font-size:208.73px;font-family:GothamBlack;}.cls-2,.cls-6{fill:#132149;}.cls-3{letter-spacing:-6px;}.cls-4{letter-spacing:-8px;}.cls-5{letter-spacing:10px;}.cls-6{font-size:183.66px;font-family:Gotham;}.cls-7{letter-spacing:-5px;}.cls-8{letter-spacing:36px;}.cls-9{font-size:109.74px;font-family:GothamBook;white-space:pre;}.cls-10{fill:none;stroke:#a0a0a0;stroke-miterlimit:10;}</style></defs><title>townhall-logo</title><rect class="cls-1" x="765.25" y="215.81" width="16.64" height="195.48"/><path class="cls-1" d="M695.66,204.51l48.61-67.17A45.83,45.83,0,1,0,695.66,204.51Z"/><polygon class="cls-1" points="791.9 253.04 850.5 283.25 866.44 261.2 754.39 151.17 710.94 211.27 765.64 239.48 791.9 253.04"/><polygon class="cls-1" points="614.44 524.29 614.44 863.63 910.81 863.63 910.81 424.17 973.4 403.02 948.11 328.05 770.32 388.15 746.54 396.19 551.79 462.04 577.07 536.94 614.44 524.29"/><text class="cls-2" transform="translate(73.1 1089.06)"><tspan class="cls-3">T</tspan><tspan class="cls-4" x="131.7" y="0">O</tspan><tspan x="297.01" y="0">WN</tspan><tspan class="cls-5" x="694.01" y="0"> </tspan><tspan x="762.26" y="0">HALL </tspan></text><text class="cls-6" transform="translate(313.02 1251.86)">PR<tspan class="cls-7" x="255.47" y="0">O</tspan><tspan x="406.26" y="0">JEC</tspan><tspan class="cls-8" x="766.42" y="0">T</tspan></text><text class="cls-9" transform="translate(97.67 1480.01)">SHOW UP    SPEAK OUT</text><line class="cls-10" x1="104.11" y1="1322.81" x2="1444.09" y2="1322.81"/><polygon class="cls-1" points="726.71 1431.14 730.79 1439.4 739.9 1440.73 733.31 1447.16 734.86 1456.24 726.71 1451.95 718.56 1456.24 720.11 1447.16 713.52 1440.73 722.63 1439.4 726.71 1431.14"/></svg>