<svg id="Layer_1" data-name="Layer 1" xmlns="http://www.w3.org/2000/svg" viewBox="0 0 323.41 216.45"><title>march-for-our-lives</title><path d="M18.78,238.49V208.91c-1.79-.64-1.69.47-1.83,1.35q-1.71,10.47-3.43,20.94c-.38,2.37-.77,4.75-1.19,7.27H-3.86c-1.09-2.5-1.08-5.36-1.56-8.09-1.13-6.48-2.07-13-3.19-19.46-.14-.82.3-2.41-1.79-2.23v29.79H-29.5a56.74,56.74,0,0,1,.08-9.67q3-25.68,6-51.34A12.47,12.47,0,0,1-23,176H-1.34q2.43,12.41,4.85,24.75l1.06,0c2-8.16,3.15-16.54,5-24.81h22c2,20.83,5.42,41.48,6.61,62.57Z" transform="translate(29.67 -175.78)" fill="#1b4886"/><path d="M217.94,359.5c1.3-2.93,2.44-5.23,3.35-7.61s2.27-3.46,4.9-3.24a58.79,58.79,0,0,0,7.74,0,3.48,3.48,0,0,1,3.69,2.34c1.16,2.67,2.36,5.32,3.76,8.47,1.29-2.85,2.56-5.3,3.52-7.87a4,4,0,0,1,4.51-3c3.49.17,7,.15,10.49,0a3.69,3.69,0,0,1,4,2.62c1.06,2.59,2.25,5.13,3.61,8.21,1.3-2.86,2.52-5.19,3.42-7.63s2.35-3.38,4.92-3.18a58.5,58.5,0,0,0,7.49,0,3.7,3.7,0,0,1,4,2.63c1.83,4.28,3.77,8.52,5.67,12.77.66,1.49,1.34,3-.2,4.33s-3.08,1.05-4.71-.75c.22,2.28.4,4.11.54,5.56-.3,1.18-1.26,1-1.78,1.8v11.47a4.05,4.05,0,0,1-.82,3,3.27,3.27,0,0,1-3.65.92,3.2,3.2,0,0,1-2.24-3.26c0-3.25,0-6.5,0-9.75v-2.57c-.67-.65-1.2-.51-2-.11,0,4,0,8.15,0,12.29,0,1.71-.56,2.91-2.24,3.45-2.25.72-4.26-.78-4.31-3.37-.07-4.08,0-8.16,0-11.92-.25-1.07-1.31-.85-1.58-2.18s.6-3.18.51-5.15c-3.4,2.36-4.15,2-7.31-3.49-.06,1-.14,1.69-.14,2.36,0,6.75,0,13.5,0,20.25,0,2.88-2.54,4.44-4.93,3.18a3.11,3.11,0,0,1-1.63-3.11c0-3.25,0-6.5,0-9.75v-2.41a9.14,9.14,0,0,0-3.93-.08c0,4.15,0,8.29,0,12.43a3,3,0,0,1-2.05,3.1,3.34,3.34,0,0,1-3.5-.59c-1.08-.82-1-2-1-3.2V364.32c-1.49,1.38-1.38,3.39-2.81,4.32-1.61,1-3.13.65-4.54-.77-.18,2.06.67,3.83.36,5.67-.19.94-1.33.59-1.77,1.34,0,.25-.07.57-.07.9,0,3.58,0,7.17,0,10.75,0,2.78-1,4.09-3.18,4.12s-3.35-1.43-3.36-4.27c0-3.9,0-7.8,0-11.52-.7-.68-1.24-.37-2-.38,0,4.28,0,8.42,0,12.56,0,2-.84,3.2-2.76,3.57-2.13.41-3.78-1.08-3.81-3.46,0-4.09,0-8.17,0-11.9-.26-1.08-1.32-.88-1.56-2.08-.21-1.48.55-3.33.48-5.27-3.54,2.34-4.4,2-7.25-3.57-.09,1-.2,1.69-.2,2.35q0,9.87,0,19.75a4.23,4.23,0,0,1-.63,2.86,3.21,3.21,0,0,1-3.57,1.18,2.8,2.8,0,0,1-2.32-2.85c0-3.33,0-6.67,0-10a5.85,5.85,0,0,0-.24-2.74,7.59,7.59,0,0,0-3.68,0c0,4.05,0,8.11,0,12.16a3.3,3.3,0,0,1-3.05,3.59c-2.12.19-3.52-1.26-3.54-3.8,0-6.5,0-13,0-19.5v-2.77c-1.24,1-1.33,2.15-1.87,3-.86,1.39-2,2-3.58,1.31s-2.32-2-1.6-3.64c2.15-5,4.38-9.89,6.59-14.83a2.74,2.74,0,0,1,2.76-1.73c4.08,0,8.17,0,12.25,0a3.16,3.16,0,0,1,3.19,2.27C215.24,353.61,216.47,356.24,217.94,359.5Z" transform="translate(29.67 -175.78)" fill="#303030"/><path d="M139.1,215.62c1.43,3.58,2.59,7.16,4.27,10.49,2,3.94,1.88,8,1.65,12.35H126c-1.68-6.2-3.42-12.59-5.17-19.05-1.17-.53-2.38-.3-3.79-.18v19.21H97.3V176.13a4.06,4.06,0,0,1,2.48-.3q17.63,0,35.25,0c6.39,0,9.08,2.72,9.09,9.14q0,10.88,0,21.75C144.12,211.48,143.26,213,139.1,215.62Z" transform="translate(29.67 -175.78)" fill="#1c4886"/><path d="M114.81,292.71c1.52,3.79,2.86,7.74,4.66,11.45s1.46,7.39,1.41,11.34H101.62l-5.17-19.14a7.84,7.84,0,0,0-3.92-.09v19.26H73.07V253.14a4.34,4.34,0,0,1,2.53-.3q17.61,0,35.22,0c6.24,0,9.1,2.92,9.11,9.23q0,10.37,0,20.73C119.93,288.24,119.26,289.57,114.81,292.71Z" transform="translate(29.67 -175.78)" fill="#2f2f2f"/><path d="M291.84,315.5a10.58,10.58,0,0,1-1.18.14h-18q-2.64-9.72-5.25-19.33a9.24,9.24,0,0,0-3.85-.08V315.5H244.09V253.13c.76-.54,1.62-.29,2.42-.29q17.61,0,35.22,0c6.29,0,9.19,2.89,9.2,9.14q0,10.62,0,21.23c0,5-.88,6.65-5.12,9.46,1.44,3.63,2.66,7.43,4.43,11C292.13,307.41,292,311.29,291.84,315.5Z" transform="translate(29.67 -175.78)" fill="#2f2f2f"/><path d="M135.53,284.1q0-11.25,0-22.49c0-5.82,2.93-8.76,8.76-8.77q14.75,0,29.48,0c5.83,0,8.75,2.95,8.75,8.78q0,22.62,0,45.22c0,5.81-2.94,8.77-8.75,8.78q-14.75,0-29.49,0c-5.81,0-8.74-3-8.75-8.78Q135.52,295.47,135.53,284.1Z" transform="translate(29.67 -175.78)" fill="#2e2e2e"/><path d="M65.53,284.33c0,7.49,0,15,0,22.48,0,5.82-2.93,8.8-8.73,8.81q-14.73,0-29.48,0c-5.82,0-8.77-3-8.78-8.75q0-22.62,0-45.23c0-5.83,2.92-8.79,8.73-8.8q14.75,0,29.48,0c5.85,0,8.77,2.94,8.78,8.75C65.54,269.17,65.53,276.75,65.53,284.33Z" transform="translate(29.67 -175.78)" fill="#2e2e2e"/><path d="M198.24,238.45V176h19.47v22.42h7.69V176h19.52v62.5h-19.3V214.38h-7.71v24.07Z" transform="translate(29.67 -175.78)" fill="#1c4886"/><path d="M217,253h19.7v62.33c-.56.54-1.26.33-1.9.33-12.07,0-24.15,0-36.22,0-4.62,0-8.83-2.55-8.76-8.82.19-17.15.07-34.3.07-51.46V253h19.54v46.69H217Z" transform="translate(29.67 -175.78)" fill="#303030"/><path d="M91.46,238.55H72.08c-.76-4.15-.88-8.36-1.31-12.6H62.21c-.45,4.2-.9,8.3-1.36,12.54H41.47a45.1,45.1,0,0,1,.61-12.86q4-24.49,8-49a3.7,3.7,0,0,1,.23-.64H82.77c.74,4.47,1.5,8.95,2.22,13.44,1.94,12.07,3.83,24.14,5.82,36.2A55.69,55.69,0,0,1,91.46,238.55Z" transform="translate(29.67 -175.78)" fill="#1b4886"/><path d="M39.65,329.79h20c1.34,15.52,2.67,31,4,46.32a1.92,1.92,0,0,0,2.25.25c1.34-15.39,2.68-30.87,4-46.53H89.33c.76,3.85-.26,7.65-.91,11.46q-4.2,24.58-8.49,49.17a14.17,14.17,0,0,1-.47,1.68H50C46.74,371.36,42.34,350.83,39.65,329.79Z" transform="translate(29.67 -175.78)" fill="#1b4786"/><path d="M94.12,329.74h41.47c1,4.56.37,8-2.91,15.55H113.77c-.6,2.3-.14,4.45-.35,6.85h19.13V367.8h-19v8.76h22.2V392.1H94.12Z" transform="translate(29.67 -175.78)" fill="#1a4785"/><path d="M139.43,376.65h21.92a12.08,12.08,0,0,0,.21-4.23c-5.24-3.47-10.4-7.12-15.79-10.4-4.62-2.81-6.73-6.63-6.49-12,.18-4,0-8,0-12,.06-5.53,2.82-8.35,8.29-8.37,10.58,0,21.16,0,31.75,0,.57,0,1.14.08,1.7.12,1.17,5.59-.44,10.56-3,15.61H159.4c-.6,1-.27,1.83-.41,2.8l5.35,3.61c3.32,2.22,6.52,4.66,10,6.6,5.31,2.94,7.36,7.31,7,13.22-.21,3.9,0,7.83,0,11.74-.05,6.12-2.81,8.88-8.86,8.89h-33Z" transform="translate(29.67 -175.78)" fill="#1b4786"/><path d="M192.43,222.78v15.51a3.5,3.5,0,0,1-2.28.32q-15.24,0-30.48,0c-6.34,0-9.14-2.81-9.14-9.14q0-22.23,0-44.47c0-6.33,2.82-9.18,9.11-9.19q15.24,0,30.48,0a3.91,3.91,0,0,1,2.17.21c.86,5.66.05,9.93-3,15.73h-19v31Z" transform="translate(29.67 -175.78)" fill="#1b4886"/><path d="M13.91,253c1,5.6-.24,10.7-2.95,15.7H-7.89v9.92H11v15.54H-7.94v21.26H-27.69V253Z" transform="translate(29.67 -175.78)" fill="#303030"/><path d="M-8.09,329.79v46.83H11.4V392.1H-27.73V329.79Z" transform="translate(29.67 -175.78)" fill="#1c4986"/><path d="M16.1,329.76H35.29v62.29H16.1Z" transform="translate(29.67 -175.78)" fill="#1b4785"/><path d="M254.43,347.27a8.55,8.55,0,0,1,.1-17.09,8.55,8.55,0,0,1-.1,17.09Z" transform="translate(29.67 -175.78)" fill="#313131"/><path d="M204.79,347.27a8.54,8.54,0,1,1,8.63-8.52A8.56,8.56,0,0,1,204.79,347.27Z" transform="translate(29.67 -175.78)" fill="#313131"/><path d="M229.65,330.18a8.55,8.55,0,0,1,.3,17.09,8.55,8.55,0,1,1-.3-17.09Z" transform="translate(29.67 -175.78)" fill="#313131"/><path d="M279.3,347.27a8.55,8.55,0,0,1,0-17.09,8.55,8.55,0,1,1,0,17.09Z" transform="translate(29.67 -175.78)" fill="#313131"/><path d="M116.94,203.23c0-3.5,0-6.8,0-10.1,0-.4.09-.79.14-1.28h7.24v11.38Z" transform="translate(29.67 -175.78)" fill="#fbfbfc"/><path d="M92.71,268.82H100v11.36c-2.31.45-4.7.1-7.25.23Z" transform="translate(29.67 -175.78)" fill="#fbfbfb"/><path d="M271,268.86v11.35c-2.37.38-4.75.09-7.29.2V268.86Z" transform="translate(29.67 -175.78)" fill="#fbfbfb"/><path d="M155.26,268.82h7.53v30.84h-7.53Z" transform="translate(29.67 -175.78)" fill="#f5f5f5"/><path d="M45.76,299.74H38.29V268.9c2.4-.39,4.85-.1,7.47-.19Z" transform="translate(29.67 -175.78)" fill="#f5f5f5"/><path d="M65.31,192a2.51,2.51,0,0,1,2.24-.1q.86,8.9,1.74,18.21H63.62Z" transform="translate(29.67 -175.78)" fill="#f4f6f9"/></svg>