<svg id="Layer_1" data-name="Layer 1" xmlns="http://www.w3.org/2000/svg" viewBox="0 0 136.99 68.59"><title>town-hall-for-our-lives</title><path d="M147.19,65.68h.05v8a1,1,0,0,0,.77,1.08,1.09,1.09,0,0,0,1.47-1.08q0-2,0-4c0-.22,0-.32.28-.3a2.89,2.89,0,0,0,.72,0c.26,0,.34.07.33.33q0,2,0,4a1,1,0,0,0,.72,1,1.09,1.09,0,0,0,1.5-1.1V65.73a7.29,7.29,0,0,1,.58,1.15,1,1,0,0,0,1,.65.92.92,0,0,0,.89-.62c0-.07,0-.15.13-.17-.08.68-.17,1.35-.25,2,0,.23,0,.46.27.49s.28.16.28.37V73.7a1,1,0,0,0,.47.93,1.23,1.23,0,0,0,1.23,0,1,1,0,0,0,.53-1c0-1.35,0-2.7,0-4,0-.31.1-.34.35-.34s.37,0,.37.33c0,1.34,0,2.68,0,4a1,1,0,0,0,.67,1.09,1.12,1.12,0,0,0,1.57-1.08c0-1.35,0-2.7,0-4,0-.21,0-.33.28-.33s.39-.16.36-.43,0-.25,0-.37L161.53,67a.25.25,0,0,1,.15.13.94.94,0,0,0,1.26.33.9.9,0,0,0,.45-1.22q-1.09-2.52-2.23-5a1,1,0,0,0-1-.61c-1.07,0-2.13,0-3.2,0a1.08,1.08,0,0,0-1.09.73l-.69,1.54-.64,1.44-1.36-3.07a1,1,0,0,0-1-.65c-1.33,0-2.66,0-4,0a1.15,1.15,0,0,0-1.23.8c-.4,1-.84,1.92-1.28,2.91,0-.1-.08-.16-.11-.23l-1.22-2.75a1.08,1.08,0,0,0-1.09-.72c-1,0-2,0-3.05,0a1.16,1.16,0,0,0-1.22.81c-.41,1-.84,1.91-1.28,2.89l-.16-.33c-.39-.89-.79-1.77-1.17-2.67a1.05,1.05,0,0,0-1.09-.71c-1.36,0-2.72,0-4.08,0a1,1,0,0,0-1,.65c-.15.34-.31.68-.46,1-.57,1.28-1.15,2.57-1.71,3.86a1,1,0,1,0,1.76.8l.45-1c0-.07,0-.17.14-.18v8a1,1,0,0,0,.72,1,1.1,1.1,0,0,0,1.51-1.09c0-1.33,0-2.66,0-4,0-.21.06-.29.28-.28a5.61,5.61,0,0,0,.82,0c.2,0,.24.06.24.25,0,.9,0,1.8,0,2.7,0,.46,0,.92,0,1.38a1,1,0,0,0,.77,1,1.08,1.08,0,0,0,1.46-1.1V65.72a11.16,11.16,0,0,1,.62,1.25,1,1,0,0,0,1,.56.89.89,0,0,0,.85-.54l.1-.19c.08.09,0,.16,0,.22l-.21,1.78c0,.22,0,.42.27.45s.27.14.27.35q0,2,0,4.05a1,1,0,0,0,.77,1.11,1.1,1.1,0,0,0,1.47-1.1V69.58c0-.09,0-.25,0-.26a1.47,1.47,0,0,1,.59,0c.14,0,.07.19.07.3v4.08a1.12,1.12,0,1,0,2.24,0c0-1.36,0-2.72,0-4.08,0-.13,0-.26.17-.29.45-.06.51-.17.44-.63s-.15-1.19-.22-1.81c0,0,.06,0,.06.06a1,1,0,0,0,1,.64,1.06,1.06,0,0,0,1-.77C146.85,66.4,147,66,147.19,65.68ZM89.75,38.53V48.82c0,.24,0,.32.3.32h6c.24,0,.32,0,.31-.31,0-1.77,0-3.54,0-5.3,0-.33-.11-.76,0-.94s.63,0,1-.08.36.07.42.32c.54,2,1.09,4,1.63,6.05,0,.17.09.26.3.26h6c.21,0,.26-.07.26-.27,0-.71,0-1.42,0-2.13a1.15,1.15,0,0,0-.1-.52L104,41.52c-.06-.15-.09-.23.11-.32a2.46,2.46,0,0,0,1.54-2.35c0-2.78,0-5.56,0-8.35a2.44,2.44,0,0,0-.1-.71,2.53,2.53,0,0,0-2.66-1.89c-4.27,0-8.54,0-12.81,0-.29,0-.36.08-.36.36Q89.76,33.39,89.75,38.53Zm57.81,0v10.3c0,.24.06.31.31.31,2,0,4,0,6,0,.29,0,.36-.08.36-.36,0-2,0-4,0-5.93,0-.29.08-.37.35-.34a2.43,2.43,0,0,0,.66,0c.28,0,.37.09.43.34.53,2,1.08,4,1.61,6,.06.22.14.3.37.3h5.94c.23,0,.27-.08.26-.29,0-.71,0-1.42,0-2.13a1.22,1.22,0,0,0-.09-.46q-1-2.35-1.9-4.73c-.06-.13-.13-.23.09-.33a2.5,2.5,0,0,0,1.56-2.39c0-2.75,0-5.49,0-8.23a2.91,2.91,0,0,0-.21-1.13,2.55,2.55,0,0,0-2.54-1.55c-4.29,0-8.58,0-12.87,0-.27,0-.31.09-.31.34Zm-60.23,0V30.63a2.55,2.55,0,0,0-2.64-2.72H74.17a2.57,2.57,0,0,0-2.55,1.53,2.86,2.86,0,0,0-.22,1.19v16A2.51,2.51,0,0,0,73.2,49a3.65,3.65,0,0,0,1.09.12h10.2a3.82,3.82,0,0,0,.59,0,2.45,2.45,0,0,0,2.11-1.72,3.22,3.22,0,0,0,.14-1Zm23.54,0V45c0,.59,0,1.19,0,1.79A2.45,2.45,0,0,0,112.6,49a3.37,3.37,0,0,0,1.05.14H124a3.13,3.13,0,0,0,.68-.06,2.48,2.48,0,0,0,2.06-2.61V30.7A2.56,2.56,0,0,0,124,27.9H113.64a3.33,3.33,0,0,0-1,.13,2.49,2.49,0,0,0-1.78,2.55Zm34.26,0q0-5.16,0-10.33c0-.26-.07-.32-.33-.32-2,0-3.94,0-5.9,0-.47,0-.41,0-.41.4q0,7.6,0,15.22c0,.25-.06.32-.31.31-.66,0-1.32,0-2,0-.31,0-.37-.09-.37-.38q0-7.62,0-15.23c0-.25-.06-.34-.33-.33q-3,0-6,0c-.22,0-.31,0-.31.28q0,9.16,0,18.33a2.71,2.71,0,0,0,.1.75A2.52,2.52,0,0,0,132,49.13H144.8c.29,0,.34-.08.34-.35Q145.13,43.68,145.13,38.55Zm25.29,20.88c.39.2.75.41,1.13.58a.37.37,0,0,1,.25.4c0,1.2,0,2.39,0,3.58a.48.48,0,0,1-.39.57c-1.7.57-3.39,1.17-5.09,1.76-.21.07-.25.15-.17.35s.21.61.32.92.1.57.27.67.48-.1.73-.17l.06,0c.18-.08.23,0,.23.18,0,2.82,0,5.63,0,8.45,0,.18-.07.23-.24.22a2.09,2.09,0,0,0-.25,0H45.34a1.71,1.71,0,0,0-.32,0c-.21,0-.29,0-.28-.27,0-.67,0-1.34,0-2q0-31.74,0-63.48c0-.3.06-.38.37-.38,1.86,0,3.72,0,5.59,0,.18,0,.3,0,.3-.25s-.1-.28-.31-.28H44.63c-.47,0-.41-.06-.41.42V77c0,.41,0,.41.41.41H180.79c.32,0,.41-.07.41-.4q0-27.08,0-54.13a1.62,1.62,0,0,1,0-.22c0-.16-.06-.21-.22-.21H165c-.25,0-.31.07-.31.31s.2.21.34.21h15.23c.5,0,.44-.07.44.42V76.24a3.23,3.23,0,0,0,0,.44c0,.2-.06.24-.25.24-1.45,0-2.91,0-4.36,0-.21,0-.26,0-.26-.26V65.58a.3.3,0,0,1,.23-.34c.43-.15.85-.33,1.29-.48.16-.06.21-.12.13-.29-.13-.33-.25-.66-.37-1s-.12-.66-.33-.74-.52.13-.79.23l-3.52,1.22c-.1,0-.21.13-.21-.1V60.37l1.48.75c.47.24.47.24.77-.22a.19.19,0,0,0,0-.28L171.63,58c-.09-.09-.15-.13-.23,0ZM96.85,64.52V74.84c0,.21,0,.32.28.31h13.62c.24,0,.29-.07.29-.3q0-2.34,0-4.68c0-.27-.07-.34-.34-.34h-6.91c-.25,0-.34,0-.33-.31,0-.77,0-1.53,0-2.3,0-.24.05-.31.3-.31,2,0,3.94,0,5.9,0,.27,0,.33-.08.33-.34,0-1.54,0-3.09,0-4.64,0-.28-.07-.35-.35-.35h-5.87c-.23,0-.32,0-.31-.3,0-.57,0-1.15,0-1.73,0-.27.06-.34.34-.34h5.9c.16,0,.28,0,.36-.2a8.17,8.17,0,0,0,1-4.8s0,0,0,0c0-.26-.07-.31-.31-.31H97.17c-.27,0-.33.07-.33.33Q96.85,59.38,96.85,64.52ZM87,75.15c1.56,0,3.12,0,4.68,0,.21,0,.3,0,.34-.27.38-2.27.78-4.53,1.17-6.79.58-3.34,1.15-6.68,1.73-10a16.44,16.44,0,0,0,.42-3.89c0-.15,0-.27-.22-.27H88.93c-.16,0-.22,0-.23.21,0,.66-.11,1.31-.17,2-.17,2.06-.35,4.12-.52,6.19-.2,2.35-.41,4.71-.61,7.06,0,.49,0,.49-.51.49,0,0,0,0,0,0-.21,0-.27,0-.29-.27-.15-1.85-.32-3.69-.48-5.53-.28-3.28-.56-6.57-.83-9.85,0-.22-.1-.27-.31-.27h-6c-.11,0-.28-.08-.28.14a10.21,10.21,0,0,0,0,1.66c.36,2.3.78,4.59,1.17,6.89q1.07,6.1,2.11,12.23c0,.23.11.31.35.3C83.85,75.14,85.42,75.15,87,75.15Zm33.44-21.22H114.9a2.52,2.52,0,0,0-2.64,2.65v4.64a5.52,5.52,0,0,0,.16,1.34,3.64,3.64,0,0,0,1.69,2.1l4.8,3.19c.3.19.7.34.85.62s0,.69,0,1,0,.33-.32.33h-6.87c-.27,0-.37,0-.37.35,0,1.35,0,2.7,0,4,0,.3-.14.7.06.87s.55.05.85.05h10.57a2.55,2.55,0,0,0,2.7-2.7c0-1.62,0-3.24,0-4.86a6.31,6.31,0,0,0-.14-1.37,3.44,3.44,0,0,0-1.59-2.1c-1.75-1.17-3.5-2.36-5.27-3.51a1,1,0,0,1-.56-1c0-.28.1-.32.34-.32h5.49c.69,0,.65,0,.94-.64a8.43,8.43,0,0,0,.81-4.34c0-.31-.1-.36-.39-.36Zm-30-41.3v3.48c0,.12.09.3-.18.31s-.24-.1-.27-.28c-.37-2.33-.75-4.66-1.12-7,0-.21-.08-.3-.32-.3-1.19,0-2.37,0-3.55,0-.21,0-.29.06-.32.27-.12.82-.26,1.65-.39,2.47-.25,1.53-.49,3.06-.74,4.59,0,.1,0,.22-.17.24s-.25-.13-.25-.31c0-2.3,0-4.6,0-6.91,0-.26,0-.36-.33-.35-.61,0-1.22,0-1.82,0H78.56c-.11,0-.26,0-.26.16,0,.66,0,1.32,0,2l.78,6.63q.39,3.33.77,6.64c0,.22.09.29.32.29h4.9c.22,0,.31,0,.35-.28.35-1.88.71-3.75,1.07-5.63,0-.13,0-.27.23-.27s.19.15.21.28L88,24.26c0,.13,0,.3.26.3h5.08c.15,0,.22,0,.24-.2.14-1.29.29-2.57.44-3.86.24-2.08.49-4.16.72-6.24a32.44,32.44,0,0,0,.41-5.12c0-.22-.06-.28-.28-.28-1.4,0-2.8,0-4.2,0-.27,0-.3.09-.3.32C90.42,10.32,90.41,11.47,90.41,12.63ZM55.69,38.52v10.3c0,.23,0,.32.29.32h6c.26,0,.33-.07.33-.33,0-2.18,0-4.35,0-6.53,0-.25.07-.31.31-.31h5.9c.25,0,.32,0,.32-.31,0-1.55,0-3.09,0-4.64,0-.28,0-.37-.35-.37-2,0-3.94,0-5.9,0-.22,0-.28-.05-.28-.27,0-.95,0-1.9,0-2.86,0-.24.06-.31.31-.31h5.59c.62,0,.58,0,.85-.58a8.38,8.38,0,0,0,.81-4.43c0-.25,0-.33-.32-.33q-6.78,0-13.56,0c-.27,0-.33.07-.33.33Q55.69,33.38,55.69,38.52Zm0,26q0,5.15,0,10.29c0,.25.07.31.31.31H68.67c.24,0,.3-.05.3-.29q0-2.35,0-4.71c0-.27-.08-.32-.34-.32h-6c-.3,0-.35-.08-.35-.36,0-5.07,0-10.15,0-15.22,0-.28-.07-.34-.34-.34H56c-.27,0-.35,0-.35.34Q55.69,59.41,55.69,64.55Zm52.85-47.82V9.17c0-.15.06-.32-.21-.32-1.37,0-2.74,0-4.11,0-.15,0-.21,0-.2.19,0,.69,0,1.38,0,2.07.19,1.59.38,3.18.59,4.76,0,.25-.06.25-.24.25s-.19-.17-.23-.28q-1.07-3.36-2.11-6.73a.32.32,0,0,0-.37-.27c-1.52,0-3,0-4.55,0-.3,0-.38.08-.38.38q0,7.49,0,15a1.2,1.2,0,0,1,0,.19c0,.13,0,.16.17.16h4.17c.12,0,.17,0,.17-.15,0-.64,0-1.28,0-1.92-.17-1.64-.39-3.28-.58-4.92,0-.08-.1-.22.08-.24s.28-.05.33.15a1.66,1.66,0,0,0,.06.21q1.06,3.3,2.11,6.62a.3.3,0,0,0,.35.26h4.61c.26,0,.33-.06.33-.33Q108.54,20.48,108.54,16.73Zm-31.77,0c0-1.91,0-3.83,0-5.74a1.88,1.88,0,0,0-2-2.09c-2.57,0-5.15,0-7.72,0a1.89,1.89,0,0,0-2,2q0,5.82,0,11.64a1.86,1.86,0,0,0,2,2h7.76A2.08,2.08,0,0,0,76,24.16a2,2,0,0,0,.74-1.74Zm37,0q0,3.75,0,7.5c0,.26,0,.35.34.35,1.41,0,2.82,0,4.24,0,.25,0,.32-.06.32-.32,0-1.83,0-3.67,0-5.5,0-.22.06-.28.28-.28q.69,0,1.38,0c.25,0,.33.06.33.33,0,1.82,0,3.64,0,5.46,0,.25.07.31.31.31h4.3c.22,0,.27-.06.27-.28V9.15c0-.23,0-.3-.29-.3-1.42,0-2.85,0-4.27,0-.27,0-.32.08-.32.34,0,1.69,0,3.39,0,5.08,0,.24-.06.31-.3.3q-.69,0-1.38,0c-.24,0-.31-.05-.31-.31,0-1.7,0-3.41,0-5.12,0-.23-.06-.29-.3-.29q-2.11,0-4.23,0c-.28,0-.37.06-.37.36Q113.8,13,113.79,16.71Zm19.58-7.85c-1.26,0-2.52,0-3.77,0-.26,0-.33.09-.37.32-.1.7-.21,1.4-.33,2.11l-1.41,8.85a18.57,18.57,0,0,0-.4,4.14c0,.2,0,.29.26.29h4.4c.19,0,.24-.06.25-.24.08-.89.18-1.77.26-2.66,0-.2.08-.28.3-.27.51,0,1,0,1.54,0,.29,0,.37.08.39.35.06.87.16,1.73.23,2.6,0,.17.07.22.24.22.36,0,.72,0,1.07,0h3.36c.09,0,.26.08.25-.13a14.81,14.81,0,0,0,0-2c-.31-2.05-.65-4.09-1-6.13-.39-2.4-.77-4.79-1.15-7.19,0-.18-.1-.25-.3-.25ZM77.1,64.55q0-5.17,0-10.33c0-.22,0-.3-.29-.3h-6c-.23,0-.28.06-.28.28q0,10.32,0,20.65c0,.26.08.3.32.3,2,0,4,0,6,0,.29,0,.34-.09.34-.35Q77.1,69.68,77.1,64.55ZM55.58,18.68c0,1.86,0,3.72,0,5.58,0,.24.06.3.29.3,1.42,0,2.83,0,4.24,0,.32,0,.39-.08.39-.39,0-3.68,0-7.36,0-11.05,0-.26.08-.33.33-.32.61,0,1.22,0,1.82,0a.27.27,0,0,0,.3-.2c.17-.48.37-.95.56-1.43a1.54,1.54,0,0,0,.14-.57c0-.49,0-1,0-1.48,0-.22-.06-.28-.28-.28H52.94c-.22,0-.29,0-.29.27q0,1.71,0,3.42c0,.2.05.27.26.26.8,0,1.59,0,2.39,0,.23,0,.29.06.29.29C55.58,15,55.58,16.82,55.58,18.68Zm96.76-2v7.6c0,.2,0,.29.26.29h9.29c.23,0,.28-.07.28-.29,0-1.11,0-2.21,0-3.32,0-.24-.06-.32-.31-.32h-4.3c-.29,0-.34-.08-.34-.35,0-3.7,0-7.41,0-11.11,0-.26,0-.33-.32-.33-1.42,0-2.85,0-4.27,0-.26,0-.3.08-.3.32Zm-11.18,0c0,2.53,0,5.06,0,7.6,0,.2,0,.29.27.29h9.29c.22,0,.27-.07.27-.28q0-1.65,0-3.3c0-.27-.05-.36-.34-.35h-4.27c-.28,0-.34-.08-.34-.35,0-3.7,0-7.4,0-11.11,0-.25-.06-.33-.32-.33-1.43,0-2.85,0-4.27,0-.26,0-.31.08-.31.32C141.17,11.67,141.16,14.17,141.16,16.67Zm17.41,43.42a2.92,2.92,0,1,0-2.89-2.93A2.92,2.92,0,0,0,158.57,60.09Zm-13.94-3a2.9,2.9,0,1,0-2.76,3A2.91,2.91,0,0,0,144.63,57.1Zm-14.23.07a2.9,2.9,0,1,0,2.9-2.91A2.91,2.91,0,0,0,130.4,57.17Zm22.63,0a2.9,2.9,0,1,0-2.9,2.92A2.91,2.91,0,0,0,153,57.17ZM169,57.9a1.6,1.6,0,0,0,.71,1.25c.14.09.23.09.34-.06.31-.44.64-.87,1-1.31s.33-.6-.23-.86l-.17-.07A1.17,1.17,0,0,0,169,57.9Z" transform="translate(-44.21 -8.85)" fill="#fefefe"/><path d="M147.19,65.68c-.16.36-.34.72-.48,1.08a1.06,1.06,0,0,1-1,.77,1,1,0,0,1-1-.64s0,0-.06-.06c.07.62.14,1.21.22,1.81s0,.57-.44.63c-.21,0-.17.16-.17.29,0,1.36,0,2.72,0,4.08a1.12,1.12,0,1,1-2.24,0V69.61c0-.11.07-.27-.07-.3a1.47,1.47,0,0,0-.59,0c-.07,0,0,.17,0,.26v4.08a1.1,1.1,0,0,1-1.47,1.1,1,1,0,0,1-.77-1.11q0-2,0-4.05c0-.21,0-.33-.27-.35s-.3-.23-.27-.45l.21-1.78c0-.06,0-.13,0-.22l-.1.19a.89.89,0,0,1-.85.54,1,1,0,0,1-1-.56,11.16,11.16,0,0,0-.62-1.25v7.91a1.08,1.08,0,0,1-1.46,1.1,1,1,0,0,1-.77-1c0-.46,0-.92,0-1.38,0-.9,0-1.8,0-2.7,0-.19,0-.26-.24-.25a5.61,5.61,0,0,1-.82,0c-.22,0-.28.07-.28.28,0,1.33,0,2.66,0,4a1.1,1.1,0,0,1-1.51,1.09,1,1,0,0,1-.72-1v-8c-.12,0-.11.11-.14.18l-.45,1a1,1,0,1,1-1.76-.8c.56-1.29,1.14-2.58,1.71-3.86.15-.35.31-.69.46-1a1,1,0,0,1,1-.65c1.36,0,2.72,0,4.08,0a1.05,1.05,0,0,1,1.09.71c.38.9.78,1.78,1.17,2.67l.16.33c.44-1,.87-1.93,1.28-2.89a1.16,1.16,0,0,1,1.22-.81c1,0,2,0,3.05,0a1.08,1.08,0,0,1,1.09.72L145.59,64c0,.07.07.13.11.23.44-1,.88-1.94,1.28-2.91a1.15,1.15,0,0,1,1.23-.8c1.33,0,2.66,0,4,0a1,1,0,0,1,1,.65l1.36,3.07.64-1.44.69-1.54a1.08,1.08,0,0,1,1.09-.73c1.07,0,2.13,0,3.2,0a1,1,0,0,1,1,.61q1.14,2.52,2.23,5a.9.9,0,0,1-.45,1.22.94.94,0,0,1-1.26-.33.25.25,0,0,0-.15-.13l.18,1.51c0,.12,0,.24,0,.37s-.09.43-.36.43-.28.12-.28.33c0,1.35,0,2.7,0,4a1.12,1.12,0,0,1-1.57,1.08,1,1,0,0,1-.67-1.09c0-1.34,0-2.68,0-4,0-.31-.12-.33-.37-.33s-.36,0-.35.34c0,1.35,0,2.7,0,4a1,1,0,0,1-.53,1,1.23,1.23,0,0,1-1.23,0,1,1,0,0,1-.47-.93V69.62c0-.21,0-.35-.28-.37s-.3-.26-.27-.49c.08-.67.17-1.34.25-2-.09,0-.1.1-.13.17a.92.92,0,0,1-.89.62,1,1,0,0,1-1-.65,7.29,7.29,0,0,0-.58-1.15v7.89a1.09,1.09,0,0,1-1.5,1.1,1,1,0,0,1-.72-1q0-2,0-4c0-.26-.07-.35-.33-.33a2.89,2.89,0,0,1-.72,0c-.25,0-.29.08-.28.3q0,2,0,4A1.09,1.09,0,0,1,148,74.73a1,1,0,0,1-.77-1.08v-8Zm-8.4,1v0h0Zm22.74.13v0h0Z" transform="translate(-44.21 -8.85)" fill="#323232"/><path d="M89.75,38.53q0-5.14,0-10.27c0-.28.07-.36.36-.36,4.27,0,8.54,0,12.81,0a2.53,2.53,0,0,1,2.66,1.89,2.44,2.44,0,0,1,.1.71c0,2.79,0,5.57,0,8.35a2.46,2.46,0,0,1-1.54,2.35c-.2.09-.17.17-.11.32l1.89,4.7a1.15,1.15,0,0,1,.1.52c0,.71,0,1.42,0,2.13,0,.2-.05.27-.26.27h-6c-.21,0-.26-.09-.3-.26-.54-2-1.09-4-1.63-6.05-.06-.25-.16-.35-.42-.32s-.77-.14-1,.08,0,.61,0,.94c0,1.76,0,3.53,0,5.3,0,.26-.07.31-.31.31h-6c-.25,0-.31-.08-.3-.32Zm6.64-3.32c0,.59,0,1.19,0,1.78,0,.18.05.24.23.24H98.8c.19,0,.23-.06.23-.24q0-1.76,0-3.51c0-.18,0-.25-.24-.25q-1.08,0-2.16,0c-.2,0-.25.06-.25.25C96.4,34.06,96.39,34.63,96.39,35.21Z" transform="translate(-44.21 -8.85)" fill="#323232"/><path d="M147.56,38.53V28.24c0-.25,0-.34.31-.34,4.29,0,8.58,0,12.87,0a2.55,2.55,0,0,1,2.54,1.55,2.91,2.91,0,0,1,.21,1.13c0,2.74,0,5.48,0,8.23a2.5,2.5,0,0,1-1.56,2.39c-.22.1-.15.2-.09.33q.94,2.37,1.9,4.73a1.22,1.22,0,0,1,.09.46c0,.71,0,1.42,0,2.13,0,.21,0,.29-.26.29h-5.94c-.23,0-.31-.08-.37-.3-.53-2-1.08-4-1.61-6-.06-.25-.15-.37-.43-.34a2.43,2.43,0,0,1-.66,0c-.27,0-.35.05-.35.34,0,2,0,3.95,0,5.93,0,.28-.07.36-.36.36-2,0-4,0-6,0-.25,0-.31-.07-.31-.31Zm6.65-3.27V37c0,.17,0,.22.21.22h2.23c.17,0,.2-.07.2-.22,0-1.19,0-2.37,0-3.55,0-.18,0-.23-.23-.23-.72,0-1.44,0-2.16,0-.22,0-.26.08-.25.27C154.22,34.09,154.21,34.67,154.21,35.26Z" transform="translate(-44.21 -8.85)" fill="#323232"/><path d="M87.33,38.54v7.82a3.22,3.22,0,0,1-.14,1,2.45,2.45,0,0,1-2.11,1.72,3.82,3.82,0,0,1-.59,0H74.29A3.65,3.65,0,0,1,73.2,49a2.51,2.51,0,0,1-1.8-2.42v-16a2.86,2.86,0,0,1,.22-1.19,2.57,2.57,0,0,1,2.55-1.53H84.69a2.55,2.55,0,0,1,2.64,2.72Zm-9.29,0c0,1.69,0,3.37,0,5,0,.21,0,.27.26.26h2.13c.21,0,.26-.06.26-.26,0-3.36,0-6.71,0-10.07,0-.2,0-.27-.26-.27-.7,0-1.4,0-2.1,0-.25,0-.29.08-.29.3C78.05,35.19,78,36.86,78,38.52Z" transform="translate(-44.21 -8.85)" fill="#323232"/><path d="M110.87,38.52V30.58A2.49,2.49,0,0,1,112.65,28a3.33,3.33,0,0,1,1-.13H124a2.56,2.56,0,0,1,2.78,2.8V46.46a2.48,2.48,0,0,1-2.06,2.61,3.13,3.13,0,0,1-.68.06H113.65A3.37,3.37,0,0,1,112.6,49a2.45,2.45,0,0,1-1.72-2.21c0-.6,0-1.2,0-1.79Zm9.27,0c0-1.67,0-3.35,0-5,0-.25-.08-.31-.32-.31q-1,0-2,0c-.23,0-.3.06-.3.3,0,3.34,0,6.69,0,10,0,.24.08.28.29.27h2c.25,0,.33,0,.33-.32C120.13,41.86,120.14,40.21,120.14,38.56Z" transform="translate(-44.21 -8.85)" fill="#323232"/><path d="M145.13,38.55q0,5.13,0,10.24c0,.27,0,.35-.34.35H132a2.52,2.52,0,0,1-2.67-1.87,2.71,2.71,0,0,1-.1-.75q0-9.16,0-18.33c0-.26.09-.28.31-.28q3,0,6,0c.27,0,.33.08.33.33q0,7.62,0,15.23c0,.29.06.39.37.38.66,0,1.32,0,2,0,.25,0,.31-.06.31-.31q0-7.6,0-15.22c0-.45-.06-.4.41-.4,2,0,3.93,0,5.9,0,.26,0,.33.06.33.32Q145.13,33.4,145.13,38.55Z" transform="translate(-44.21 -8.85)" fill="#323232"/><path d="M170.42,59.43l1-1.44c.08-.14.14-.1.23,0l2.82,2.64a.19.19,0,0,1,0,.28c-.3.46-.3.46-.77.22l-1.48-.75v3.71c0,.23.11.14.21.1L176,63c.27-.1.59-.31.79-.23s.23.48.33.74.24.67.37,1c.08.17,0,.23-.13.29-.44.15-.86.33-1.29.48a.3.3,0,0,0-.23.34V76.66c0,.21,0,.26.26.26,1.45,0,2.91,0,4.36,0,.19,0,.27,0,.25-.24a3.23,3.23,0,0,1,0-.44V23.43c0-.49.06-.42-.44-.42H165c-.14,0-.34.09-.34-.21s.06-.31.31-.31h16c.16,0,.24.05.22.21a1.62,1.62,0,0,0,0,.22q0,27.06,0,54.13c0,.33-.09.4-.41.4H44.63c-.41,0-.41,0-.41-.41V10.68c0-.48-.06-.42.41-.42h6.06c.21,0,.31,0,.31.28s-.12.25-.3.25c-1.87,0-3.73,0-5.59,0-.31,0-.37.08-.37.38q0,31.74,0,63.48c0,.67,0,1.34,0,2,0,.22.07.3.28.27a1.71,1.71,0,0,1,.32,0H167.27a2.09,2.09,0,0,1,.25,0c.17,0,.24,0,.24-.22,0-2.82,0-5.63,0-8.45,0-.18,0-.26-.23-.18l-.06,0c-.25.07-.54.28-.73.17s-.19-.44-.27-.67-.2-.62-.32-.92,0-.28.17-.35c1.7-.59,3.39-1.19,5.09-1.76a.48.48,0,0,0,.39-.57c0-1.19,0-2.38,0-3.58a.37.37,0,0,0-.25-.4C171.17,59.84,170.81,59.63,170.42,59.43Z" transform="translate(-44.21 -8.85)" fill="#014789"/><path d="M96.85,64.52q0-5.14,0-10.27c0-.26.06-.33.33-.33h13.56c.24,0,.35,0,.31.31,0,0,0,0,0,0a8.17,8.17,0,0,1-1,4.8c-.08.2-.2.2-.36.2h-5.9c-.28,0-.35.07-.34.34,0,.58,0,1.16,0,1.73,0,.26.08.3.31.3h5.87c.28,0,.35.07.35.35,0,1.55,0,3.1,0,4.64,0,.26-.06.34-.33.34-2,0-3.93,0-5.9,0-.25,0-.31.07-.3.31,0,.77,0,1.53,0,2.3,0,.27.08.31.33.31h6.91c.27,0,.34.07.34.34q0,2.34,0,4.68c0,.23-.05.3-.29.3H97.13c-.26,0-.28-.1-.28-.31Z" transform="translate(-44.21 -8.85)" fill="#014789"/><path d="M87,75.15c-1.57,0-3.14,0-4.71,0-.24,0-.31-.07-.35-.3q-1.05-6.12-2.11-12.23c-.39-2.3-.81-4.59-1.17-6.89a10.21,10.21,0,0,1,0-1.66c0-.22.17-.14.28-.14h6c.21,0,.29,0,.31.27.27,3.28.55,6.57.83,9.85.16,1.84.33,3.68.48,5.53,0,.22.08.3.29.27,0,0,0,0,0,0,.48,0,.47,0,.51-.49.2-2.35.41-4.71.61-7.06.17-2.07.35-4.13.52-6.19.06-.66.13-1.31.17-2,0-.17.07-.21.23-.21h6.18c.24,0,.2.12.22.27a16.44,16.44,0,0,1-.42,3.89c-.58,3.33-1.15,6.67-1.73,10-.39,2.26-.79,4.52-1.17,6.79,0,.24-.13.27-.34.27C90.11,75.14,88.55,75.15,87,75.15Z" transform="translate(-44.21 -8.85)" fill="#014789"/><path d="M120.43,53.93h5.65c.29,0,.36,0,.39.36a8.43,8.43,0,0,1-.81,4.34c-.29.62-.25.64-.94.64h-5.49c-.24,0-.32,0-.34.32a1,1,0,0,0,.56,1c1.77,1.15,3.52,2.34,5.27,3.51a3.44,3.44,0,0,1,1.59,2.1,6.31,6.31,0,0,1,.14,1.37c0,1.62,0,3.24,0,4.86a2.55,2.55,0,0,1-2.7,2.7H113.18c-.3,0-.68.09-.85-.05s-.06-.57-.06-.87c0-1.35,0-2.7,0-4,0-.3.1-.35.37-.35h6.87c.27,0,.34-.07.32-.33s.1-.76,0-1-.55-.43-.85-.62l-4.8-3.19a3.64,3.64,0,0,1-1.69-2.1,5.52,5.52,0,0,1-.16-1.34V56.58a2.52,2.52,0,0,1,2.64-2.65Z" transform="translate(-44.21 -8.85)" fill="#014789"/><path d="M90.41,12.63c0-1.16,0-2.31,0-3.46,0-.23,0-.32.3-.32,1.4,0,2.8,0,4.2,0,.22,0,.27.06.28.28a32.44,32.44,0,0,1-.41,5.12c-.23,2.08-.48,4.16-.72,6.24-.15,1.29-.3,2.57-.44,3.86,0,.17-.09.2-.24.2H88.3c-.26,0-.23-.17-.26-.3L87,18.66c0-.13,0-.27-.21-.28s-.2.14-.23.27c-.36,1.88-.72,3.75-1.07,5.63,0,.23-.13.28-.35.28H80.2c-.23,0-.29-.07-.32-.29q-.37-3.32-.77-6.64L78.33,11c-.07-.66,0-1.32,0-2,0-.21.15-.16.26-.16H81c.6,0,1.21,0,1.82,0,.29,0,.33.09.33.35,0,2.31,0,4.61,0,6.91,0,.18,0,.34.25.31s.15-.14.17-.24c.25-1.53.49-3.06.74-4.59.13-.82.27-1.65.39-2.47,0-.21.11-.27.32-.27,1.18,0,2.36,0,3.55,0,.24,0,.29.09.32.3.37,2.33.75,4.66,1.12,7,0,.18.05.29.27.28s.18-.19.18-.31Z" transform="translate(-44.21 -8.85)" fill="#014789"/><path d="M55.69,38.52q0-5.15,0-10.29c0-.26.06-.33.33-.33q6.78,0,13.56,0c.27,0,.3.08.32.33a8.38,8.38,0,0,1-.81,4.43c-.27.56-.23.58-.85.58H62.64c-.25,0-.32.07-.31.31,0,1,0,1.91,0,2.86,0,.22.06.28.28.27,2,0,3.93,0,5.9,0,.3,0,.35.09.35.37,0,1.55,0,3.09,0,4.64,0,.26-.07.31-.32.31h-5.9c-.24,0-.31.06-.31.31,0,2.18,0,4.35,0,6.53,0,.26-.07.33-.33.33H56c-.26,0-.3-.09-.29-.32Z" transform="translate(-44.21 -8.85)" fill="#323232"/><path d="M55.69,64.55q0-5.14,0-10.29c0-.29.08-.34.35-.34H62c.27,0,.34.06.34.34,0,5.07,0,10.15,0,15.22,0,.28.05.37.35.36h6c.26,0,.34,0,.34.32q0,2.35,0,4.71c0,.24-.06.29-.3.29H56c-.24,0-.31-.06-.31-.31Q55.69,69.69,55.69,64.55Z" transform="translate(-44.21 -8.85)" fill="#014789"/><path d="M108.54,16.73q0,3.75,0,7.5c0,.27-.07.33-.33.33h-4.61a.3.3,0,0,1-.35-.26q-1-3.32-2.11-6.62a1.66,1.66,0,0,1-.06-.21c0-.2-.2-.16-.33-.15s-.09.16-.08.24c.19,1.64.41,3.28.58,4.92.06.64,0,1.28,0,1.92,0,.13,0,.15-.17.15H96.94c-.12,0-.18,0-.17-.16a1.2,1.2,0,0,0,0-.19q0-7.48,0-15c0-.3.08-.38.38-.38,1.52,0,3,0,4.55,0a.32.32,0,0,1,.37.27q1.05,3.38,2.11,6.73c0,.11,0,.28.23.28s.28,0,.24-.25c-.21-1.58-.4-3.17-.59-4.76-.08-.69,0-1.38,0-2.07,0-.15,0-.19.2-.19,1.37,0,2.74,0,4.11,0,.27,0,.21.17.21.32Z" transform="translate(-44.21 -8.85)" fill="#014789"/><path d="M76.77,16.7v5.72A2,2,0,0,1,76,24.16a2.08,2.08,0,0,1-1.27.39H67a1.86,1.86,0,0,1-2-2q0-5.82,0-11.64a1.89,1.89,0,0,1,2-2c2.57,0,5.15,0,7.72,0a1.88,1.88,0,0,1,2,2.09C76.78,12.87,76.77,14.79,76.77,16.7Zm-4.9,0c0-1.2,0-2.4,0-3.61,0-.24-.06-.3-.3-.29-.48,0-1,0-1.44,0-.18,0-.23,0-.23.23q0,3.69,0,7.37c0,.18,0,.24.23.24.48,0,1,0,1.45,0,.23,0,.29-.07.29-.3C71.86,19.13,71.87,17.91,71.87,16.7Z" transform="translate(-44.21 -8.85)" fill="#014789"/><path d="M113.79,16.71q0-3.75,0-7.5c0-.3.09-.36.37-.36q2.11,0,4.23,0c.24,0,.3.06.3.29,0,1.71,0,3.42,0,5.12,0,.26.07.32.31.31q.69,0,1.38,0c.24,0,.3-.06.3-.3,0-1.69,0-3.39,0-5.08,0-.26,0-.34.32-.34,1.42,0,2.85,0,4.27,0,.24,0,.29.07.29.3V24.28c0,.22,0,.28-.27.28H121c-.24,0-.31-.06-.31-.31,0-1.82,0-3.64,0-5.46,0-.27-.08-.34-.33-.33q-.69,0-1.38,0c-.22,0-.28.06-.28.28,0,1.83,0,3.67,0,5.5,0,.26-.07.32-.32.32-1.42,0-2.83,0-4.24,0-.29,0-.34-.09-.34-.35Q113.8,20.46,113.79,16.71Z" transform="translate(-44.21 -8.85)" fill="#014789"/><path d="M133.37,8.86h3.82c.2,0,.27.07.3.25.38,2.4.76,4.79,1.15,7.19.32,2,.66,4.08,1,6.13a14.81,14.81,0,0,1,0,2c0,.21-.16.13-.25.13H136c-.35,0-.71,0-1.07,0-.17,0-.23,0-.24-.22-.07-.87-.17-1.73-.23-2.6,0-.27-.1-.37-.39-.35-.51,0-1,0-1.54,0-.22,0-.28.07-.3.27-.08.89-.18,1.77-.26,2.66,0,.18-.06.24-.25.24h-4.4c-.23,0-.25-.09-.26-.29a18.57,18.57,0,0,1,.4-4.14l1.41-8.85c.12-.71.23-1.41.33-2.11,0-.23.11-.32.37-.32C130.85,8.87,132.11,8.86,133.37,8.86Zm0,8.61a3.09,3.09,0,0,1,.43,0c.22,0,.29,0,.26-.27-.14-1.39-.26-2.79-.4-4.19,0-.07,0-.16-.1-.2a.34.34,0,0,0-.5.32c-.11,1.2-.22,2.41-.34,3.62C132.65,17.47,132.65,17.47,133.37,17.47Z" transform="translate(-44.21 -8.85)" fill="#014789"/><path d="M77.1,64.55q0,5.13,0,10.26c0,.26,0,.35-.34.35-2,0-4,0-6,0-.24,0-.32,0-.32-.3q0-10.32,0-20.65c0-.22.05-.28.28-.28h6c.25,0,.29.08.29.3Q77.1,59.38,77.1,64.55Z" transform="translate(-44.21 -8.85)" fill="#014789"/><path d="M55.58,18.68c0-1.86,0-3.72,0-5.59,0-.23-.06-.29-.29-.29-.8,0-1.59,0-2.39,0-.21,0-.26-.06-.26-.26q0-1.71,0-3.42c0-.23.07-.28.29-.27H63.35c.22,0,.29.06.28.28,0,.5,0,1,0,1.48a1.54,1.54,0,0,1-.14.57c-.19.48-.39,1-.56,1.43a.27.27,0,0,1-.3.2c-.6,0-1.21,0-1.82,0-.25,0-.33.06-.33.32,0,3.69,0,7.37,0,11.05,0,.31-.07.39-.39.39-1.41,0-2.82,0-4.24,0-.23,0-.29-.06-.29-.3C55.59,22.4,55.58,20.54,55.58,18.68Z" transform="translate(-44.21 -8.85)" fill="#014789"/><path d="M152.34,16.67V9.17c0-.24,0-.32.3-.32,1.42,0,2.85,0,4.27,0,.27,0,.32.07.32.33,0,3.7,0,7.41,0,11.11,0,.27.05.36.34.35h4.3c.25,0,.31.08.31.32,0,1.11,0,2.21,0,3.32,0,.22,0,.29-.28.29H152.6c-.23,0-.26-.09-.26-.29Z" transform="translate(-44.21 -8.85)" fill="#014789"/><path d="M141.16,16.67c0-2.5,0-5,0-7.5,0-.24.05-.32.31-.32,1.42,0,2.84,0,4.27,0,.26,0,.32.08.32.33,0,3.71,0,7.41,0,11.11,0,.27.06.36.34.35h4.27c.29,0,.35.08.34.35q0,1.65,0,3.3c0,.21-.05.28-.27.28h-9.29c-.24,0-.27-.09-.27-.29C141.17,21.73,141.16,19.2,141.16,16.67Z" transform="translate(-44.21 -8.85)" fill="#014789"/><path d="M158.57,60.09a2.92,2.92,0,1,1,2.91-2.92A2.93,2.93,0,0,1,158.57,60.09Z" transform="translate(-44.21 -8.85)" fill="#323232"/><path d="M144.63,57.1a2.9,2.9,0,1,1-3-2.84A2.91,2.91,0,0,1,144.63,57.1Z" transform="translate(-44.21 -8.85)" fill="#323232"/><path d="M130.4,57.17a2.9,2.9,0,1,1,2.9,2.92A2.9,2.9,0,0,1,130.4,57.17Z" transform="translate(-44.21 -8.85)" fill="#323232"/><path d="M153,57.17a2.9,2.9,0,1,1-2.91-2.91A2.91,2.91,0,0,1,153,57.17Z" transform="translate(-44.21 -8.85)" fill="#323232"/><path d="M169,57.9a1.17,1.17,0,0,1,1.61-1l.17.07c.56.26.59.38.23.86s-.65.87-1,1.31c-.11.15-.2.15-.34.06A1.6,1.6,0,0,1,169,57.9Z" transform="translate(-44.21 -8.85)" fill="#014789"/><polygon points="94.58 57.88 94.57 57.86 94.59 57.86 94.58 57.88" fill="#fefefe"/><polygon points="117.31 58.01 117.31 57.98 117.32 57.99 117.31 58.01" fill="#fefefe"/></svg>