<svg xmlns="http://www.w3.org/2000/svg" xmlns:xlink="http://www.w3.org/1999/xlink" viewBox="0 0 110.74 97.96"><defs><clipPath id="a" transform="translate(-630.18 -338.9)"><circle cx="684.99" cy="387.94" r="46.06" style="fill:none"/></clipPath></defs><title>do-your-job-logo</title><circle cx="55.01" cy="48.98" r="47.48" style="fill:#0d4668;stroke:#b70000;stroke-miterlimit:10;stroke-width:3px"/><g style="clip-path:url(#a)"><path d="M740.06,417.52v-1.17h.35v-.48H726c.42,0,.44-.64.44-.64v-1.47a1.17,1.17,0,0,0-1.18-1.17h-4.39a1.15,1.15,0,0,0-1.16,1.23v1.41a1.13,1.13,0,0,0,.26.64h-7.08l.94-1.65a.78.78,0,0,0,.39-.88h-1.29v-1.63h.4v-.48H703.06v-7.87c2.27-2.71-2.86-5.38-2.86-5.38V394.8c1.95-1.59-.84-3.5-.84-3.5.48-1.55-1.55-2.5-1.55-2.5.48-7.88-8.11-11.36-8.11-11.36v-.82l-1.28-.71v-1l-.71-.63v-3.66l.37-.27c1.06-2.15-1.94-3.39-1.94-3.39l.16-1.2.44-.42v-.45l-.6-.24-.1-1.41c1.83-1.67-.49-3.45-.49-3.45s-2.32,1.78-.49,3.45l-.11,1.41-.6.24v.45l.44.42L685,367s-3,1.24-1.94,3.39l.38.27v3.66l-.72.63v1l-1.27.71v.82s-8.6,3.48-8.12,11.36c0,0-2,.95-1.55,2.5,0,0-2.79,1.91-.84,3.5V398s-5.13,2.67-2.86,5.38v7.87H657.81v.48h.39v1.63h-1.29a.78.78,0,0,0,.4.88l.93,1.65h-7.08a1.13,1.13,0,0,0,.26-.64v-1.41a1.15,1.15,0,0,0-1.15-1.23h-4.4a1.16,1.16,0,0,0-1.17,1.17v1.47s0,.64.43.64H630.69v.48H631v1.17h-.85v1s.67,0,.67.4v15.8H740.24v-15.8c0-.44.68-.4.68-.4v-1Zm-97.5-1.1h.52v1.48h-.52Zm-.83,0h.52v1.48h-.52Zm-4.09,0h.52v1.48h-.52Zm-.81,0h.52v1.48h-.52Zm-3.57,1.48h-.51v-1.48h.51Zm.81,0h-.51v-1.48h.51Zm.82,0h-.52v-1.48h.52Zm.83,0h-.52v-1.48h.52Zm.81,0H636v-1.48h.51Zm2,13.23H637v-3.37a.77.77,0,0,1,.77-.76.76.76,0,0,1,.76.76Zm-.76-7.25a1,1,0,1,1,1-1A1,1,0,0,1,637.73,423.88Zm1.26-6h-.52v-1.48H639Zm.82,0h-.52v-1.48h.52Zm.81,0h-.52v-1.48h.52Zm.29-1.48h.52v1.48h-.52Zm2.17,14.71h-1.53v-3.37a.76.76,0,0,1,.76-.76.77.77,0,0,1,.77.76Zm-.77-7.25a1,1,0,1,1,1-1A1,1,0,0,1,642.31,423.88Zm1.58-6h-.52v-1.48h.52Zm.82,0h-.52v-1.48h.52Zm11.1-1.48h.52v1.48h-.52Zm-4.08,0h.52v1.48h-.52Zm-5-2.78h1v1.47h-1Zm-1.55,0h1v1.47h-1Zm2.43,17.49h-1.52v-3.37a.76.76,0,1,1,1.52,0Zm-.76-7.25a1,1,0,1,1,1-1A1,1,0,0,1,646.9,423.88Zm2.42-8.77h-1v-1.47h1Zm.59-1.47h1v1.47h-1Zm2.34,17.49h-1.53v-3.37a.76.76,0,0,1,.76-.76.77.77,0,0,1,.77.76Zm-.77-7.25a1,1,0,1,1,1-1A1,1,0,0,1,651.48,423.88Zm1.58-6h-.52v-1.48h.52Zm.81,0h-.52v-1.48h.52Zm.83,0h-.52v-1.48h.52Zm.3-1.48h.52v1.48H655Zm1.83,14.71h-1.52v-3.37a.76.76,0,1,1,1.52,0Zm-.76-7.25a1,1,0,1,1,1-1A1,1,0,0,1,656.07,423.88Zm1.07-6h-.51v-1.48h.51Zm.83,0h-.52v-1.48H658Zm5.56-6.29h.52v1.47h-.52ZM660,413.08h-.52v-1.47H660Zm.81,0h-.52v-1.47h.52Zm.82,0h-.52v-1.47h.52Zm.83,0h-.52v-1.47h.52Zm.29-1.47h.52v1.47h-.52Zm1.9,15.39H663v-3.85h1.65Zm-.83-7.19a1,1,0,1,1,1-1A1,1,0,0,1,663.79,419.81Zm1.08-6.73h-.52v-1.47h.52Zm.83,0h-.52v-1.47h.52Zm.81,0H666v-1.47h.52Zm.82,0h-.52v-1.47h.52Zm4.37-4.46a.46.46,0,0,1-.46.46h-1.47a.46.46,0,0,1-.46-.46v-7.2a.46.46,0,0,1,.46-.46h1.47a.46.46,0,0,1,.46.46Zm12-38,.28-.09v3.3h-.28Zm.63,11.26a.42.42,0,0,1,.42.43v1.11a.43.43,0,1,1-.85,0V382.3A.43.43,0,0,1,684.29,381.87Zm-.7,10.15a.56.56,0,0,1,1.12,0v3a.56.56,0,0,1-1.12,0Zm-.69,18.85v1.48h-.52v-1.48Zm.77,7.9a1,1,0,1,1-1-1A1,1,0,0,1,683.67,418.77Zm-1.9-36.15a.43.43,0,1,1,.85,0v1.11a.43.43,0,0,1-.85,0Zm-.91,9.4a.56.56,0,0,1,1.12,0v3a.56.56,0,0,1-1.12,0Zm-1.19-9.09a.43.43,0,0,1,.85,0v1.12a.43.43,0,0,1-.85,0Zm-2.09.32a.43.43,0,0,1,.85,0v1.12a.43.43,0,0,1-.85,0Zm-2.1.32a.43.43,0,0,1,.85,0v1.11a.43.43,0,1,1-.85,0Zm-.09,9.09a.57.57,0,0,1,1.13,0v3a.57.57,0,1,1-1.13,0Zm1.4,26.11a1,1,0,1,1-1-1A1,1,0,0,1,676.79,418.77ZM672.66,393a.56.56,0,0,1,.56-.56.57.57,0,0,1,.57.56v3a.58.58,0,0,1-.57.57.57.57,0,0,1-.56-.57Zm.46,15.79a.46.46,0,0,1-.46-.46V401.1a.45.45,0,0,1,.46-.46h1.46a.45.45,0,0,1,.46.46v7.21a.46.46,0,0,1-.46.46Zm3.68,19.41h-2.07v-4.56a1,1,0,1,1,2.07,0Zm1.2-15.83h-.52v-1.48H678Zm-.07-3.9h-1.47A.47.47,0,0,1,676,408v-7.21a.47.47,0,0,1,.46-.46h1.47a.47.47,0,0,1,.46.46V408A.47.47,0,0,1,677.93,408.45Zm.88,3.9h-.52v-1.48h.52Zm-.12-16.45a.57.57,0,0,1-.57-.56v-3a.57.57,0,0,1,.57-.56.56.56,0,0,1,.56.56v3A.56.56,0,0,1,678.69,395.9Zm.93,16.45h-.51v-1.48h.51Zm.83,0h-.51v-1.48h.51Zm.82,0h-.52v-1.48h.52Zm-1.46-4.22a.47.47,0,0,1-.46-.46v-7.21a.47.47,0,0,1,.46-.46h1.47a.47.47,0,0,1,.46.46v7.21a.47.47,0,0,1-.46.46Zm1.75,2.74h.52v1.48h-.52Zm2.11,17.31H681.6v-4.56a1,1,0,1,1,2.07,0Zm.05-15.83h-.51v-1.48h.51Zm.82,0H684v-1.48h.52Zm.54-5a.45.45,0,0,1-.46.46h-1.46a.45.45,0,0,1-.46-.46v-7.21a.46.46,0,0,1,.46-.46h1.46a.46.46,0,0,1,.46.46Zm.18-33.53h-1.08v-3.44l1.08-.52Zm12,19.16a.56.56,0,1,1,1.12,0v3a.56.56,0,1,1-1.12,0Zm-2.55-9.41a.43.43,0,0,1,.85,0v1.11a.43.43,0,1,1-.85,0Zm-.18,9.09a.56.56,0,0,1,1.12,0v3a.56.56,0,1,1-1.12,0Zm1.79,26.11a1,1,0,1,1-2.07,0,1,1,0,0,1,2.07,0Zm-3.7-35.52a.43.43,0,0,1,.85,0v1.12a.43.43,0,0,1-.85,0Zm-2.1-.32a.43.43,0,0,1,.85,0v1.12a.43.43,0,0,1-.85,0Zm-.33,9.09v3a.57.57,0,0,1-1.13,0v-3a.57.57,0,0,1,1.13,0Zm-1.76-9.4a.43.43,0,1,1,.85,0v1.11a.43.43,0,0,1-.85,0Zm.24,28.25v1.48h-.52v-1.48Zm.77,7.9a1,1,0,1,1-1-1A1,1,0,0,1,689.49,418.77Zm-2.34-48.25.28.09v3.21h-.28Zm.36,21.5v3a.57.57,0,0,1-.57.56.56.56,0,0,1-.56-.56v-3a.56.56,0,0,1,.56-.56A.57.57,0,0,1,687.51,392Zm-.28-9.72v1.11a.43.43,0,1,1-.85,0V382.3a.43.43,0,1,1,.85,0Zm-1.39-12.44,1.07.52v3.44h-1.07Zm.17,37.49v-7.21a.47.47,0,0,1,.46-.46h1.47a.47.47,0,0,1,.46.46v7.21a.46.46,0,0,1-.46.46h-1.47A.46.46,0,0,1,686,407.35Zm1.06,5h-.52v-1.48h.52Zm.3-1.48h.52v1.48h-.52Zm2.12,17.31h-2.07v-4.56a1,1,0,1,1,2.07,0Zm0-15.83H689v-1.48h.52Zm.81,0h-.52v-1.48h.52Zm.82,0h-.52v-1.48h.52Zm-1.34-4.22a.46.46,0,0,1-.46-.46v-7.21a.46.46,0,0,1,.46-.46h1.46a.46.46,0,0,1,.46.46v7.21a.46.46,0,0,1-.46.46Zm2.17,4.22h-.52v-1.48H692Zm-.14-17v-3a.56.56,0,0,1,1.12,0v3a.56.56,0,0,1-1.12,0Zm.95,17h-.52v-1.48h.52Zm-.1-4.36v-7.21a.47.47,0,0,1,.46-.46h1.47a.47.47,0,0,1,.46.46V408a.47.47,0,0,1-.46.46h-1.47A.47.47,0,0,1,692.7,408Zm.91,4.36h-.52v-1.48h.52Zm2.76,15.83H694.3v-4.56a1,1,0,1,1,2.07,0Zm2.07-19.87a.47.47,0,0,1-.46.46h-1.47a.47.47,0,0,1-.46-.46V401.1a.46.46,0,0,1,.46-.46H698a.46.46,0,0,1,.46.46Zm3.34.31a.45.45,0,0,1-.46.46h-1.46a.45.45,0,0,1-.46-.46v-7.2a.45.45,0,0,1,.46-.46h1.46a.45.45,0,0,1,.46.46Zm5.26,3h.52v1.47H707Zm-2.76,1.47h-.51v-1.47h.51Zm.82,0h-.52v-1.47h.52Zm.82,0h-.52v-1.47h.52Zm.31-1.47h.51v1.47h-.51ZM708.12,427h-1.64v-3.85h1.64Zm-.82-7.19a1,1,0,1,1,1-1A1,1,0,0,1,707.3,419.81Zm1.07-6.73h-.52v-1.47h.52Zm.82,0h-.52v-1.47h.52Zm.82,0h-.51v-1.47H710Zm.82,0h-.52v-1.47h.52Zm.81,0h-.52v-1.47h.52Zm11.69.56h1v1.47h-1Zm-4.48,2.78h.52v1.48h-.52Zm-4.08,0h.51v1.48h-.51Zm-1.13,1.48h-.52v-1.48h.52Zm.31-1.48h.52v1.48H714Zm1.84,14.71h-1.53v-3.37a.77.77,0,0,1,1.53,0Zm-.76-7.25a1,1,0,1,1,1-1A1,1,0,0,1,715,423.88Zm1.06-6h-.51v-1.48h.51Zm.82,0h-.52v-1.48h.52Zm.83,0h-.52v-1.48h.52Zm.81,0H718v-1.48h.51Zm1.82,13.23h-1.52v-3.37a.76.76,0,1,1,1.52,0Zm-.76-7.25a1,1,0,1,1,1-1A1,1,0,0,1,719.61,423.88Zm1.57-8.77h-1v-1.47h1Zm1.58,0h-1v-1.47h1Zm2.2,16h-1.53v-3.37a.77.77,0,0,1,1.53,0Zm-.76-7.25a1,1,0,1,1,1-1A1,1,0,0,1,724.2,423.88Zm1.66-8.77h-1v-1.47h1Zm7.89,1.31h.52v1.48h-.52Zm-.82,0h.52v1.48h-.52Zm-4.08,0h.51v1.48h-.51Zm-.83,0h.52v1.48H728Zm-1.12,1.48h-.51v-1.48h.51Zm.82,0h-.52v-1.48h.52Zm1.82,13.23H728v-3.37a.76.76,0,0,1,1.52,0Zm-.76-7.25a1,1,0,1,1,1-1A1,1,0,0,1,728.78,423.88Zm1.4-6h-.52v-1.48h.52Zm.81,0h-.52v-1.48H731Zm.82,0h-.52v-1.48h.52Zm.29-1.48h.52v1.48h-.52Zm2,14.71H732.6v-3.37a.77.77,0,0,1,1.53,0Zm-.76-7.25a1,1,0,1,1,1-1A1,1,0,0,1,733.37,423.88Zm1.71-6h-.52v-1.48h.52Zm.81,0h-.52v-1.48h.52Zm.83,0h-.52v-1.48h.52Zm.82,0H737v-1.48h.52Zm.81,0h-.52v-1.48h.52Z" transform="translate(-630.18 -338.9)" style="fill:#3facef;opacity:0.8300000000000001"/></g><path d="M642.93,386.38l.72-4.48c.5-3.13,2.67-5,5.58-4.53s4.39,2.91,3.88,6.05l-.71,4.48Zm8-3.19a2.63,2.63,0,1,0-5.19-.84L645.5,384l5.19.84Z" transform="translate(-630.18 -338.9)" style="fill:#ffbd24"/><path d="M649.82,375.54a5.34,5.34,0,1,1,6.91-2.35A5,5,0,0,1,649.82,375.54Zm3.72-7a2.59,2.59,0,1,0,1.2,3.57A2.56,2.56,0,0,0,653.54,368.56Z" transform="translate(-630.18 -338.9)" style="fill:#ffbd24"/><path d="M667.84,356.92l1.77,2.95-2.32,1.39-1.79-3-6.28-3.36,2.45-1.47,3.91,2.09v-4.43l2.26-1.35Z" transform="translate(-630.18 -338.9)" style="fill:#ffbd24"/><path d="M670.86,353.58a5.34,5.34,0,1,1,6.39,3.51A5,5,0,0,1,670.86,353.58Zm7.67-2a2.59,2.59,0,1,0-1.83,3.3A2.57,2.57,0,0,0,678.53,351.62Z" transform="translate(-630.18 -338.9)" style="fill:#ffbd24"/><path d="M683.46,351.39l.4-5.3,2.7.2-.39,5.22c-.13,1.64.51,2.35,1.64,2.44s1.86-.52,2-2.16l.39-5.22,2.67.2-.4,5.3c-.22,2.86-2,4.33-4.83,4.12S683.24,354.25,683.46,351.39Z" transform="translate(-630.18 -338.9)" style="fill:#ffbd24"/><path d="M698.17,355.86l-1.38-.55-.94,2.37-2.52-1,3.54-8.91,4.07,1.62c2.43,1,3.46,2.82,2.65,4.86a3.17,3.17,0,0,1-2.86,2.12l.81,3.57-2.69-1.07Zm1.83-4.55-1.4-.55-1,2.6,1.4.56c1,.41,1.75.14,2.08-.68S701,351.73,700,351.31Z" transform="translate(-630.18 -338.9)" style="fill:#ffbd24"/><path d="M708.28,363.5h2.3a2.09,2.09,0,0,0,.3,1.91,1.18,1.18,0,0,0,1.85,0l3.15-2.66-2.14-2.54,1.6-1.35,3.87,4.58-4.63,3.91c-1.9,1.61-3.67,1.42-5.23-.42A4.16,4.16,0,0,1,708.28,363.5Z" transform="translate(-630.18 -338.9)" style="fill:#ffbd24"/><path d="M717,368.2a5.34,5.34,0,1,1-2.36,6.91A5,5,0,0,1,717,368.2Zm3.25,7.22a2.59,2.59,0,1,0-3.56-1.24A2.56,2.56,0,0,0,720.22,375.42Z" transform="translate(-630.18 -338.9)" style="fill:#ffbd24"/><path d="M720.6,389.54c-1.65.17-2.76-1.09-3-3.66l-.54-5.15,9.54-1,.51,4.88c.26,2.51-.63,3.84-2.11,4a2.26,2.26,0,0,1-2.2-1.06A2.43,2.43,0,0,1,720.6,389.54Zm0-2.76c.65-.07.92-.59.82-1.52L721.2,383l-1.93.2.23,2.26C719.6,386.39,720,386.85,720.62,386.78Zm4.29-4.17-1.84.19.19,1.86c.1.9.46,1.33,1.07,1.27s.87-.56.77-1.46Z" transform="translate(-630.18 -338.9)" style="fill:#ffbd24"/></svg>