<svg xmlns="http://www.w3.org/2000/svg" viewBox="0 0 87.36 87.86"><title>town-hall-pledge-logo</title><circle cx="43.68" cy="44.18" r="42.18" style="fill:#0d4668;stroke:#e1e1e1;stroke-miterlimit:10;stroke-width:3px"/><path d="M775.4,393.86a7.73,7.73,0,0,0,3.34-1.31c3.8-2.52,5.8-7.69,5.8-7.69V363.07s-3.85-2.51-5.71,3.53l-.09.28v7.81s-8.67.57-8.22,8.65" transform="translate(-727.3 -327.34)" style="fill:none;stroke:#3facef;stroke-miterlimit:10;stroke-width:2px"/><polyline points="51.45 65.22 51.45 77.64 35.76 77.64 35.76 65.22" style="fill:none;stroke:#3facef;stroke-miterlimit:10;stroke-width:2px"/><path d="M767.93,393.86a12.37,12.37,0,0,1-4.65-1.62,10.74,10.74,0,0,1-5.26-8c-1.37-8.84,0-27,0-27s2.75-4,4.66,0" transform="translate(-727.3 -327.34)" style="fill:none;stroke:#3facef;stroke-miterlimit:10;stroke-width:2px"/><path d="M768.59,370.24v-18.6c-2.15-3.65-5.54,0-5.54,0v18.6" transform="translate(-727.3 -327.34)" style="fill:none;stroke:#3facef;stroke-miterlimit:10;stroke-width:2px"/><path d="M768.59,351.64V350c2.34-3.76,4.83,0,4.83,0v20.22" transform="translate(-727.3 -327.34)" style="fill:none;stroke:#3facef;stroke-miterlimit:10;stroke-width:2px"/><path d="M778.74,366.57V353.62s-2.73-5.63-5.32,0" transform="translate(-727.3 -327.34)" style="fill:none;stroke:#3facef;stroke-miterlimit:10;stroke-width:2px"/><path d="M735.62,377l.21,2.14-1.56.15-.6-6.24,1.57-.15.2,2.13,5.4-.51.19,2Z" transform="translate(-727.3 -327.34)" style="fill:#f9f9f9"/><path d="M737.09,371.92a3.9,3.9,0,1,1,4.14-3.35A3.67,3.67,0,0,1,737.09,371.92Zm.8-5.73a1.9,1.9,0,1,0,1.72,2.15A1.88,1.88,0,0,0,737.89,366.19Z" transform="translate(-727.3 -327.34)" style="fill:#f9f9f9"/><path d="M740.16,351.27l5.26,5.15-.94,1.9-4.41-.69,3.2,3.15-.95,1.9L735,361.6l.91-1.83,4.63.73-3.35-3.32.81-1.63,4.67.74L739.32,353Z" transform="translate(-727.3 -327.34)" style="fill:#f9f9f9"/><path d="M746.63,344.66l5,4.9-1.15,1.16-4.82-.41,2.66,2.62L747,354.31l-5-4.9,1.14-1.17,4.82.41L745.27,346Z" transform="translate(-727.3 -327.34)" style="fill:#f9f9f9"/><path d="M757.88,338.11l3,6.34-1.79.84-1.17-2.47L755.46,344l1.16,2.47-1.79.85-3-6.34,1.8-.84,1.12,2.38,2.44-1.15L756.08,339Z" transform="translate(-727.3 -327.34)" style="fill:#f9f9f9"/><path d="M766.26,341.94l-2.91.54-.3,1.44-2,.36,1.78-7.45,1.92-.35,4.32,6.33-2,.37Zm-.83-1.33-1.29-2-.49,2.37Z" transform="translate(-727.3 -327.34)" style="fill:#f9f9f9"/><path d="M769.61,336l2,.07-.2,5.43,3.34.12-.06,1.56-5.31-.18Z" transform="translate(-727.3 -327.34)" style="fill:#f9f9f9"/><path d="M776.9,336.56l1.93.47-1.29,5.27,3.24.79-.37,1.53-5.17-1.26Z" transform="translate(-727.3 -327.34)" style="fill:#f9f9f9"/><path d="M791.17,345.49c-.84,1.35-2.38,1.56-4,.55l-1-.64-1,1.55-1.68-1,3.68-5.94,2.72,1.68C791.51,342.65,792,344.13,791.17,345.49Zm-1.7-1.06c.34-.55.2-1.09-.5-1.52l-.94-.58L787,344.08l.93.57C788.59,345.09,789.14,345,789.47,344.43Z" transform="translate(-727.3 -327.34)" style="fill:#f9f9f9"/><path d="M794.24,344.74l1.42,1.38-3.78,3.9,2.4,2.32-1.1,1.13-3.82-3.7Z" transform="translate(-727.3 -327.34)" style="fill:#f9f9f9"/><path d="M797.92,357.68l-1.26.86-3.16-4.65,5.79-3.93,3.08,4.54-1.26.85-2-2.91-1,.66,1.74,2.57-1.22.83-1.75-2.57-1,.72Z" transform="translate(-727.3 -327.34)" style="fill:#f9f9f9"/><path d="M803.65,356.82l1.14,3.11c.81,2.17.09,4.13-1.92,4.88s-3.84-.28-4.64-2.46l-1.15-3.1Zm-4,4.91a1.92,1.92,0,1,0,3.6-1.33l-.43-1.18-3.6,1.34Z" transform="translate(-727.3 -327.34)" style="fill:#f9f9f9"/><path d="M803.73,371.06l.17,1.74-2.89.27a5.2,5.2,0,0,1-1.16-2.84,3.64,3.64,0,1,1,7.24-.65,3.82,3.82,0,0,1-1,3.17l-1.25-1.15a2.16,2.16,0,0,0,.61-1.76,2,2,0,0,0-4,.35,2.53,2.53,0,0,0,.33,1.05Z" transform="translate(-727.3 -327.34)" style="fill:#f9f9f9"/><path d="M800.92,379.93l-1.52-.21.77-5.57,6.93,1-.74,5.44-1.52-.21.48-3.49-1.17-.16-.42,3.08-1.47-.2.42-3.08-1.26-.18Z" transform="translate(-727.3 -327.34)" style="fill:#f9f9f9"/><ellipse cx="43.68" cy="43.53" rx="41.23" ry="41.53" style="fill:none;stroke:#e1e1e1;stroke-miterlimit:10;stroke-width:4px"/></svg>