<?xml version="1.0" encoding="utf-8"?>
<!-- Generator: Adobe Illustrator 19.1.0, SVG Export Plug-In . SVG Version: 6.00 Build 0)  -->
<svg version="1.1" id="Layer_1" xmlns="http://www.w3.org/2000/svg" xmlns:xlink="http://www.w3.org/1999/xlink" x="0px" y="0px"
	 width="15px" height="15px" viewBox="-383 295 15 15" style="enable-background:new -383 295 15 15;" xml:space="preserve">
<style type="text/css">
	.st0{fill:#ACE0E8;}
</style>
<path class="st0" d="M-378,304.6h0.3c0.5,0.4,1.2,0.5,1.9,0.5c0.6,0,1.3-0.3,1.9-0.5h0.3c1.4,0.4,3.1,1,3.3,1.9
	c0.1,0.3,0.1,0.5,0.3,0.9c1.2-1.3,1.9-3.1,1.9-5c0-4.1-3.3-7.5-7.5-7.5c-4.1,0-7.5,3.3-7.5,7.5c0,1.8,0.6,3.3,1.7,4.6
	c0-0.3,0.1-0.4,0.1-0.5C-381.1,305.8-379.3,305.1-378,304.6z M-375.9,297.3c1.7,0,3,1.5,3,3.5s-1.3,3.5-3,3.5s-3-1.5-3-3.5
	S-377.5,297.3-375.9,297.3z"/>
<ellipse cx="-375.9" cy="300.8" rx="3" ry="3.5"/>
<path d="M-369.9,307.5c-1,1-2.3,1.9-3.7,2.2c-0.5,0.1-1.2,0.3-1.8,0.3c-0.6,0-1.2-0.1-1.8-0.3c-1.7-0.4-3.1-1.3-4.1-2.6
	c0-0.3,0.1-0.4,0.1-0.5c0.4-0.9,1.9-1.5,3.3-1.9h0.3c0.5,0.4,1.2,0.5,1.9,0.5c0.8,0,1.3-0.3,1.8-0.5h0.3c1.4,0.4,3.1,1,3.3,1.9
	C-370,306.7-370,307.1-369.9,307.5z"/>
</svg>
