<?xml version="1.0" encoding="utf-8"?>
<!-- Generator: Adobe Illustrator 21.1.0, SVG Export Plug-In . SVG Version: 6.00 Build 0)  -->
<svg version="1.1" id="Layer_1" xmlns="http://www.w3.org/2000/svg" xmlns:xlink="http://www.w3.org/1999/xlink" x="0px" y="0px"
	 width="15px" height="15px" viewBox="0 0 15 15" enable-background="new 0 0 15 15" xml:space="preserve">
<g>
	<path fill="#FEDDBD" d="M14.8,7.4c0,1.9-0.8,3.7-1.9,5c-0.3,0.3-0.5,0.5-0.9,0.8c-0.9,0.6-1.8,1.3-2.8,1.4
		c-0.5,0.1-1.1,0.3-1.8,0.3c-0.6,0-1.1-0.1-1.8-0.3c-1.7-0.4-3.1-1.3-3.9-2.5C0.7,10.8,0,9.2,0,7.4c0-4.1,3.3-7.4,7.4-7.4
		C11.5-0.1,14.8,3.2,14.8,7.4z"/>
	<path d="M12.5,6.3c-0.1,0.7-0.1,1.1-0.1,1.8c0,0.7-0.2,1.2-0.6,1.7c-0.4,0.5-0.6,1-0.9,1.5c0,0.2-0.2,0.2-0.3,0.5c0,0,0,0.1,0,0.2
		l0.2,0.5l0,0.6l0,0.8c-0.5,0.3-1.2,0.6-1.8,0.7c-0.5,0.1-1.1,0.2-1.8,0.2c-0.7,0-1.3-0.1-1.9-0.4c-0.4,0-0.9-0.3-1.3-0.4l0.3-1.3
		C4.9,13,5.3,13,5.7,13h0.5c0.2-0.1,0.3-0.2,0.3-0.4c0-0.2-0.2-0.3-0.3-0.3c-0.5,0-0.9-0.1-1.4-0.1c-0.2,0-0.4-0.1-0.6-0.2
		C4.2,12,4.1,12,4,12v0h0c-0.2-0.2-0.5-0.5-0.6-0.8C3,10.3,2.9,9.7,2.6,8.8c-0.1-0.2,0-0.5,0.3-0.5c0.5-0.1,0.9-0.2,1.3-0.5
		c0.1-0.1,0.3-0.1,0.4-0.1c0.4,0,0.9-0.2,1.3-0.3c0.2-0.2,0.5,0,0.6,0.1C7.1,8,7.6,8,8.2,8c0.6-0.1,1.4-0.4,2-0.5
		c0-0.1,0.1-0.1,0.1-0.1s0.1-0.2,0.1-0.3C10.3,7,10.1,7,10,7C9.9,7.2,9.8,7.2,9.5,7.2C9,7.3,8.5,7.7,8,7.7c-0.8,0-1.4-0.5-1.1-1.4
		c0.1-0.5,0.2-1,0.5-1.4c0.2-0.4,0.4-0.5,0.8-0.4c1.1,0.2,2.2,0.3,3.3,0.6C12.2,5.2,12.5,5.5,12.5,6.3z"/>
	<path d="M4.2,12L4.2,12C4.2,12,4.1,12,4,12C4.1,12,4.2,12,4.2,12z"/>
	<path fill="#FF9292" d="M11.1,12.2L11.1,12.2L11.1,12.2C11.1,12.1,11.1,12.1,11.1,12.2z"/>
	<path fill="#FF9292" d="M11.1,12.2L11.1,12.2L11.1,12.2z"/>
</g>
<g>
	<path d="M5,3.1c0-0.6,0-0.6-0.5-0.6H4.4c-1,0-1.3,0.5-1,1.4c0,0.5,0.1,1,0.3,1.5c0.1,0.5,0.1,0.9,0.6,1.3c0.3,0.3,0.6,0.3,1,0.1
		c0.3-0.1,0.4-0.4,0.3-0.9C4.8,4.9,5,3.9,5,3.1z"/>
	<path d="M2.9,5.6c-0.1-0.4-0.1-0.8-0.1-1c0-0.3-0.1-0.4-0.4-0.4C2,4.1,1.6,4.4,1.5,4.9c-0.1,0.4-0.1,0.6-0.1,1c0,0.3,0,0.5,0.1,0.8
		c0.1,0.8,0.8,1.1,1.5,1c0.4,0,0.4-0.3,0.4-0.5C3.3,6.6,3.1,6.1,2.9,5.6z"/>
	<path d="M10.8,2.4C10.3,2.2,9.9,2.1,9.4,2C9,2,8.9,2.1,8.8,2.5c0,0.3-0.1,0.6-0.1,0.9C8.7,3.8,8.8,4,9.2,4c0.5,0.1,1,0.1,1.5,0.3
		c0.4,0,0.5,0,0.5-0.4c0-0.3,0-0.5,0.1-0.9C11.3,2.9,11.2,2.4,10.8,2.4z"/>
	<path d="M7.5,1.6c-0.3,0-0.5,0-0.8,0c-0.8-0.1-1.1,0.4-1.1,1c0,0.4,0,0.9,0,1.1c0,0.5,0,0.9,0.3,1.3c0,0.1,0.1,0.3,0.3,0.4
		c0.1-0.1,0.3-0.1,0.4-0.3c0.3-0.4,0.4-0.6,0.6-1c0.3-0.4,0.5-0.6,0.9-0.8c0.1,0,0.4-0.3,0.4-0.4c0.1-0.3,0.1-0.5,0-0.8
		C8,1.9,7.8,1.6,7.5,1.6z"/>
</g>
</svg>
