<?xml version="1.0" encoding="utf-8"?>
<!-- Generator: Adobe Illustrator 19.1.0, SVG Export Plug-In . SVG Version: 6.00 Build 0)  -->
<svg version="1.1" id="Layer_1" xmlns="http://www.w3.org/2000/svg" xmlns:xlink="http://www.w3.org/1999/xlink" x="0px" y="0px"
	 width="24px" height="24px" viewBox="-131 133 24 24" style="enable-background:new -131 133 24 24;" xml:space="preserve">
<style type="text/css">
	.st0{opacity:0.15;enable-background:new    ;}
	.st1{fill:#439cbf;}
	.st2{fill:#133f44;}
	.st3{fill:#ACE0E8;}
</style>
<path class="st0" d="M-119.1,157c0,0,8.3-1.2,8.3-4s-2.9-4.2-5.3-1.7C-118.6,153.7-119.1,157-119.1,157z"/>
<path class="st1" d="M-127,141.4c0,0,0.8,4.1,3.4,8s4.4,6.6,4.4,6.6l4.4-6.8c0,0,3.4-5,3.4-7.8s-2.6-7.4-7.7-7.4
	C-124.3,134-127,137.9-127,141.4z"/>
<path id="Layer_7_4_" class="st2" d="M-119.1,157l-0.6-0.8c-1.5-1.9-7.8-10.4-7.8-14.6c-0.2-4.4,3.2-8.2,7.7-8.4c0.2,0,0.5,0,0.7,0
	c4.4-0.2,8.2,3.2,8.4,7.7c0,0.2,0,0.5,0,0.7c0,3.5-4.2,9.7-7.4,14.1L-119.1,157z M-119.3,134.8c-3.6-0.2-6.6,2.5-6.8,6.1
	c0,0.2,0,0.5,0,0.7c0,2.9,4.4,9.6,6.8,12.8c2-2.7,6.9-9.5,6.9-12.8c0.2-3.6-2.5-6.6-6.1-6.8C-118.7,134.8-119,134.8-119.3,134.8
	L-119.3,134.8z"/>
<path class="st3" d="M-121,143.1h0.2c0.4,0.3,0.9,0.4,1.5,0.4c0.5,0,1-0.2,1.5-0.4h0.2c1.1,0.3,2.4,0.8,2.6,1.5
	c0.1,0.2,0.1,0.4,0.2,0.7c0.9-1,1.5-2.4,1.5-3.9c0-3.2-2.6-5.8-5.8-5.8c-3.2,0-5.8,2.6-5.8,5.8c0,1.4,0.5,2.6,1.3,3.6
	c0-0.2,0.1-0.3,0.1-0.4C-123.4,144-122,143.5-121,143.1z M-119.4,137.4c1.3,0,2.3,1.2,2.3,2.7s-1,2.7-2.3,2.7s-2.3-1.2-2.3-2.7
	S-120.6,137.4-119.4,137.4z"/>
<ellipse cx="-119.4" cy="140.1" rx="2.3" ry="2.7"/>
<path d="M-114.7,145.3c-0.8,0.8-1.8,1.5-2.9,1.7c-0.4,0.1-0.9,0.2-1.4,0.2s-0.9-0.1-1.4-0.2c-1.3-0.3-2.4-1-3.2-2
	c0-0.2,0.1-0.3,0.1-0.4c0.3-0.7,1.5-1.2,2.6-1.5h0.2c0.4,0.3,0.9,0.4,1.5,0.4s1-0.2,1.4-0.4h0.2c1.1,0.3,2.4,0.8,2.6,1.5
	C-114.8,144.7-114.8,145-114.7,145.3z"/>
</svg>
