<?xml version="1.0" encoding="utf-8"?>
<!-- Generator: Adobe Illustrator 21.1.0, SVG Export Plug-In . SVG Version: 6.00 Build 0)  -->
<svg version="1.1" id="Layer_1" xmlns="http://www.w3.org/2000/svg" xmlns:xlink="http://www.w3.org/1999/xlink" x="0px" y="0px"
	 width="27.8px" height="32.8px" viewBox="0 0 27.8 32.8" style="enable-background:new 0 0 27.8 32.8;" xml:space="preserve">
<style type="text/css">
	.st0{fill:#D5D8D2;}
	.st1{fill:none;}
	.st2{fill:#00408A;}
	.st3{fill:#01408B;}
	.st4{opacity:0.15;enable-background:new    ;}
	.st5{fill:#302F2E;}
	.st6{fill:#323130;}
</style>
<path class="st0" d="M3.2,11.9c0,0,1.1,5.7,4.7,11.1s6.1,9.2,6.1,9.2l6-9.4c0,0,4.6-6.9,4.6-10.8S20.9,1.6,13.9,1.6S3.2,7,3.2,11.9z
	"/>
<g>
	<path class="st1" d="M8.3,21.6L8.5,22h0c1.8,3,3.9,5.9,5.3,7.9c1.6-2.1,4.4-6.1,6.6-9.9H7.3C7.6,20.4,8,21,8.3,21.6z"/>
	<path class="st1" d="M16.9,3.1c-0.7-0.2-1.3-0.3-2-0.4c-0.3,0-0.6,0-1,0c-1.1-0.1-2.1,0.1-3.1,0.4h0H16.9z"/>
	<path class="st0" d="M20.5,5.2H7.2c-1.6,1.5-2.6,3.6-2.8,6c0,0.3,0,0.7,0,1c0,1.8,1.2,4.7,2.9,7.7h13.1c1.6-2.9,2.9-5.8,2.9-7.7
		C23.5,9.4,22.4,6.9,20.5,5.2z"/>
	<path class="st0" d="M2.5,19.9h2.4c-1.1-2.1-2-4.1-2.4-5.8V19.9z"/>
	<path class="st0" d="M25.3,19.9v-5.6c-0.4,1.7-1.2,3.6-2.3,5.6H25.3z"/>
	<path class="st0" d="M2.5,5.2v4.1c0.3-1.5,1-2.9,1.8-4.1H2.5z"/>
	<path class="st0" d="M25.3,5.2h-1.8c0.8,1.2,1.5,2.5,1.8,4V5.2z"/>
	<path class="st2" d="M8.3,21.6c0.1,0.1,0.2,0.3,0.2,0.4h0L8.3,21.6z"/>
	<path class="st2" d="M1.4,20.9V4.1h3.7c0.3-0.4,0.7-0.7,1.1-1H0.4V22H6c-0.2-0.3-0.4-0.7-0.6-1H1.4z"/>
	<path class="st2" d="M27.3,3.1h-5.8c0.4,0.3,0.8,0.7,1.1,1h3.7v16.8h-3.9c-0.2,0.3-0.4,0.7-0.6,1h5.6V3.1z"/>
	<path class="st2" d="M2.5,19.9v-5.8c-0.2-0.7-0.3-1.3-0.3-1.9c0-1,0.1-2,0.3-2.9V5.2h1.8c0.3-0.4,0.5-0.7,0.8-1H1.4v16.8h4
		c-0.2-0.3-0.4-0.7-0.6-1H2.5z"/>
	<path class="st2" d="M25.3,5.2v4c0.1,0.7,0.2,1.3,0.3,2c0,0.3,0,0.7,0,1c0,0.6-0.1,1.3-0.3,2.1v5.6h-2.3c-0.2,0.3-0.4,0.7-0.6,1
		h3.9V4.1h-3.7c0.3,0.3,0.6,0.7,0.8,1H25.3z"/>
	<path class="st3" d="M19.2,22l0.7-1l0.7-1h-0.1c-2.2,3.8-5,7.8-6.6,9.9c-1.5-1.9-3.5-4.9-5.3-7.9h0H6c2.6,4.5,5.9,8.9,7.1,10.4
		l0.8,1.1l1.4-1.8c2.1-2.9,4.6-6.3,6.5-9.7H19.2L19.2,22z"/>
	<path class="st3" d="M13.9,2.7c0.4,0,0.7,0,1,0c0.7,0,1.4,0.2,2,0.4h4.6c-2.1-1.7-4.8-2.7-7.6-2.6c-0.3,0-0.7,0-1,0
		C10.3,0.6,8,1.6,6.2,3.1h4.6C11.8,2.8,12.8,2.7,13.9,2.7z"/>
	<path class="st3" d="M7.2,19.9l0.7,1l0.4,0.7C8,21,7.6,20.4,7.2,19.9L7.2,19.9z"/>
	<path class="st3" d="M19.9,20.9l-0.7,1h0h2.5c0.2-0.3,0.4-0.7,0.6-1H19.9z"/>
	<path class="st3" d="M8.5,4.1c0.7-0.5,1.5-0.8,2.3-1H6.2c-0.4,0.3-0.8,0.7-1.1,1H8.5z"/>
	<path class="st3" d="M19.2,4.1h3.4c-0.3-0.4-0.7-0.7-1.1-1h-4.6C17.7,3.3,18.5,3.7,19.2,4.1z"/>
	<path class="st3" d="M8.5,22c-0.1-0.1-0.2-0.3-0.2-0.4l-0.4-0.7H5.4c0.2,0.3,0.4,0.7,0.6,1H8.5L8.5,22z"/>
	<path class="st3" d="M25.5,12.2c0-0.3,0-0.7,0-1c0-0.7-0.1-1.4-0.3-2v5C25.4,13.5,25.5,12.8,25.5,12.2z"/>
	<path class="st3" d="M2.2,12.2c0,0.6,0.1,1.2,0.3,1.9V9.2C2.3,10.2,2.2,11.2,2.2,12.2z"/>
	<path class="st3" d="M20.5,5.2h2.9c-0.3-0.4-0.5-0.7-0.8-1h-3.4C19.7,4.4,20.1,4.8,20.5,5.2z"/>
	<path class="st3" d="M20.6,19.9L20.6,19.9l-0.7,1h2.5c0.2-0.3,0.4-0.7,0.6-1H20.6z"/>
	<path class="st3" d="M4.3,5.2h2.9c0.4-0.4,0.9-0.7,1.3-1H5.1C4.8,4.5,4.6,4.8,4.3,5.2z"/>
	<path class="st3" d="M6.9,19.9H4.8c0.2,0.3,0.4,0.7,0.6,1h2.5l-0.7-1H6.9z"/>
</g>
<path class="st4" d="M13.6,33.4c0,0,11.5-1.7,11.5-5.6s-4-5.7-7.4-2.4S13.6,33.4,13.6,33.4z"/>
<rect x="2.1" y="4.7" class="st0" width="23.6" height="15.5"/>
<g>
	<path class="st5" d="M12,10.1c1.5-0.2,1.4,1.1,1.9,2c0.2-0.5,0.5-1,0.7-1.4c0.2-0.4,0.4-0.5,0.8-0.5c0.8,0,1.6-0.2,2.2,0.1
		c0.5,0.3,0.8,1.1,1.2,1.8c0.2-0.4,0.4-0.8,0.5-1.2c0-0.1,0.1-0.2,0.1-0.3c0.6-0.8,1.4-0.3,2.2-0.4c0.4-0.1,0.6,0.1,0.8,0.5
		c0.3,0.7,0.7,1.5,1,2.2c0.4,0.9,0.2,1.1-0.8,1.1c-0.1,1.2-0.1,2.3-0.3,3.5c0,0.2-0.4,0.6-0.6,0.5c-0.2,0-0.6-0.3-0.6-0.6
		c-0.1-0.6,0-1.2,0-1.8c0-0.2,0-0.4-0.1-0.6c-0.1,0-0.2,0-0.2,0c0,0.2-0.1,0.4-0.1,0.6c0,0.6,0,1.1,0,1.7c0,0.5-0.2,0.7-0.6,0.7
		c-0.4,0-0.6-0.3-0.6-0.7c0-0.2,0-0.4,0-0.6c-0.1-0.9-0.2-1.8-0.3-2.8c-0.3,0-0.6,0.1-0.8,0c-0.2-0.1-0.3-0.4-0.5-0.7
		c0,1.4,0,2.7,0,4c0,0.2-0.1,0.6-0.3,0.7c-0.4,0.3-0.9-0.1-0.9-0.6c0-0.7,0-1.4,0-2.2c-0.2,0-0.4,0-0.7,0c0,0.7,0,1.4,0,2.2
		c0,0.4-0.2,0.7-0.6,0.7c-0.5,0-0.6-0.3-0.6-0.7c0-1.3,0-2.6,0-3.9c-0.3,0.5-0.6,0.9-1.3,0.6c-0.1,1.2-0.2,2.3-0.2,3.4
		c0,0.4-0.2,0.7-0.6,0.7c-0.4,0-0.6-0.3-0.6-0.7c0-0.7,0-1.3,0-2c0-0.1-0.1-0.2-0.2-0.4c0,0.2-0.1,0.4-0.1,0.5c0,0.6,0,1.2,0,1.8
		c0,0.4-0.2,0.7-0.6,0.7c-0.5,0-0.7-0.3-0.6-0.7c0-0.1,0-0.2,0-0.3c-0.1-1-0.2-2.1-0.2-3.2c-0.8,0.4-1-0.1-1.3-0.6
		c0,1.3,0,2.5,0,3.8c0,0.2,0,0.5-0.1,0.6c-0.2,0.2-0.5,0.3-0.7,0.3c-0.2,0-0.4-0.3-0.4-0.5c0-0.8,0-1.5,0-2.3c-0.3,0-0.5,0-0.7,0
		c0,0.7,0,1.5,0,2.2c0,0.4-0.2,0.7-0.6,0.7c-0.5,0-0.6-0.3-0.6-0.7c0-1.3,0-2.7-0.1-4c-0.1,0.2-0.1,0.4-0.3,0.5
		c-0.2,0.1-0.5,0.3-0.7,0.2c-0.1,0-0.3-0.5-0.2-0.6c0.4-0.9,0.8-1.9,1.2-2.7c0.1-0.2,0.4-0.3,0.6-0.3c0.6,0,1.2,0,1.8,0
		c0.6,0,0.9,0.2,1.1,0.7c0.1,0.3,0.3,0.6,0.5,1.1c0.3-0.6,0.5-0.9,0.6-1.3c0.1-0.2,0.3-0.3,0.4-0.5c0.4,0,0.8,0,1.2-0.1
		C11.8,10.1,11.9,10.1,12,10.1z"/>
	<path class="st6" d="M10.2,7.9c0.3-0.8,1-1.4,1.6-1.4c0.9,0.1,1.6,0.9,1.6,1.8c0,0.2-0.1,0.4-0.1,0.6c0,0.1-0.1,0.1-0.1,0.2
		c0,0,0,0,0,0c-0.1,0.1-0.1,0.2-0.2,0.3c-0.3,0.2-0.6,0.3-0.9,0.5c-0.1,0-0.2,0-0.3,0c-0.9-0.1-1.4-0.6-1.6-1.6
		C10.2,8.2,10.2,8,10.2,7.9z"/>
	<path class="st6" d="M16.4,6.6c0.9,0,1.6,0.8,1.6,1.6c0,0.8-0.8,1.6-1.6,1.6c-0.8,0-1.6-0.8-1.6-1.7C14.8,7.3,15.6,6.6,16.4,6.6z"
		/>
	<path class="st5" d="M8.5,7.3C8.9,8.2,8.8,9,8.1,9.7l0,0c-0.5,0-1,0.1-1.5,0c-0.8-0.2-1.1-1-0.9-1.8c0.1-0.6,0.8-1.2,1.5-1.2
		c0.2,0,0.4,0,0.6,0C8,6.9,8.2,7.1,8.5,7.3z"/>
	<path class="st6" d="M22.6,8.2c0,0.9-0.7,1.6-1.6,1.6c-0.9,0-1.5-0.7-1.5-1.6c0-0.9,0.7-1.6,1.5-1.6C21.9,6.6,22.6,7.3,22.6,8.2z"
		/>
</g>
</svg>
