<svg id="Layer_1" data-name="Layer 1" xmlns="http://www.w3.org/2000/svg" width="24" height="24" viewBox="0 0 24 24">
  <title>next-gen</title>
  <path d="M11.9,24s8.3-1.2,8.3-4-2.9-4.2-5.3-1.7A11.0578,11.0578,0,0,0,11.9,24Z" opacity="0.15" style="isolation: isolate"/>
  <path d="M4,8.4a24.6733,24.6733,0,0,0,3.4,8L11.8,23l4.4-6.8s3.4-5,3.4-7.8A7.8129,7.8129,0,0,0,11.9,1,7.4966,7.4966,0,0,0,4,8.4Z" fill="#ef4822"/>
  <path id="Layer_7" data-name="Layer 7" d="M11.9,24l-.6-.8C9.8,21.3,3.5,12.8,3.5,8.6A8.0491,8.0491,0,0,1,11.2.2h.7a8.0491,8.0491,0,0,1,8.4,7.7v.7c0,3.5-4.2,9.7-7.4,14.1ZM11.7,1.8A6.4114,6.4114,0,0,0,4.9,7.9v.7c0,2.9,4.4,9.6,6.8,12.8,2-2.7,6.9-9.5,6.9-12.8a6.4114,6.4114,0,0,0-6.1-6.8Z" fill="#3a0c0b"/>
  <path d="M10,10.1h.2a2.41,2.41,0,0,0,1.5.4,4.1907,4.1907,0,0,0,1.5-.4h.2c1.1.3,2.4.8,2.6,1.5a6.3729,6.3729,0,0,1,.2.7,5.8963,5.8963,0,0,0,1.5-3.9,5.8,5.8,0,1,0-11.6,0A5.6618,5.6618,0,0,0,7.4,12c0-.2.1-.3.1-.4C7.6,11,9,10.5,10,10.1Zm1.6-5.7a2.4988,2.4988,0,0,1,2.3,2.7,2.4988,2.4988,0,0,1-2.3,2.7A2.4988,2.4988,0,0,1,9.3,7.1,2.5673,2.5673,0,0,1,11.6,4.4Z" fill="#f99285"/>
  <ellipse cx="11.6" cy="7.1" rx="2.3" ry="2.7"/>
  <path d="M16.3,12.3A5.7524,5.7524,0,0,1,13.4,14a5.9019,5.9019,0,0,1-1.4.2,6.7525,6.7525,0,0,1-1.4-.2,5.6888,5.6888,0,0,1-3.2-2c0-.2.1-.3.1-.4.3-.7,1.5-1.2,2.6-1.5h.2a2.41,2.41,0,0,0,1.5.4,2.8906,2.8906,0,0,0,1.4-.4h.2c1.1.3,2.4.8,2.6,1.5C16.2,11.7,16.2,12,16.3,12.3Z"/>
</svg>
