<?xml version="1.0" encoding="utf-8"?>
<!-- Generator: Adobe Illustrator 19.1.0, SVG Export Plug-In . SVG Version: 6.00 Build 0)  -->
<svg version="1.1" id="Layer_1" xmlns="http://www.w3.org/2000/svg" xmlns:xlink="http://www.w3.org/1999/xlink" x="0px" y="0px"
	 width="93px" height="93px" viewBox="-293 316 93 93" style="enable-background:new -293 316 93 93;" xml:space="preserve">
<style type="text/css">
	.st0{fill:#132149;}
	.st1{fill:none;}
</style>
<g>
	<g>
		
			<rect x="-271.6" y="345.5" transform="matrix(0.7071 0.7071 -0.7071 0.7071 167.5569 288.4622)" class="st0" width="14.3" height="2"/>
	</g>
	<g>
		
			<rect x="-265.4" y="339.3" transform="matrix(0.7071 0.7071 -0.7071 0.7071 167.5569 288.4622)" class="st0" width="2" height="14.3"/>
	</g>
</g>
<g>
	<g>
		
			<rect x="-236.2" y="340.4" transform="matrix(0.7071 0.7071 -0.7071 0.7071 174.2701 261.9426)" class="st0" width="14.3" height="2"/>
	</g>
	<g>
		
			<rect x="-230" y="334.2" transform="matrix(0.7071 0.7071 -0.7071 0.7071 174.2704 261.9445)" class="st0" width="2" height="14.3"/>
	</g>
</g>
<g>
	<path class="st0" d="M-258.3,366.8h22.8c0,0,1.7-8.7-10.9-8.7C-259,358.1-258.3,366.8-258.3,366.8z"/>
</g>
<g>
	<path class="st0" d="M-254.2,382.7c0,0,2.3,7.2-1.4,11c-3.7,3.7-7.2,3.1-7.2,3.1l0.2,4.5h32.7v-4.5c0,0-5.3-1-6.9-3.7
		c-1.6-2.7,0-11.5,0-11.5L-254.2,382.7z"/>
</g>
<g>
	<g>
		<rect x="-281.7" y="329.5" class="st1" width="70.5" height="42.8"/>
	</g>
	<g>
		<path class="st0" d="M-211.1,323.8h-70.7c-3.4,0-6.2,2.8-6.2,6.2v49.4c0,3.4,2.8,6.2,6.2,6.2h70.7c3.4,0,6.2-2.8,6.2-6.2v-49.4
			C-204.9,326.5-207.7,323.8-211.1,323.8z M-246.4,379.6c-0.8,0-1.5-0.7-1.5-1.5c0-0.8,0.7-1.5,1.5-1.5c0.8,0,1.5,0.7,1.5,1.5
			C-244.9,379-245.6,379.6-246.4,379.6z M-211.2,372.3h-70.5v-42.8h70.5V372.3z"/>
	</g>
</g>
</svg>
